<?xml version="1.0" encoding="utf-8" standalone="no"?>
<!DOCTYPE svg PUBLIC "-//W3C//DTD SVG 1.1//EN"
  "http://www.w3.org/Graphics/SVG/1.1/DTD/svg11.dtd">
<svg xmlns:xlink="http://www.w3.org/1999/xlink" width="452.16pt" height="226.08pt" viewBox="0 0 452.16 226.08" xmlns="http://www.w3.org/2000/svg" version="1.1">
 <metadata>
  <rdf:RDF xmlns:dc="http://purl.org/dc/elements/1.1/" xmlns:cc="http://creativecommons.org/ns#" xmlns:rdf="http://www.w3.org/1999/02/22-rdf-syntax-ns#">
   <cc:Work>
    <dc:type rdf:resource="http://purl.org/dc/dcmitype/StillImage"/>
    <dc:date>2024-01-31T19:15:45.641813</dc:date>
    <dc:format>image/svg+xml</dc:format>
    <dc:creator>
     <cc:Agent>
      <dc:title>Matplotlib v3.6.2, https://matplotlib.org/</dc:title>
     </cc:Agent>
    </dc:creator>
   </cc:Work>
  </rdf:RDF>
 </metadata>
 <defs>
  <style type="text/css">*{stroke-linejoin: round; stroke-linecap: butt}</style>
 </defs>
 <g id="figure_1">
  <g id="patch_1">
   <path d="M 0 226.08 
L 452.16 226.08 
L 452.16 0 
L 0 0 
z
" style="fill: #ffffff"/>
  </g>
  <g id="axes_1">
   <g id="patch_2">
    <path d="M 56.52 201.2112 
L 406.944 201.2112 
L 406.944 27.1296 
L 56.52 27.1296 
z
" style="fill: #ffffff"/>
   </g>
   <g id="matplotlib.axis_1">
    <g id="xtick_1">
     <g id="text_1">
      <!-- 0.34 -->
      <g style="fill: #262626" transform="translate(52.678578 218.629325) scale(0.12 -0.12)">
       <defs>
        <path id="DejaVuSans-30" d="M 2034 4250 
Q 1547 4250 1301 3770 
Q 1056 3291 1056 2328 
Q 1056 1369 1301 889 
Q 1547 409 2034 409 
Q 2525 409 2770 889 
Q 3016 1369 3016 2328 
Q 3016 3291 2770 3770 
Q 2525 4250 2034 4250 
z
M 2034 4750 
Q 2819 4750 3233 4129 
Q 3647 3509 3647 2328 
Q 3647 1150 3233 529 
Q 2819 -91 2034 -91 
Q 1250 -91 836 529 
Q 422 1150 422 2328 
Q 422 3509 836 4129 
Q 1250 4750 2034 4750 
z
" transform="scale(0.015625)"/>
        <path id="DejaVuSans-2e" d="M 684 794 
L 1344 794 
L 1344 0 
L 684 0 
L 684 794 
z
" transform="scale(0.015625)"/>
        <path id="DejaVuSans-33" d="M 2597 2516 
Q 3050 2419 3304 2112 
Q 3559 1806 3559 1356 
Q 3559 666 3084 287 
Q 2609 -91 1734 -91 
Q 1441 -91 1130 -33 
Q 819 25 488 141 
L 488 750 
Q 750 597 1062 519 
Q 1375 441 1716 441 
Q 2309 441 2620 675 
Q 2931 909 2931 1356 
Q 2931 1769 2642 2001 
Q 2353 2234 1838 2234 
L 1294 2234 
L 1294 2753 
L 1863 2753 
Q 2328 2753 2575 2939 
Q 2822 3125 2822 3475 
Q 2822 3834 2567 4026 
Q 2313 4219 1838 4219 
Q 1578 4219 1281 4162 
Q 984 4106 628 3988 
L 628 4550 
Q 988 4650 1302 4700 
Q 1616 4750 1894 4750 
Q 2613 4750 3031 4423 
Q 3450 4097 3450 3541 
Q 3450 3153 3228 2886 
Q 3006 2619 2597 2516 
z
" transform="scale(0.015625)"/>
        <path id="DejaVuSans-34" d="M 2419 4116 
L 825 1625 
L 2419 1625 
L 2419 4116 
z
M 2253 4666 
L 3047 4666 
L 3047 1625 
L 3713 1625 
L 3713 1100 
L 3047 1100 
L 3047 0 
L 2419 0 
L 2419 1100 
L 313 1100 
L 313 1709 
L 2253 4666 
z
" transform="scale(0.015625)"/>
       </defs>
       <use xlink:href="#DejaVuSans-30"/>
       <use xlink:href="#DejaVuSans-2e" x="63.623047"/>
       <use xlink:href="#DejaVuSans-33" x="95.410156"/>
       <use xlink:href="#DejaVuSans-34" x="159.033203"/>
      </g>
     </g>
    </g>
    <g id="xtick_2">
     <g id="text_2">
      <!-- 0.36 -->
      <g style="fill: #262626" transform="translate(105.455238 218.629325) scale(0.12 -0.12)">
       <defs>
        <path id="DejaVuSans-36" d="M 2113 2584 
Q 1688 2584 1439 2293 
Q 1191 2003 1191 1497 
Q 1191 994 1439 701 
Q 1688 409 2113 409 
Q 2538 409 2786 701 
Q 3034 994 3034 1497 
Q 3034 2003 2786 2293 
Q 2538 2584 2113 2584 
z
M 3366 4563 
L 3366 3988 
Q 3128 4100 2886 4159 
Q 2644 4219 2406 4219 
Q 1781 4219 1451 3797 
Q 1122 3375 1075 2522 
Q 1259 2794 1537 2939 
Q 1816 3084 2150 3084 
Q 2853 3084 3261 2657 
Q 3669 2231 3669 1497 
Q 3669 778 3244 343 
Q 2819 -91 2113 -91 
Q 1303 -91 875 529 
Q 447 1150 447 2328 
Q 447 3434 972 4092 
Q 1497 4750 2381 4750 
Q 2619 4750 2861 4703 
Q 3103 4656 3366 4563 
z
" transform="scale(0.015625)"/>
       </defs>
       <use xlink:href="#DejaVuSans-30"/>
       <use xlink:href="#DejaVuSans-2e" x="63.623047"/>
       <use xlink:href="#DejaVuSans-33" x="95.410156"/>
       <use xlink:href="#DejaVuSans-36" x="159.033203"/>
      </g>
     </g>
    </g>
    <g id="xtick_3">
     <g id="text_3">
      <!-- 0.38 -->
      <g style="fill: #262626" transform="translate(158.231898 218.629325) scale(0.12 -0.12)">
       <defs>
        <path id="DejaVuSans-38" d="M 2034 2216 
Q 1584 2216 1326 1975 
Q 1069 1734 1069 1313 
Q 1069 891 1326 650 
Q 1584 409 2034 409 
Q 2484 409 2743 651 
Q 3003 894 3003 1313 
Q 3003 1734 2745 1975 
Q 2488 2216 2034 2216 
z
M 1403 2484 
Q 997 2584 770 2862 
Q 544 3141 544 3541 
Q 544 4100 942 4425 
Q 1341 4750 2034 4750 
Q 2731 4750 3128 4425 
Q 3525 4100 3525 3541 
Q 3525 3141 3298 2862 
Q 3072 2584 2669 2484 
Q 3125 2378 3379 2068 
Q 3634 1759 3634 1313 
Q 3634 634 3220 271 
Q 2806 -91 2034 -91 
Q 1263 -91 848 271 
Q 434 634 434 1313 
Q 434 1759 690 2068 
Q 947 2378 1403 2484 
z
M 1172 3481 
Q 1172 3119 1398 2916 
Q 1625 2713 2034 2713 
Q 2441 2713 2670 2916 
Q 2900 3119 2900 3481 
Q 2900 3844 2670 4047 
Q 2441 4250 2034 4250 
Q 1625 4250 1398 4047 
Q 1172 3844 1172 3481 
z
" transform="scale(0.015625)"/>
       </defs>
       <use xlink:href="#DejaVuSans-30"/>
       <use xlink:href="#DejaVuSans-2e" x="63.623047"/>
       <use xlink:href="#DejaVuSans-33" x="95.410156"/>
       <use xlink:href="#DejaVuSans-38" x="159.033203"/>
      </g>
     </g>
    </g>
    <g id="xtick_4">
     <g id="text_4">
      <!-- 0.40 -->
      <g style="fill: #262626" transform="translate(211.008558 218.629325) scale(0.12 -0.12)">
       <use xlink:href="#DejaVuSans-30"/>
       <use xlink:href="#DejaVuSans-2e" x="63.623047"/>
       <use xlink:href="#DejaVuSans-34" x="95.410156"/>
       <use xlink:href="#DejaVuSans-30" x="159.033203"/>
      </g>
     </g>
    </g>
    <g id="xtick_5">
     <g id="text_5">
      <!-- 0.42 -->
      <g style="fill: #262626" transform="translate(263.785218 218.629325) scale(0.12 -0.12)">
       <defs>
        <path id="DejaVuSans-32" d="M 1228 531 
L 3431 531 
L 3431 0 
L 469 0 
L 469 531 
Q 828 903 1448 1529 
Q 2069 2156 2228 2338 
Q 2531 2678 2651 2914 
Q 2772 3150 2772 3378 
Q 2772 3750 2511 3984 
Q 2250 4219 1831 4219 
Q 1534 4219 1204 4116 
Q 875 4013 500 3803 
L 500 4441 
Q 881 4594 1212 4672 
Q 1544 4750 1819 4750 
Q 2544 4750 2975 4387 
Q 3406 4025 3406 3419 
Q 3406 3131 3298 2873 
Q 3191 2616 2906 2266 
Q 2828 2175 2409 1742 
Q 1991 1309 1228 531 
z
" transform="scale(0.015625)"/>
       </defs>
       <use xlink:href="#DejaVuSans-30"/>
       <use xlink:href="#DejaVuSans-2e" x="63.623047"/>
       <use xlink:href="#DejaVuSans-34" x="95.410156"/>
       <use xlink:href="#DejaVuSans-32" x="159.033203"/>
      </g>
     </g>
    </g>
    <g id="xtick_6">
     <g id="text_6">
      <!-- 0.44 -->
      <g style="fill: #262626" transform="translate(316.561878 218.629325) scale(0.12 -0.12)">
       <use xlink:href="#DejaVuSans-30"/>
       <use xlink:href="#DejaVuSans-2e" x="63.623047"/>
       <use xlink:href="#DejaVuSans-34" x="95.410156"/>
       <use xlink:href="#DejaVuSans-34" x="159.033203"/>
      </g>
     </g>
    </g>
    <g id="xtick_7">
     <g id="text_7">
      <!-- 0.46 -->
      <g style="fill: #262626" transform="translate(369.338538 218.629325) scale(0.12 -0.12)">
       <use xlink:href="#DejaVuSans-30"/>
       <use xlink:href="#DejaVuSans-2e" x="63.623047"/>
       <use xlink:href="#DejaVuSans-34" x="95.410156"/>
       <use xlink:href="#DejaVuSans-36" x="159.033203"/>
      </g>
     </g>
    </g>
    <g id="text_8">
     <!-- Jensen-Shannon Divergence -->
     <g style="fill: #262626" transform="translate(147.222938 234.243075) scale(0.12 -0.12)">
      <defs>
       <path id="DejaVuSans-4a" d="M 628 4666 
L 1259 4666 
L 1259 325 
Q 1259 -519 939 -900 
Q 619 -1281 -91 -1281 
L -331 -1281 
L -331 -750 
L -134 -750 
Q 284 -750 456 -515 
Q 628 -281 628 325 
L 628 4666 
z
" transform="scale(0.015625)"/>
       <path id="DejaVuSans-65" d="M 3597 1894 
L 3597 1613 
L 953 1613 
Q 991 1019 1311 708 
Q 1631 397 2203 397 
Q 2534 397 2845 478 
Q 3156 559 3463 722 
L 3463 178 
Q 3153 47 2828 -22 
Q 2503 -91 2169 -91 
Q 1331 -91 842 396 
Q 353 884 353 1716 
Q 353 2575 817 3079 
Q 1281 3584 2069 3584 
Q 2775 3584 3186 3129 
Q 3597 2675 3597 1894 
z
M 3022 2063 
Q 3016 2534 2758 2815 
Q 2500 3097 2075 3097 
Q 1594 3097 1305 2825 
Q 1016 2553 972 2059 
L 3022 2063 
z
" transform="scale(0.015625)"/>
       <path id="DejaVuSans-6e" d="M 3513 2113 
L 3513 0 
L 2938 0 
L 2938 2094 
Q 2938 2591 2744 2837 
Q 2550 3084 2163 3084 
Q 1697 3084 1428 2787 
Q 1159 2491 1159 1978 
L 1159 0 
L 581 0 
L 581 3500 
L 1159 3500 
L 1159 2956 
Q 1366 3272 1645 3428 
Q 1925 3584 2291 3584 
Q 2894 3584 3203 3211 
Q 3513 2838 3513 2113 
z
" transform="scale(0.015625)"/>
       <path id="DejaVuSans-73" d="M 2834 3397 
L 2834 2853 
Q 2591 2978 2328 3040 
Q 2066 3103 1784 3103 
Q 1356 3103 1142 2972 
Q 928 2841 928 2578 
Q 928 2378 1081 2264 
Q 1234 2150 1697 2047 
L 1894 2003 
Q 2506 1872 2764 1633 
Q 3022 1394 3022 966 
Q 3022 478 2636 193 
Q 2250 -91 1575 -91 
Q 1294 -91 989 -36 
Q 684 19 347 128 
L 347 722 
Q 666 556 975 473 
Q 1284 391 1588 391 
Q 1994 391 2212 530 
Q 2431 669 2431 922 
Q 2431 1156 2273 1281 
Q 2116 1406 1581 1522 
L 1381 1569 
Q 847 1681 609 1914 
Q 372 2147 372 2553 
Q 372 3047 722 3315 
Q 1072 3584 1716 3584 
Q 2034 3584 2315 3537 
Q 2597 3491 2834 3397 
z
" transform="scale(0.015625)"/>
       <path id="DejaVuSans-2d" d="M 313 2009 
L 1997 2009 
L 1997 1497 
L 313 1497 
L 313 2009 
z
" transform="scale(0.015625)"/>
       <path id="DejaVuSans-53" d="M 3425 4513 
L 3425 3897 
Q 3066 4069 2747 4153 
Q 2428 4238 2131 4238 
Q 1616 4238 1336 4038 
Q 1056 3838 1056 3469 
Q 1056 3159 1242 3001 
Q 1428 2844 1947 2747 
L 2328 2669 
Q 3034 2534 3370 2195 
Q 3706 1856 3706 1288 
Q 3706 609 3251 259 
Q 2797 -91 1919 -91 
Q 1588 -91 1214 -16 
Q 841 59 441 206 
L 441 856 
Q 825 641 1194 531 
Q 1563 422 1919 422 
Q 2459 422 2753 634 
Q 3047 847 3047 1241 
Q 3047 1584 2836 1778 
Q 2625 1972 2144 2069 
L 1759 2144 
Q 1053 2284 737 2584 
Q 422 2884 422 3419 
Q 422 4038 858 4394 
Q 1294 4750 2059 4750 
Q 2388 4750 2728 4690 
Q 3069 4631 3425 4513 
z
" transform="scale(0.015625)"/>
       <path id="DejaVuSans-68" d="M 3513 2113 
L 3513 0 
L 2938 0 
L 2938 2094 
Q 2938 2591 2744 2837 
Q 2550 3084 2163 3084 
Q 1697 3084 1428 2787 
Q 1159 2491 1159 1978 
L 1159 0 
L 581 0 
L 581 4863 
L 1159 4863 
L 1159 2956 
Q 1366 3272 1645 3428 
Q 1925 3584 2291 3584 
Q 2894 3584 3203 3211 
Q 3513 2838 3513 2113 
z
" transform="scale(0.015625)"/>
       <path id="DejaVuSans-61" d="M 2194 1759 
Q 1497 1759 1228 1600 
Q 959 1441 959 1056 
Q 959 750 1161 570 
Q 1363 391 1709 391 
Q 2188 391 2477 730 
Q 2766 1069 2766 1631 
L 2766 1759 
L 2194 1759 
z
M 3341 1997 
L 3341 0 
L 2766 0 
L 2766 531 
Q 2569 213 2275 61 
Q 1981 -91 1556 -91 
Q 1019 -91 701 211 
Q 384 513 384 1019 
Q 384 1609 779 1909 
Q 1175 2209 1959 2209 
L 2766 2209 
L 2766 2266 
Q 2766 2663 2505 2880 
Q 2244 3097 1772 3097 
Q 1472 3097 1187 3025 
Q 903 2953 641 2809 
L 641 3341 
Q 956 3463 1253 3523 
Q 1550 3584 1831 3584 
Q 2591 3584 2966 3190 
Q 3341 2797 3341 1997 
z
" transform="scale(0.015625)"/>
       <path id="DejaVuSans-6f" d="M 1959 3097 
Q 1497 3097 1228 2736 
Q 959 2375 959 1747 
Q 959 1119 1226 758 
Q 1494 397 1959 397 
Q 2419 397 2687 759 
Q 2956 1122 2956 1747 
Q 2956 2369 2687 2733 
Q 2419 3097 1959 3097 
z
M 1959 3584 
Q 2709 3584 3137 3096 
Q 3566 2609 3566 1747 
Q 3566 888 3137 398 
Q 2709 -91 1959 -91 
Q 1206 -91 779 398 
Q 353 888 353 1747 
Q 353 2609 779 3096 
Q 1206 3584 1959 3584 
z
" transform="scale(0.015625)"/>
       <path id="DejaVuSans-20" transform="scale(0.015625)"/>
       <path id="DejaVuSans-44" d="M 1259 4147 
L 1259 519 
L 2022 519 
Q 2988 519 3436 956 
Q 3884 1394 3884 2338 
Q 3884 3275 3436 3711 
Q 2988 4147 2022 4147 
L 1259 4147 
z
M 628 4666 
L 1925 4666 
Q 3281 4666 3915 4102 
Q 4550 3538 4550 2338 
Q 4550 1131 3912 565 
Q 3275 0 1925 0 
L 628 0 
L 628 4666 
z
" transform="scale(0.015625)"/>
       <path id="DejaVuSans-69" d="M 603 3500 
L 1178 3500 
L 1178 0 
L 603 0 
L 603 3500 
z
M 603 4863 
L 1178 4863 
L 1178 4134 
L 603 4134 
L 603 4863 
z
" transform="scale(0.015625)"/>
       <path id="DejaVuSans-76" d="M 191 3500 
L 800 3500 
L 1894 563 
L 2988 3500 
L 3597 3500 
L 2284 0 
L 1503 0 
L 191 3500 
z
" transform="scale(0.015625)"/>
       <path id="DejaVuSans-72" d="M 2631 2963 
Q 2534 3019 2420 3045 
Q 2306 3072 2169 3072 
Q 1681 3072 1420 2755 
Q 1159 2438 1159 1844 
L 1159 0 
L 581 0 
L 581 3500 
L 1159 3500 
L 1159 2956 
Q 1341 3275 1631 3429 
Q 1922 3584 2338 3584 
Q 2397 3584 2469 3576 
Q 2541 3569 2628 3553 
L 2631 2963 
z
" transform="scale(0.015625)"/>
       <path id="DejaVuSans-67" d="M 2906 1791 
Q 2906 2416 2648 2759 
Q 2391 3103 1925 3103 
Q 1463 3103 1205 2759 
Q 947 2416 947 1791 
Q 947 1169 1205 825 
Q 1463 481 1925 481 
Q 2391 481 2648 825 
Q 2906 1169 2906 1791 
z
M 3481 434 
Q 3481 -459 3084 -895 
Q 2688 -1331 1869 -1331 
Q 1566 -1331 1297 -1286 
Q 1028 -1241 775 -1147 
L 775 -588 
Q 1028 -725 1275 -790 
Q 1522 -856 1778 -856 
Q 2344 -856 2625 -561 
Q 2906 -266 2906 331 
L 2906 616 
Q 2728 306 2450 153 
Q 2172 0 1784 0 
Q 1141 0 747 490 
Q 353 981 353 1791 
Q 353 2603 747 3093 
Q 1141 3584 1784 3584 
Q 2172 3584 2450 3431 
Q 2728 3278 2906 2969 
L 2906 3500 
L 3481 3500 
L 3481 434 
z
" transform="scale(0.015625)"/>
       <path id="DejaVuSans-63" d="M 3122 3366 
L 3122 2828 
Q 2878 2963 2633 3030 
Q 2388 3097 2138 3097 
Q 1578 3097 1268 2742 
Q 959 2388 959 1747 
Q 959 1106 1268 751 
Q 1578 397 2138 397 
Q 2388 397 2633 464 
Q 2878 531 3122 666 
L 3122 134 
Q 2881 22 2623 -34 
Q 2366 -91 2075 -91 
Q 1284 -91 818 406 
Q 353 903 353 1747 
Q 353 2603 823 3093 
Q 1294 3584 2113 3584 
Q 2378 3584 2631 3529 
Q 2884 3475 3122 3366 
z
" transform="scale(0.015625)"/>
      </defs>
      <use xlink:href="#DejaVuSans-4a"/>
      <use xlink:href="#DejaVuSans-65" x="29.492188"/>
      <use xlink:href="#DejaVuSans-6e" x="91.015625"/>
      <use xlink:href="#DejaVuSans-73" x="154.394531"/>
      <use xlink:href="#DejaVuSans-65" x="206.494141"/>
      <use xlink:href="#DejaVuSans-6e" x="268.017578"/>
      <use xlink:href="#DejaVuSans-2d" x="331.396484"/>
      <use xlink:href="#DejaVuSans-53" x="367.480469"/>
      <use xlink:href="#DejaVuSans-68" x="430.957031"/>
      <use xlink:href="#DejaVuSans-61" x="494.335938"/>
      <use xlink:href="#DejaVuSans-6e" x="555.615234"/>
      <use xlink:href="#DejaVuSans-6e" x="618.994141"/>
      <use xlink:href="#DejaVuSans-6f" x="682.373047"/>
      <use xlink:href="#DejaVuSans-6e" x="743.554688"/>
      <use xlink:href="#DejaVuSans-20" x="806.933594"/>
      <use xlink:href="#DejaVuSans-44" x="838.720703"/>
      <use xlink:href="#DejaVuSans-69" x="915.722656"/>
      <use xlink:href="#DejaVuSans-76" x="943.505859"/>
      <use xlink:href="#DejaVuSans-65" x="1002.685547"/>
      <use xlink:href="#DejaVuSans-72" x="1064.208984"/>
      <use xlink:href="#DejaVuSans-67" x="1103.572266"/>
      <use xlink:href="#DejaVuSans-65" x="1167.048828"/>
      <use xlink:href="#DejaVuSans-6e" x="1228.572266"/>
      <use xlink:href="#DejaVuSans-63" x="1291.951172"/>
      <use xlink:href="#DejaVuSans-65" x="1346.931641"/>
     </g>
    </g>
   </g>
   <g id="matplotlib.axis_2">
    <g id="ytick_1">
     <g id="text_9">
      <!-- 0.30 -->
      <g style="fill: #262626" transform="translate(21.50125 205.770263) scale(0.12 -0.12)">
       <use xlink:href="#DejaVuSans-30"/>
       <use xlink:href="#DejaVuSans-2e" x="63.623047"/>
       <use xlink:href="#DejaVuSans-33" x="95.410156"/>
       <use xlink:href="#DejaVuSans-30" x="159.033203"/>
      </g>
     </g>
    </g>
    <g id="ytick_2">
     <g id="text_10">
      <!-- 0.35 -->
      <g style="fill: #262626" transform="translate(21.50125 180.901463) scale(0.12 -0.12)">
       <defs>
        <path id="DejaVuSans-35" d="M 691 4666 
L 3169 4666 
L 3169 4134 
L 1269 4134 
L 1269 2991 
Q 1406 3038 1543 3061 
Q 1681 3084 1819 3084 
Q 2600 3084 3056 2656 
Q 3513 2228 3513 1497 
Q 3513 744 3044 326 
Q 2575 -91 1722 -91 
Q 1428 -91 1123 -41 
Q 819 9 494 109 
L 494 744 
Q 775 591 1075 516 
Q 1375 441 1709 441 
Q 2250 441 2565 725 
Q 2881 1009 2881 1497 
Q 2881 1984 2565 2268 
Q 2250 2553 1709 2553 
Q 1456 2553 1204 2497 
Q 953 2441 691 2322 
L 691 4666 
z
" transform="scale(0.015625)"/>
       </defs>
       <use xlink:href="#DejaVuSans-30"/>
       <use xlink:href="#DejaVuSans-2e" x="63.623047"/>
       <use xlink:href="#DejaVuSans-33" x="95.410156"/>
       <use xlink:href="#DejaVuSans-35" x="159.033203"/>
      </g>
     </g>
    </g>
    <g id="ytick_3">
     <g id="text_11">
      <!-- 0.40 -->
      <g style="fill: #262626" transform="translate(21.50125 156.032663) scale(0.12 -0.12)">
       <use xlink:href="#DejaVuSans-30"/>
       <use xlink:href="#DejaVuSans-2e" x="63.623047"/>
       <use xlink:href="#DejaVuSans-34" x="95.410156"/>
       <use xlink:href="#DejaVuSans-30" x="159.033203"/>
      </g>
     </g>
    </g>
    <g id="ytick_4">
     <g id="text_12">
      <!-- 0.45 -->
      <g style="fill: #262626" transform="translate(21.50125 131.163863) scale(0.12 -0.12)">
       <use xlink:href="#DejaVuSans-30"/>
       <use xlink:href="#DejaVuSans-2e" x="63.623047"/>
       <use xlink:href="#DejaVuSans-34" x="95.410156"/>
       <use xlink:href="#DejaVuSans-35" x="159.033203"/>
      </g>
     </g>
    </g>
    <g id="ytick_5">
     <g id="text_13">
      <!-- 0.50 -->
      <g style="fill: #262626" transform="translate(21.50125 106.295063) scale(0.12 -0.12)">
       <use xlink:href="#DejaVuSans-30"/>
       <use xlink:href="#DejaVuSans-2e" x="63.623047"/>
       <use xlink:href="#DejaVuSans-35" x="95.410156"/>
       <use xlink:href="#DejaVuSans-30" x="159.033203"/>
      </g>
     </g>
    </g>
    <g id="ytick_6">
     <g id="text_14">
      <!-- 0.55 -->
      <g style="fill: #262626" transform="translate(21.50125 81.426263) scale(0.12 -0.12)">
       <use xlink:href="#DejaVuSans-30"/>
       <use xlink:href="#DejaVuSans-2e" x="63.623047"/>
       <use xlink:href="#DejaVuSans-35" x="95.410156"/>
       <use xlink:href="#DejaVuSans-35" x="159.033203"/>
      </g>
     </g>
    </g>
    <g id="ytick_7">
     <g id="text_15">
      <!-- 0.60 -->
      <g style="fill: #262626" transform="translate(21.50125 56.557463) scale(0.12 -0.12)">
       <use xlink:href="#DejaVuSans-30"/>
       <use xlink:href="#DejaVuSans-2e" x="63.623047"/>
       <use xlink:href="#DejaVuSans-36" x="95.410156"/>
       <use xlink:href="#DejaVuSans-30" x="159.033203"/>
      </g>
     </g>
    </g>
    <g id="ytick_8">
     <g id="text_16">
      <!-- 0.65 -->
      <g style="fill: #262626" transform="translate(21.50125 31.688663) scale(0.12 -0.12)">
       <use xlink:href="#DejaVuSans-30"/>
       <use xlink:href="#DejaVuSans-2e" x="63.623047"/>
       <use xlink:href="#DejaVuSans-36" x="95.410156"/>
       <use xlink:href="#DejaVuSans-35" x="159.033203"/>
      </g>
     </g>
    </g>
    <g id="text_17">
     <!-- Prediction accuracy, SN10 -->
     <g style="fill: #262626" transform="translate(15.005625 192.69915) rotate(-90) scale(0.12 -0.12)">
      <defs>
       <path id="DejaVuSans-50" d="M 1259 4147 
L 1259 2394 
L 2053 2394 
Q 2494 2394 2734 2622 
Q 2975 2850 2975 3272 
Q 2975 3691 2734 3919 
Q 2494 4147 2053 4147 
L 1259 4147 
z
M 628 4666 
L 2053 4666 
Q 2838 4666 3239 4311 
Q 3641 3956 3641 3272 
Q 3641 2581 3239 2228 
Q 2838 1875 2053 1875 
L 1259 1875 
L 1259 0 
L 628 0 
L 628 4666 
z
" transform="scale(0.015625)"/>
       <path id="DejaVuSans-64" d="M 2906 2969 
L 2906 4863 
L 3481 4863 
L 3481 0 
L 2906 0 
L 2906 525 
Q 2725 213 2448 61 
Q 2172 -91 1784 -91 
Q 1150 -91 751 415 
Q 353 922 353 1747 
Q 353 2572 751 3078 
Q 1150 3584 1784 3584 
Q 2172 3584 2448 3432 
Q 2725 3281 2906 2969 
z
M 947 1747 
Q 947 1113 1208 752 
Q 1469 391 1925 391 
Q 2381 391 2643 752 
Q 2906 1113 2906 1747 
Q 2906 2381 2643 2742 
Q 2381 3103 1925 3103 
Q 1469 3103 1208 2742 
Q 947 2381 947 1747 
z
" transform="scale(0.015625)"/>
       <path id="DejaVuSans-74" d="M 1172 4494 
L 1172 3500 
L 2356 3500 
L 2356 3053 
L 1172 3053 
L 1172 1153 
Q 1172 725 1289 603 
Q 1406 481 1766 481 
L 2356 481 
L 2356 0 
L 1766 0 
Q 1100 0 847 248 
Q 594 497 594 1153 
L 594 3053 
L 172 3053 
L 172 3500 
L 594 3500 
L 594 4494 
L 1172 4494 
z
" transform="scale(0.015625)"/>
       <path id="DejaVuSans-75" d="M 544 1381 
L 544 3500 
L 1119 3500 
L 1119 1403 
Q 1119 906 1312 657 
Q 1506 409 1894 409 
Q 2359 409 2629 706 
Q 2900 1003 2900 1516 
L 2900 3500 
L 3475 3500 
L 3475 0 
L 2900 0 
L 2900 538 
Q 2691 219 2414 64 
Q 2138 -91 1772 -91 
Q 1169 -91 856 284 
Q 544 659 544 1381 
z
M 1991 3584 
L 1991 3584 
z
" transform="scale(0.015625)"/>
       <path id="DejaVuSans-79" d="M 2059 -325 
Q 1816 -950 1584 -1140 
Q 1353 -1331 966 -1331 
L 506 -1331 
L 506 -850 
L 844 -850 
Q 1081 -850 1212 -737 
Q 1344 -625 1503 -206 
L 1606 56 
L 191 3500 
L 800 3500 
L 1894 763 
L 2988 3500 
L 3597 3500 
L 2059 -325 
z
" transform="scale(0.015625)"/>
       <path id="DejaVuSans-2c" d="M 750 794 
L 1409 794 
L 1409 256 
L 897 -744 
L 494 -744 
L 750 256 
L 750 794 
z
" transform="scale(0.015625)"/>
       <path id="DejaVuSans-4e" d="M 628 4666 
L 1478 4666 
L 3547 763 
L 3547 4666 
L 4159 4666 
L 4159 0 
L 3309 0 
L 1241 3903 
L 1241 0 
L 628 0 
L 628 4666 
z
" transform="scale(0.015625)"/>
       <path id="DejaVuSans-31" d="M 794 531 
L 1825 531 
L 1825 4091 
L 703 3866 
L 703 4441 
L 1819 4666 
L 2450 4666 
L 2450 531 
L 3481 531 
L 3481 0 
L 794 0 
L 794 531 
z
" transform="scale(0.015625)"/>
      </defs>
      <use xlink:href="#DejaVuSans-50"/>
      <use xlink:href="#DejaVuSans-72" x="58.552734"/>
      <use xlink:href="#DejaVuSans-65" x="97.416016"/>
      <use xlink:href="#DejaVuSans-64" x="158.939453"/>
      <use xlink:href="#DejaVuSans-69" x="222.416016"/>
      <use xlink:href="#DejaVuSans-63" x="250.199219"/>
      <use xlink:href="#DejaVuSans-74" x="305.179688"/>
      <use xlink:href="#DejaVuSans-69" x="344.388672"/>
      <use xlink:href="#DejaVuSans-6f" x="372.171875"/>
      <use xlink:href="#DejaVuSans-6e" x="433.353516"/>
      <use xlink:href="#DejaVuSans-20" x="496.732422"/>
      <use xlink:href="#DejaVuSans-61" x="528.519531"/>
      <use xlink:href="#DejaVuSans-63" x="589.798828"/>
      <use xlink:href="#DejaVuSans-63" x="644.779297"/>
      <use xlink:href="#DejaVuSans-75" x="699.759766"/>
      <use xlink:href="#DejaVuSans-72" x="763.138672"/>
      <use xlink:href="#DejaVuSans-61" x="804.251953"/>
      <use xlink:href="#DejaVuSans-63" x="865.53125"/>
      <use xlink:href="#DejaVuSans-79" x="920.511719"/>
      <use xlink:href="#DejaVuSans-2c" x="979.691406"/>
      <use xlink:href="#DejaVuSans-20" x="1011.478516"/>
      <use xlink:href="#DejaVuSans-53" x="1043.265625"/>
      <use xlink:href="#DejaVuSans-4e" x="1106.742188"/>
      <use xlink:href="#DejaVuSans-31" x="1181.546875"/>
      <use xlink:href="#DejaVuSans-30" x="1245.169922"/>
     </g>
    </g>
   </g>
   <g id="PathCollection_1">
    <defs>
     <path id="m250591cfa2" d="M 0 2.4 
C 0.636487 2.4 1.246992 2.147121 1.697056 1.697056 
C 2.147121 1.246992 2.4 0.636487 2.4 0 
C 2.4 -0.636487 2.147121 -1.246992 1.697056 -1.697056 
C 1.246992 -2.147121 0.636487 -2.4 0 -2.4 
C -0.636487 -2.4 -1.246992 -2.147121 -1.697056 -1.697056 
C -2.147121 -1.246992 -2.4 -0.636487 -2.4 0 
C -2.4 0.636487 -2.147121 1.246992 -1.697056 1.697056 
C -1.246992 2.147121 -0.636487 2.4 0 2.4 
z
" style="stroke: #e6d800; stroke-opacity: 0.8"/>
    </defs>
    <g clip-path="url(#pcff048e1a1)">
     <use xlink:href="#m250591cfa2" x="167.811618" y="101.586787" style="fill: #e6d800; fill-opacity: 0.8; stroke: #e6d800; stroke-opacity: 0.8"/>
     <use xlink:href="#m250591cfa2" x="255.673663" y="100.940198" style="fill: #e6d800; fill-opacity: 0.8; stroke: #e6d800; stroke-opacity: 0.8"/>
     <use xlink:href="#m250591cfa2" x="225.376286" y="98.353843" style="fill: #e6d800; fill-opacity: 0.8; stroke: #e6d800; stroke-opacity: 0.8"/>
     <use xlink:href="#m250591cfa2" x="207.147029" y="104.123405" style="fill: #e6d800; fill-opacity: 0.8; stroke: #e6d800; stroke-opacity: 0.8"/>
     <use xlink:href="#m250591cfa2" x="209.03722" y="101.686262" style="fill: #e6d800; fill-opacity: 0.8; stroke: #e6d800; stroke-opacity: 0.8"/>
     <use xlink:href="#m250591cfa2" x="189.937671" y="101.089411" style="fill: #e6d800; fill-opacity: 0.8; stroke: #e6d800; stroke-opacity: 0.8"/>
     <use xlink:href="#m250591cfa2" x="155.158873" y="99.895709" style="fill: #e6d800; fill-opacity: 0.8; stroke: #e6d800; stroke-opacity: 0.8"/>
     <use xlink:href="#m250591cfa2" x="98.289485" y="102.581539" style="fill: #e6d800; fill-opacity: 0.8; stroke: #e6d800; stroke-opacity: 0.8"/>
     <use xlink:href="#m250591cfa2" x="195.975789" y="93.628771" style="fill: #e6d800; fill-opacity: 0.8; stroke: #e6d800; stroke-opacity: 0.8"/>
     <use xlink:href="#m250591cfa2" x="347.063082" y="99.845971" style="fill: #e6d800; fill-opacity: 0.8; stroke: #e6d800; stroke-opacity: 0.8"/>
     <use xlink:href="#m250591cfa2" x="268.034173" y="102.084163" style="fill: #e6d800; fill-opacity: 0.8; stroke: #e6d800; stroke-opacity: 0.8"/>
     <use xlink:href="#m250591cfa2" x="359.777745" y="103.078915" style="fill: #e6d800; fill-opacity: 0.8; stroke: #e6d800; stroke-opacity: 0.8"/>
     <use xlink:href="#m250591cfa2" x="276.62369" y="101.785738" style="fill: #e6d800; fill-opacity: 0.8; stroke: #e6d800; stroke-opacity: 0.8"/>
     <use xlink:href="#m250591cfa2" x="289.345175" y="103.526554" style="fill: #e6d800; fill-opacity: 0.8; stroke: #e6d800; stroke-opacity: 0.8"/>
     <use xlink:href="#m250591cfa2" x="283.146407" y="98.00568" style="fill: #e6d800; fill-opacity: 0.8; stroke: #e6d800; stroke-opacity: 0.8"/>
     <use xlink:href="#m250591cfa2" x="305.700265" y="99.497808" style="fill: #e6d800; fill-opacity: 0.8; stroke: #e6d800; stroke-opacity: 0.8"/>
     <use xlink:href="#m250591cfa2" x="145.320839" y="103.924454" style="fill: #e6d800; fill-opacity: 0.8; stroke: #e6d800; stroke-opacity: 0.8"/>
     <use xlink:href="#m250591cfa2" x="225.185466" y="99.597283" style="fill: #e6d800; fill-opacity: 0.8; stroke: #e6d800; stroke-opacity: 0.8"/>
     <use xlink:href="#m250591cfa2" x="249.665875" y="101.53705" style="fill: #e6d800; fill-opacity: 0.8; stroke: #e6d800; stroke-opacity: 0.8"/>
     <use xlink:href="#m250591cfa2" x="285.201847" y="102.482064" style="fill: #e6d800; fill-opacity: 0.8; stroke: #e6d800; stroke-opacity: 0.8"/>
     <use xlink:href="#m250591cfa2" x="288.495924" y="101.885213" style="fill: #e6d800; fill-opacity: 0.8; stroke: #e6d800; stroke-opacity: 0.8"/>
     <use xlink:href="#m250591cfa2" x="213.091824" y="105.068419" style="fill: #e6d800; fill-opacity: 0.8; stroke: #e6d800; stroke-opacity: 0.8"/>
     <use xlink:href="#m250591cfa2" x="258.411882" y="102.929702" style="fill: #e6d800; fill-opacity: 0.8; stroke: #e6d800; stroke-opacity: 0.8"/>
     <use xlink:href="#m250591cfa2" x="158.314689" y="99.348595" style="fill: #e6d800; fill-opacity: 0.8; stroke: #e6d800; stroke-opacity: 0.8"/>
     <use xlink:href="#m250591cfa2" x="209.080701" y="104.372093" style="fill: #e6d800; fill-opacity: 0.8; stroke: #e6d800; stroke-opacity: 0.8"/>
     <use xlink:href="#m250591cfa2" x="219.692529" y="100.890461" style="fill: #e6d800; fill-opacity: 0.8; stroke: #e6d800; stroke-opacity: 0.8"/>
     <use xlink:href="#m250591cfa2" x="234.667728" y="99.348595" style="fill: #e6d800; fill-opacity: 0.8; stroke: #e6d800; stroke-opacity: 0.8"/>
     <use xlink:href="#m250591cfa2" x="231.197602" y="98.00568" style="fill: #e6d800; fill-opacity: 0.8; stroke: #e6d800; stroke-opacity: 0.8"/>
     <use xlink:href="#m250591cfa2" x="159.378669" y="105.317107" style="fill: #e6d800; fill-opacity: 0.8; stroke: #e6d800; stroke-opacity: 0.8"/>
     <use xlink:href="#m250591cfa2" x="241.015976" y="101.885213" style="fill: #e6d800; fill-opacity: 0.8; stroke: #e6d800; stroke-opacity: 0.8"/>
     <use xlink:href="#m250591cfa2" x="171.438313" y="100.641773" style="fill: #e6d800; fill-opacity: 0.8; stroke: #e6d800; stroke-opacity: 0.8"/>
     <use xlink:href="#m250591cfa2" x="177.744193" y="103.277866" style="fill: #e6d800; fill-opacity: 0.8; stroke: #e6d800; stroke-opacity: 0.8"/>
     <use xlink:href="#m250591cfa2" x="164.387472" y="107.306611" style="fill: #e6d800; fill-opacity: 0.8; stroke: #e6d800; stroke-opacity: 0.8"/>
     <use xlink:href="#m250591cfa2" x="236.96561" y="101.984688" style="fill: #e6d800; fill-opacity: 0.8; stroke: #e6d800; stroke-opacity: 0.8"/>
     <use xlink:href="#m250591cfa2" x="135.282277" y="104.670518" style="fill: #e6d800; fill-opacity: 0.8; stroke: #e6d800; stroke-opacity: 0.8"/>
     <use xlink:href="#m250591cfa2" x="228.620032" y="101.437574" style="fill: #e6d800; fill-opacity: 0.8; stroke: #e6d800; stroke-opacity: 0.8"/>
     <use xlink:href="#m250591cfa2" x="94.62715" y="104.620781" style="fill: #e6d800; fill-opacity: 0.8; stroke: #e6d800; stroke-opacity: 0.8"/>
     <use xlink:href="#m250591cfa2" x="212.543533" y="100.044922" style="fill: #e6d800; fill-opacity: 0.8; stroke: #e6d800; stroke-opacity: 0.8"/>
     <use xlink:href="#m250591cfa2" x="177.768517" y="99.746496" style="fill: #e6d800; fill-opacity: 0.8; stroke: #e6d800; stroke-opacity: 0.8"/>
     <use xlink:href="#m250591cfa2" x="198.668352" y="99.199382" style="fill: #e6d800; fill-opacity: 0.8; stroke: #e6d800; stroke-opacity: 0.8"/>
     <use xlink:href="#m250591cfa2" x="197.652284" y="100.641773" style="fill: #e6d800; fill-opacity: 0.8; stroke: #e6d800; stroke-opacity: 0.8"/>
     <use xlink:href="#m250591cfa2" x="198.067096" y="101.238624" style="fill: #e6d800; fill-opacity: 0.8; stroke: #e6d800; stroke-opacity: 0.8"/>
     <use xlink:href="#m250591cfa2" x="261.050363" y="102.531802" style="fill: #e6d800; fill-opacity: 0.8; stroke: #e6d800; stroke-opacity: 0.8"/>
     <use xlink:href="#m250591cfa2" x="132.790076" y="100.29361" style="fill: #e6d800; fill-opacity: 0.8; stroke: #e6d800; stroke-opacity: 0.8"/>
     <use xlink:href="#m250591cfa2" x="183.255236" y="105.416582" style="fill: #e6d800; fill-opacity: 0.8; stroke: #e6d800; stroke-opacity: 0.8"/>
     <use xlink:href="#m250591cfa2" x="344.601316" y="101.238624" style="fill: #e6d800; fill-opacity: 0.8; stroke: #e6d800; stroke-opacity: 0.8"/>
     <use xlink:href="#m250591cfa2" x="278.070048" y="101.636525" style="fill: #e6d800; fill-opacity: 0.8; stroke: #e6d800; stroke-opacity: 0.8"/>
     <use xlink:href="#m250591cfa2" x="289.671893" y="101.487312" style="fill: #e6d800; fill-opacity: 0.8; stroke: #e6d800; stroke-opacity: 0.8"/>
     <use xlink:href="#m250591cfa2" x="367.860244" y="100.343347" style="fill: #e6d800; fill-opacity: 0.8; stroke: #e6d800; stroke-opacity: 0.8"/>
     <use xlink:href="#m250591cfa2" x="262.759755" y="101.586787" style="fill: #e6d800; fill-opacity: 0.8; stroke: #e6d800; stroke-opacity: 0.8"/>
     <use xlink:href="#m250591cfa2" x="301.894307" y="97.955942" style="fill: #e6d800; fill-opacity: 0.8; stroke: #e6d800; stroke-opacity: 0.8"/>
     <use xlink:href="#m250591cfa2" x="391.015636" y="102.730752" style="fill: #e6d800; fill-opacity: 0.8; stroke: #e6d800; stroke-opacity: 0.8"/>
     <use xlink:href="#m250591cfa2" x="209.876092" y="103.128653" style="fill: #e6d800; fill-opacity: 0.8; stroke: #e6d800; stroke-opacity: 0.8"/>
     <use xlink:href="#m250591cfa2" x="315.604993" y="106.90871" style="fill: #e6d800; fill-opacity: 0.8; stroke: #e6d800; stroke-opacity: 0.8"/>
     <use xlink:href="#m250591cfa2" x="230.447043" y="102.78049" style="fill: #e6d800; fill-opacity: 0.8; stroke: #e6d800; stroke-opacity: 0.8"/>
     <use xlink:href="#m250591cfa2" x="227.246243" y="102.183638" style="fill: #e6d800; fill-opacity: 0.8; stroke: #e6d800; stroke-opacity: 0.8"/>
     <use xlink:href="#m250591cfa2" x="249.824095" y="101.885213" style="fill: #e6d800; fill-opacity: 0.8; stroke: #e6d800; stroke-opacity: 0.8"/>
     <use xlink:href="#m250591cfa2" x="278.520366" y="101.636525" style="fill: #e6d800; fill-opacity: 0.8; stroke: #e6d800; stroke-opacity: 0.8"/>
     <use xlink:href="#m250591cfa2" x="193.667426" y="101.586787" style="fill: #e6d800; fill-opacity: 0.8; stroke: #e6d800; stroke-opacity: 0.8"/>
     <use xlink:href="#m250591cfa2" x="238.433913" y="103.078915" style="fill: #e6d800; fill-opacity: 0.8; stroke: #e6d800; stroke-opacity: 0.8"/>
     <use xlink:href="#m250591cfa2" x="345.196957" y="98.304106" style="fill: #e6d800; fill-opacity: 0.8; stroke: #e6d800; stroke-opacity: 0.8"/>
     <use xlink:href="#m250591cfa2" x="241.827144" y="103.277866" style="fill: #e6d800; fill-opacity: 0.8; stroke: #e6d800; stroke-opacity: 0.8"/>
     <use xlink:href="#m250591cfa2" x="251.540414" y="102.830227" style="fill: #e6d800; fill-opacity: 0.8; stroke: #e6d800; stroke-opacity: 0.8"/>
     <use xlink:href="#m250591cfa2" x="208.637497" y="102.929702" style="fill: #e6d800; fill-opacity: 0.8; stroke: #e6d800; stroke-opacity: 0.8"/>
     <use xlink:href="#m250591cfa2" x="234.444376" y="104.620781" style="fill: #e6d800; fill-opacity: 0.8; stroke: #e6d800; stroke-opacity: 0.8"/>
     <use xlink:href="#m250591cfa2" x="259.585752" y="105.167894" style="fill: #e6d800; fill-opacity: 0.8; stroke: #e6d800; stroke-opacity: 0.8"/>
     <use xlink:href="#m250591cfa2" x="233.222993" y="99.597283" style="fill: #e6d800; fill-opacity: 0.8; stroke: #e6d800; stroke-opacity: 0.8"/>
     <use xlink:href="#m250591cfa2" x="219.435223" y="103.974192" style="fill: #e6d800; fill-opacity: 0.8; stroke: #e6d800; stroke-opacity: 0.8"/>
     <use xlink:href="#m250591cfa2" x="235.720796" y="103.476816" style="fill: #e6d800; fill-opacity: 0.8; stroke: #e6d800; stroke-opacity: 0.8"/>
     <use xlink:href="#m250591cfa2" x="264.213399" y="96.314602" style="fill: #e6d800; fill-opacity: 0.8; stroke: #e6d800; stroke-opacity: 0.8"/>
     <use xlink:href="#m250591cfa2" x="142.901751" y="105.864221" style="fill: #e6d800; fill-opacity: 0.8; stroke: #e6d800; stroke-opacity: 0.8"/>
     <use xlink:href="#m250591cfa2" x="225.66737" y="101.039674" style="fill: #e6d800; fill-opacity: 0.8; stroke: #e6d800; stroke-opacity: 0.8"/>
     <use xlink:href="#m250591cfa2" x="187.007605" y="101.93495" style="fill: #e6d800; fill-opacity: 0.8; stroke: #e6d800; stroke-opacity: 0.8"/>
     <use xlink:href="#m250591cfa2" x="275.824813" y="102.681014" style="fill: #e6d800; fill-opacity: 0.8; stroke: #e6d800; stroke-opacity: 0.8"/>
     <use xlink:href="#m250591cfa2" x="205.20739" y="103.277866" style="fill: #e6d800; fill-opacity: 0.8; stroke: #e6d800; stroke-opacity: 0.8"/>
     <use xlink:href="#m250591cfa2" x="253.343878" y="99.497808" style="fill: #e6d800; fill-opacity: 0.8; stroke: #e6d800; stroke-opacity: 0.8"/>
     <use xlink:href="#m250591cfa2" x="219.557723" y="103.576291" style="fill: #e6d800; fill-opacity: 0.8; stroke: #e6d800; stroke-opacity: 0.8"/>
     <use xlink:href="#m250591cfa2" x="123.200124" y="97.309354" style="fill: #e6d800; fill-opacity: 0.8; stroke: #e6d800; stroke-opacity: 0.8"/>
     <use xlink:href="#m250591cfa2" x="199.84971" y="102.531802" style="fill: #e6d800; fill-opacity: 0.8; stroke: #e6d800; stroke-opacity: 0.8"/>
     <use xlink:href="#m250591cfa2" x="136.395564" y="103.675766" style="fill: #e6d800; fill-opacity: 0.8; stroke: #e6d800; stroke-opacity: 0.8"/>
     <use xlink:href="#m250591cfa2" x="220.28272" y="100.840723" style="fill: #e6d800; fill-opacity: 0.8; stroke: #e6d800; stroke-opacity: 0.8"/>
     <use xlink:href="#m250591cfa2" x="330.893807" y="98.503056" style="fill: #e6d800; fill-opacity: 0.8; stroke: #e6d800; stroke-opacity: 0.8"/>
     <use xlink:href="#m250591cfa2" x="197.75616" y="100.343347" style="fill: #e6d800; fill-opacity: 0.8; stroke: #e6d800; stroke-opacity: 0.8"/>
     <use xlink:href="#m250591cfa2" x="290.467181" y="103.277866" style="fill: #e6d800; fill-opacity: 0.8; stroke: #e6d800; stroke-opacity: 0.8"/>
     <use xlink:href="#m250591cfa2" x="278.956133" y="102.084163" style="fill: #e6d800; fill-opacity: 0.8; stroke: #e6d800; stroke-opacity: 0.8"/>
     <use xlink:href="#m250591cfa2" x="251.079668" y="107.256874" style="fill: #e6d800; fill-opacity: 0.8; stroke: #e6d800; stroke-opacity: 0.8"/>
     <use xlink:href="#m250591cfa2" x="285.158971" y="100.542298" style="fill: #e6d800; fill-opacity: 0.8; stroke: #e6d800; stroke-opacity: 0.8"/>
     <use xlink:href="#m250591cfa2" x="271.181777" y="99.348595" style="fill: #e6d800; fill-opacity: 0.8; stroke: #e6d800; stroke-opacity: 0.8"/>
     <use xlink:href="#m250591cfa2" x="289.038234" y="102.730752" style="fill: #e6d800; fill-opacity: 0.8; stroke: #e6d800; stroke-opacity: 0.8"/>
     <use xlink:href="#m250591cfa2" x="230.776532" y="101.53705" style="fill: #e6d800; fill-opacity: 0.8; stroke: #e6d800; stroke-opacity: 0.8"/>
    </g>
   </g>
   <g id="PolyCollection_1">
    <defs>
     <path id="m22620ee419" d="M 94.62715 -124.745801 
L 94.62715 -122.312305 
L 97.620973 -122.356335 
L 100.614796 -122.387244 
L 103.608619 -122.418153 
L 106.602442 -122.453287 
L 109.596265 -122.490337 
L 112.590088 -122.530518 
L 115.583911 -122.55735 
L 118.577734 -122.589009 
L 121.571558 -122.631775 
L 124.565381 -122.674935 
L 127.559204 -122.718095 
L 130.553027 -122.761255 
L 133.54685 -122.795417 
L 136.540673 -122.836381 
L 139.534496 -122.871049 
L 142.528319 -122.909383 
L 145.522142 -122.946496 
L 148.515965 -122.979536 
L 151.509788 -123.012576 
L 154.503612 -123.045616 
L 157.497435 -123.078656 
L 160.491258 -123.111457 
L 163.485081 -123.14448 
L 166.478904 -123.177502 
L 169.472727 -123.210524 
L 172.46655 -123.243635 
L 175.460373 -123.270145 
L 178.454196 -123.309591 
L 181.448019 -123.342614 
L 184.441843 -123.375636 
L 187.435666 -123.399945 
L 190.429489 -123.427893 
L 193.423312 -123.459073 
L 196.417135 -123.490779 
L 199.410958 -123.518535 
L 202.404781 -123.538644 
L 205.398604 -123.571909 
L 208.392427 -123.605559 
L 211.38625 -123.63216 
L 214.380074 -123.652011 
L 217.373897 -123.67546 
L 220.36772 -123.70225 
L 223.361543 -123.720695 
L 226.355366 -123.742705 
L 229.349189 -123.771805 
L 232.343012 -123.791917 
L 235.336835 -123.818022 
L 238.330658 -123.833509 
L 241.324481 -123.847785 
L 244.318305 -123.850304 
L 247.312128 -123.875561 
L 250.305951 -123.893615 
L 253.299774 -123.921147 
L 256.293597 -123.933531 
L 259.28742 -123.940863 
L 262.281243 -123.947463 
L 265.275066 -123.93672 
L 268.268889 -123.948412 
L 271.262712 -123.962186 
L 274.256536 -123.971311 
L 277.250359 -123.974509 
L 280.244182 -123.969056 
L 283.238005 -123.963811 
L 286.231828 -123.958397 
L 289.225651 -123.962687 
L 292.219474 -123.971123 
L 295.213297 -123.966867 
L 298.20712 -123.965802 
L 301.200943 -123.970269 
L 304.194767 -123.97294 
L 307.18859 -123.980596 
L 310.182413 -123.981252 
L 313.176236 -123.96269 
L 316.170059 -123.944184 
L 319.163882 -123.939502 
L 322.157705 -123.951055 
L 325.151528 -123.93915 
L 328.145351 -123.921108 
L 331.139174 -123.915323 
L 334.132997 -123.914641 
L 337.126821 -123.91535 
L 340.120644 -123.91606 
L 343.114467 -123.907168 
L 346.10829 -123.906276 
L 349.102113 -123.893953 
L 352.095936 -123.882518 
L 355.089759 -123.877666 
L 358.083582 -123.872971 
L 361.077405 -123.868276 
L 364.071228 -123.863582 
L 367.065052 -123.856151 
L 370.058875 -123.846928 
L 373.052698 -123.840965 
L 376.046521 -123.835931 
L 379.040344 -123.827847 
L 382.034167 -123.817717 
L 385.02799 -123.808688 
L 388.021813 -123.805481 
L 391.015636 -123.802357 
L 391.015636 -126.49726 
L 391.015636 -126.49726 
L 388.021813 -126.459807 
L 385.02799 -126.421734 
L 382.034167 -126.382937 
L 379.040344 -126.344087 
L 376.046521 -126.304537 
L 373.052698 -126.261438 
L 370.058875 -126.218339 
L 367.065052 -126.17524 
L 364.071228 -126.132029 
L 361.077405 -126.088675 
L 358.083582 -126.045429 
L 355.089759 -126.005138 
L 352.095936 -125.967001 
L 349.102113 -125.928975 
L 346.10829 -125.895983 
L 343.114467 -125.862596 
L 340.120644 -125.829523 
L 337.126821 -125.796356 
L 334.132997 -125.761601 
L 331.139174 -125.722912 
L 328.145351 -125.68408 
L 325.151528 -125.645151 
L 322.157705 -125.607609 
L 319.163882 -125.574037 
L 316.170059 -125.541487 
L 313.176236 -125.516612 
L 310.182413 -125.485572 
L 307.18859 -125.450812 
L 304.194767 -125.423437 
L 301.200943 -125.392362 
L 298.20712 -125.361358 
L 295.213297 -125.330234 
L 292.219474 -125.299109 
L 289.225651 -125.268148 
L 286.231828 -125.23646 
L 283.238005 -125.21131 
L 280.244182 -125.181734 
L 277.250359 -125.155692 
L 274.256536 -125.129476 
L 271.262712 -125.089828 
L 268.268889 -125.071553 
L 265.275066 -125.040641 
L 262.281243 -125.02396 
L 259.28742 -124.993864 
L 256.293597 -124.961951 
L 253.299774 -124.927034 
L 250.305951 -124.890656 
L 247.312128 -124.866916 
L 244.318305 -124.854669 
L 241.324481 -124.829008 
L 238.330658 -124.813214 
L 235.336835 -124.795552 
L 232.343012 -124.779817 
L 229.349189 -124.766685 
L 226.355366 -124.755681 
L 223.361543 -124.741026 
L 220.36772 -124.7301 
L 217.373897 -124.719226 
L 214.380074 -124.708082 
L 211.38625 -124.701427 
L 208.392427 -124.695382 
L 205.398604 -124.691075 
L 202.404781 -124.687001 
L 199.410958 -124.679622 
L 196.417135 -124.684787 
L 193.423312 -124.672314 
L 190.429489 -124.67253 
L 187.435666 -124.668099 
L 184.441843 -124.664404 
L 181.448019 -124.678279 
L 178.454196 -124.675577 
L 175.460373 -124.671868 
L 172.46655 -124.669477 
L 169.472727 -124.668295 
L 166.478904 -124.666021 
L 163.485081 -124.660599 
L 160.491258 -124.662766 
L 157.497435 -124.66502 
L 154.503612 -124.666873 
L 151.509788 -124.668702 
L 148.515965 -124.670826 
L 145.522142 -124.676655 
L 142.528319 -124.679281 
L 139.534496 -124.683509 
L 136.540673 -124.687737 
L 133.54685 -124.691824 
L 130.553027 -124.69583 
L 127.559204 -124.699442 
L 124.565381 -124.695744 
L 121.571558 -124.705798 
L 118.577734 -124.715448 
L 115.583911 -124.720865 
L 112.590088 -124.724171 
L 109.596265 -124.725028 
L 106.602442 -124.729159 
L 103.608619 -124.733291 
L 100.614796 -124.738864 
L 97.620973 -124.74208 
L 94.62715 -124.745801 
z
" style="stroke: #ffffff; stroke-opacity: 0.15; stroke-width: 0.8"/>
    </defs>
    <g clip-path="url(#pcff048e1a1)">
     <use xlink:href="#m22620ee419" x="0" y="226.08" style="fill: #e6d800; fill-opacity: 0.15; stroke: #ffffff; stroke-opacity: 0.15; stroke-width: 0.8"/>
    </g>
   </g>
   <g id="PathCollection_2">
    <defs>
     <path id="m1b78b73936" d="M 0 2.4 
C 0.636487 2.4 1.246992 2.147121 1.697056 1.697056 
C 2.147121 1.246992 2.4 0.636487 2.4 0 
C 2.4 -0.636487 2.147121 -1.246992 1.697056 -1.697056 
C 1.246992 -2.147121 0.636487 -2.4 0 -2.4 
C -0.636487 -2.4 -1.246992 -2.147121 -1.697056 -1.697056 
C -2.147121 -1.246992 -2.4 -0.636487 -2.4 0 
C -2.4 0.636487 -2.147121 1.246992 -1.697056 1.697056 
C -1.246992 2.147121 -0.636487 2.4 0 2.4 
z
" style="stroke: #0bb4ff; stroke-opacity: 0.8"/>
    </defs>
    <g clip-path="url(#pcff048e1a1)">
     <use xlink:href="#m1b78b73936" x="263.772491" y="101.487063" style="fill: #0bb4ff; fill-opacity: 0.8; stroke: #0bb4ff; stroke-opacity: 0.8"/>
     <use xlink:href="#m1b78b73936" x="344.345381" y="105.121542" style="fill: #0bb4ff; fill-opacity: 0.8; stroke: #0bb4ff; stroke-opacity: 0.8"/>
     <use xlink:href="#m1b78b73936" x="222.317318" y="105.768778" style="fill: #0bb4ff; fill-opacity: 0.8; stroke: #0bb4ff; stroke-opacity: 0.8"/>
     <use xlink:href="#m1b78b73936" x="236.847857" y="102.333449" style="fill: #0bb4ff; fill-opacity: 0.8; stroke: #0bb4ff; stroke-opacity: 0.8"/>
     <use xlink:href="#m1b78b73936" x="237.042483" y="101.238126" style="fill: #0bb4ff; fill-opacity: 0.8; stroke: #0bb4ff; stroke-opacity: 0.8"/>
     <use xlink:href="#m1b78b73936" x="270.242482" y="103.478559" style="fill: #0bb4ff; fill-opacity: 0.8; stroke: #0bb4ff; stroke-opacity: 0.8"/>
     <use xlink:href="#m1b78b73936" x="311.084377" y="100.491315" style="fill: #0bb4ff; fill-opacity: 0.8; stroke: #0bb4ff; stroke-opacity: 0.8"/>
     <use xlink:href="#m1b78b73936" x="349.976125" y="102.68196" style="fill: #0bb4ff; fill-opacity: 0.8; stroke: #0bb4ff; stroke-opacity: 0.8"/>
     <use xlink:href="#m1b78b73936" x="283.365818" y="101.487063" style="fill: #0bb4ff; fill-opacity: 0.8; stroke: #0bb4ff; stroke-opacity: 0.8"/>
     <use xlink:href="#m1b78b73936" x="164.207086" y="106.515589" style="fill: #0bb4ff; fill-opacity: 0.8; stroke: #0bb4ff; stroke-opacity: 0.8"/>
    </g>
   </g>
   <g id="PolyCollection_2">
    <defs>
     <path id="mf4538109d6" d="M 164.207086 -126.361016 
L 164.207086 -119.38791 
L 166.083541 -119.467982 
L 167.959996 -119.548767 
L 169.836451 -119.622651 
L 171.712906 -119.707282 
L 173.589361 -119.784198 
L 175.465816 -119.861207 
L 177.342271 -119.930329 
L 179.218726 -120.007396 
L 181.095181 -120.063977 
L 182.971636 -120.132425 
L 184.848091 -120.209069 
L 186.724545 -120.26142 
L 188.601 -120.309848 
L 190.477455 -120.353801 
L 192.35391 -120.421363 
L 194.230365 -120.487547 
L 196.10682 -120.545723 
L 197.983275 -120.601565 
L 199.85973 -120.672728 
L 201.736185 -120.722077 
L 203.61264 -120.767004 
L 205.489095 -120.809068 
L 207.36555 -120.850703 
L 209.242005 -120.89276 
L 211.11846 -120.939906 
L 212.994915 -120.996968 
L 214.871369 -121.04466 
L 216.747824 -121.090614 
L 218.624279 -121.136218 
L 220.500734 -121.171695 
L 222.377189 -121.204696 
L 224.253644 -121.244958 
L 226.130099 -121.2775 
L 228.006554 -121.313764 
L 229.883009 -121.350041 
L 231.759464 -121.386281 
L 233.635919 -121.427102 
L 235.512374 -121.467381 
L 237.388829 -121.494906 
L 239.265284 -121.517217 
L 241.141739 -121.538248 
L 243.018193 -121.570314 
L 244.894648 -121.602573 
L 246.771103 -121.634287 
L 248.647558 -121.660892 
L 250.524013 -121.692056 
L 252.400468 -121.711644 
L 254.276923 -121.747107 
L 256.153378 -121.769113 
L 258.029833 -121.796784 
L 259.906288 -121.815682 
L 261.782743 -121.843576 
L 263.659198 -121.879171 
L 265.535653 -121.904921 
L 267.412108 -121.926337 
L 269.288563 -121.945594 
L 271.165018 -121.958169 
L 273.041472 -121.972702 
L 274.917927 -121.984592 
L 276.794382 -121.99358 
L 278.670837 -122.009519 
L 280.547292 -122.026361 
L 282.423747 -122.032912 
L 284.300202 -122.054982 
L 286.176657 -122.066159 
L 288.053112 -122.082646 
L 289.929567 -122.09841 
L 291.806022 -122.126145 
L 293.682477 -122.153879 
L 295.558932 -122.171703 
L 297.435387 -122.179487 
L 299.311842 -122.189395 
L 301.188296 -122.215456 
L 303.064751 -122.241518 
L 304.941206 -122.26427 
L 306.817661 -122.26494 
L 308.694116 -122.276229 
L 310.570571 -122.255398 
L 312.447026 -122.250627 
L 314.323481 -122.245388 
L 316.199936 -122.220822 
L 318.076391 -122.235184 
L 319.952846 -122.24006 
L 321.829301 -122.249255 
L 323.705756 -122.222746 
L 325.582211 -122.226079 
L 327.458666 -122.211692 
L 329.33512 -122.208123 
L 331.211575 -122.188103 
L 333.08803 -122.157288 
L 334.964485 -122.16279 
L 336.84094 -122.13915 
L 338.717395 -122.117633 
L 340.59385 -122.114936 
L 342.470305 -122.088552 
L 344.34676 -122.060716 
L 346.223215 -122.059514 
L 348.09967 -122.050711 
L 349.976125 -122.027274 
L 349.976125 -127.553773 
L 349.976125 -127.553773 
L 348.09967 -127.473415 
L 346.223215 -127.400356 
L 344.34676 -127.318347 
L 342.470305 -127.235087 
L 340.59385 -127.157832 
L 338.717395 -127.082333 
L 336.84094 -127.006735 
L 334.964485 -126.925521 
L 333.08803 -126.839826 
L 331.211575 -126.758952 
L 329.33512 -126.681364 
L 327.458666 -126.603776 
L 325.582211 -126.526189 
L 323.705756 -126.448332 
L 321.829301 -126.359069 
L 319.952846 -126.271495 
L 318.076391 -126.192708 
L 316.199936 -126.105859 
L 314.323481 -126.0265 
L 312.447026 -125.946048 
L 310.570571 -125.865573 
L 308.694116 -125.785097 
L 306.817661 -125.704622 
L 304.941206 -125.624146 
L 303.064751 -125.547465 
L 301.188296 -125.464267 
L 299.311842 -125.383406 
L 297.435387 -125.303863 
L 295.558932 -125.238143 
L 293.682477 -125.168277 
L 291.806022 -125.084107 
L 289.929567 -125.002962 
L 288.053112 -124.967676 
L 286.176657 -124.896849 
L 284.300202 -124.819261 
L 282.423747 -124.741633 
L 280.547292 -124.665701 
L 278.670837 -124.634064 
L 276.794382 -124.585558 
L 274.917927 -124.529581 
L 273.041472 -124.536772 
L 271.165018 -124.467748 
L 269.288563 -124.437417 
L 267.412108 -124.417974 
L 265.535653 -124.433475 
L 263.659198 -124.42214 
L 261.782743 -124.43197 
L 259.906288 -124.440167 
L 258.029833 -124.461005 
L 256.153378 -124.478344 
L 254.276923 -124.497856 
L 252.400468 -124.516849 
L 250.524013 -124.533427 
L 248.647558 -124.552932 
L 246.771103 -124.577979 
L 244.894648 -124.619839 
L 243.018193 -124.666698 
L 241.141739 -124.69107 
L 239.265284 -124.726402 
L 237.388829 -124.782015 
L 235.512374 -124.805183 
L 233.635919 -124.83664 
L 231.759464 -124.873431 
L 229.883009 -124.90987 
L 228.006554 -124.946169 
L 226.130099 -124.996019 
L 224.253644 -125.047139 
L 222.377189 -125.093966 
L 220.500734 -125.122906 
L 218.624279 -125.151094 
L 216.747824 -125.175854 
L 214.871369 -125.218436 
L 212.994915 -125.250192 
L 211.11846 -125.301515 
L 209.242005 -125.352647 
L 207.36555 -125.38843 
L 205.489095 -125.421559 
L 203.61264 -125.455683 
L 201.736185 -125.496803 
L 199.85973 -125.529631 
L 197.983275 -125.56012 
L 196.10682 -125.6059 
L 194.230365 -125.65168 
L 192.35391 -125.69746 
L 190.477455 -125.743255 
L 188.601 -125.789189 
L 186.724545 -125.835191 
L 184.848091 -125.881192 
L 182.971636 -125.927194 
L 181.095181 -125.973196 
L 179.218726 -126.019197 
L 177.342271 -126.065199 
L 175.465816 -126.111201 
L 173.589361 -126.156916 
L 171.712906 -126.20254 
L 169.836451 -126.248163 
L 167.959996 -126.290112 
L 166.083541 -126.325564 
L 164.207086 -126.361016 
z
" style="stroke: #ffffff; stroke-opacity: 0.15; stroke-width: 0.8"/>
    </defs>
    <g clip-path="url(#pcff048e1a1)">
     <use xlink:href="#mf4538109d6" x="0" y="226.08" style="fill: #0bb4ff; fill-opacity: 0.15; stroke: #ffffff; stroke-opacity: 0.15; stroke-width: 0.8"/>
    </g>
   </g>
   <g id="PathCollection_3">
    <defs>
     <path id="ma41e86f1e3" d="M 0 2.4 
C 0.636487 2.4 1.246992 2.147121 1.697056 1.697056 
C 2.147121 1.246992 2.4 0.636487 2.4 0 
C 2.4 -0.636487 2.147121 -1.246992 1.697056 -1.697056 
C 1.246992 -2.147121 0.636487 -2.4 0 -2.4 
C -0.636487 -2.4 -1.246992 -2.147121 -1.697056 -1.697056 
C -2.147121 -1.246992 -2.4 -0.636487 -2.4 0 
C -2.4 0.636487 -2.147121 1.246992 -1.697056 1.697056 
C -1.246992 2.147121 -0.636487 2.4 0 2.4 
z
" style="stroke: #00bfa0; stroke-opacity: 0.8"/>
    </defs>
    <g clip-path="url(#pcff048e1a1)">
     <use xlink:href="#ma41e86f1e3" x="72.448364" y="103.874717" style="fill: #00bfa0; fill-opacity: 0.8; stroke: #00bfa0; stroke-opacity: 0.8"/>
     <use xlink:href="#ma41e86f1e3" x="198.678591" y="100.144397" style="fill: #00bfa0; fill-opacity: 0.8; stroke: #00bfa0; stroke-opacity: 0.8"/>
     <use xlink:href="#ma41e86f1e3" x="248.845007" y="101.089411" style="fill: #00bfa0; fill-opacity: 0.8; stroke: #00bfa0; stroke-opacity: 0.8"/>
     <use xlink:href="#ma41e86f1e3" x="325.907676" y="103.377341" style="fill: #00bfa0; fill-opacity: 0.8; stroke: #00bfa0; stroke-opacity: 0.8"/>
     <use xlink:href="#ma41e86f1e3" x="248.342276" y="102.581539" style="fill: #00bfa0; fill-opacity: 0.8; stroke: #00bfa0; stroke-opacity: 0.8"/>
     <use xlink:href="#ma41e86f1e3" x="194.63959" y="103.775242" style="fill: #00bfa0; fill-opacity: 0.8; stroke: #00bfa0; stroke-opacity: 0.8"/>
     <use xlink:href="#ma41e86f1e3" x="227.993437" y="106.112909" style="fill: #00bfa0; fill-opacity: 0.8; stroke: #00bfa0; stroke-opacity: 0.8"/>
     <use xlink:href="#ma41e86f1e3" x="191.172202" y="103.17839" style="fill: #00bfa0; fill-opacity: 0.8; stroke: #00bfa0; stroke-opacity: 0.8"/>
     <use xlink:href="#ma41e86f1e3" x="199.699644" y="97.558042" style="fill: #00bfa0; fill-opacity: 0.8; stroke: #00bfa0; stroke-opacity: 0.8"/>
     <use xlink:href="#ma41e86f1e3" x="276.82134" y="103.029178" style="fill: #00bfa0; fill-opacity: 0.8; stroke: #00bfa0; stroke-opacity: 0.8"/>
    </g>
   </g>
   <g id="PolyCollection_3">
    <defs>
     <path id="m6bfd250d19" d="M 72.448364 -130.304173 
L 72.448364 -121.484264 
L 75.008559 -121.508664 
L 77.568754 -121.529006 
L 80.128949 -121.546487 
L 82.689144 -121.563968 
L 85.249339 -121.58145 
L 87.809534 -121.598931 
L 90.369729 -121.614484 
L 92.929924 -121.632998 
L 95.490119 -121.646402 
L 98.050314 -121.655881 
L 100.610509 -121.66536 
L 103.170705 -121.67484 
L 105.7309 -121.684319 
L 108.291095 -121.693799 
L 110.85129 -121.703278 
L 113.411485 -121.712757 
L 115.97168 -121.722237 
L 118.531875 -121.731716 
L 121.09207 -121.744105 
L 123.652265 -121.762464 
L 126.21246 -121.780837 
L 128.772655 -121.799211 
L 131.33285 -121.817616 
L 133.893045 -121.831625 
L 136.45324 -121.837629 
L 139.013436 -121.847879 
L 141.573631 -121.869038 
L 144.133826 -121.878983 
L 146.694021 -121.905828 
L 149.254216 -121.924615 
L 151.814411 -121.946969 
L 154.374606 -121.949995 
L 156.934801 -121.951362 
L 159.494996 -121.952729 
L 162.055191 -121.954096 
L 164.615386 -121.960201 
L 167.175581 -122.001206 
L 169.735776 -122.010673 
L 172.295971 -122.018413 
L 174.856167 -122.032321 
L 177.416362 -122.048829 
L 179.976557 -122.055656 
L 182.536752 -122.062483 
L 185.096947 -122.06931 
L 187.657142 -122.090374 
L 190.217337 -122.134807 
L 192.777532 -122.166079 
L 195.337727 -122.164689 
L 197.897922 -122.166502 
L 200.458117 -122.168384 
L 203.018312 -122.184487 
L 205.578507 -122.180323 
L 208.138702 -122.176158 
L 210.698898 -122.177521 
L 213.259093 -122.179485 
L 215.819288 -122.180226 
L 218.379483 -122.183412 
L 220.939678 -122.164888 
L 223.499873 -122.172136 
L 226.060068 -122.180675 
L 228.620263 -122.194685 
L 231.180458 -122.196675 
L 233.740653 -122.204464 
L 236.300848 -122.213035 
L 238.861043 -122.220096 
L 241.421238 -122.225757 
L 243.981434 -122.244323 
L 246.541629 -122.241265 
L 249.101824 -122.248738 
L 251.662019 -122.245979 
L 254.222214 -122.232301 
L 256.782409 -122.241571 
L 259.342604 -122.207725 
L 261.902799 -122.197668 
L 264.462994 -122.186961 
L 267.023189 -122.160166 
L 269.583384 -122.151767 
L 272.143579 -122.109166 
L 274.703774 -122.070385 
L 277.263969 -122.059286 
L 279.824165 -122.054853 
L 282.38436 -122.04474 
L 284.944555 -122.000669 
L 287.50475 -121.942918 
L 290.064945 -121.917816 
L 292.62514 -121.927026 
L 295.185335 -121.912406 
L 297.74553 -121.814648 
L 300.305725 -121.793684 
L 302.86592 -121.721172 
L 305.426115 -121.665456 
L 307.98631 -121.596978 
L 310.546505 -121.567697 
L 313.1067 -121.513318 
L 315.666896 -121.494553 
L 318.227091 -121.455061 
L 320.787286 -121.38518 
L 323.347481 -121.3153 
L 325.907676 -121.245419 
L 325.907676 -126.241264 
L 325.907676 -126.241264 
L 323.347481 -126.201981 
L 320.787286 -126.172997 
L 318.227091 -126.144013 
L 315.666896 -126.115029 
L 313.1067 -126.086045 
L 310.546505 -126.057061 
L 307.98631 -126.028077 
L 305.426115 -125.999093 
L 302.86592 -125.970109 
L 300.305725 -125.938299 
L 297.74553 -125.906211 
L 295.185335 -125.878918 
L 292.62514 -125.848292 
L 290.064945 -125.811947 
L 287.50475 -125.777388 
L 284.944555 -125.741756 
L 282.38436 -125.707142 
L 279.824165 -125.67091 
L 277.263969 -125.639915 
L 274.703774 -125.608921 
L 272.143579 -125.577876 
L 269.583384 -125.521055 
L 267.023189 -125.484707 
L 264.462994 -125.448261 
L 261.902799 -125.411816 
L 259.342604 -125.37537 
L 256.782409 -125.342126 
L 254.222214 -125.324505 
L 251.662019 -125.299594 
L 249.101824 -125.294822 
L 246.541629 -125.288457 
L 243.981434 -125.305368 
L 241.421238 -125.287751 
L 238.861043 -125.25842 
L 236.300848 -125.228729 
L 233.740653 -125.243597 
L 231.180458 -125.252917 
L 228.620263 -125.320649 
L 226.060068 -125.391328 
L 223.499873 -125.46225 
L 220.939678 -125.489897 
L 218.379483 -125.509056 
L 215.819288 -125.558933 
L 213.259093 -125.579453 
L 210.698898 -125.632073 
L 208.138702 -125.69242 
L 205.578507 -125.696021 
L 203.018312 -125.767943 
L 200.458117 -125.861221 
L 197.897922 -125.955087 
L 195.337727 -126.004528 
L 192.777532 -126.094014 
L 190.217337 -126.195952 
L 187.657142 -126.278721 
L 185.096947 -126.362922 
L 182.536752 -126.462208 
L 179.976557 -126.540624 
L 177.416362 -126.620368 
L 174.856167 -126.698011 
L 172.295971 -126.781997 
L 169.735776 -126.899271 
L 167.175581 -126.988878 
L 164.615386 -127.078364 
L 162.055191 -127.167851 
L 159.494996 -127.257337 
L 156.934801 -127.346823 
L 154.374606 -127.43631 
L 151.814411 -127.525796 
L 149.254216 -127.615282 
L 146.694021 -127.708436 
L 144.133826 -127.816324 
L 141.573631 -127.90765 
L 139.013436 -127.997097 
L 136.45324 -128.086078 
L 133.893045 -128.180672 
L 131.33285 -128.264411 
L 128.772655 -128.353495 
L 126.21246 -128.442563 
L 123.652265 -128.531086 
L 121.09207 -128.632658 
L 118.531875 -128.736317 
L 115.97168 -128.814002 
L 113.411485 -128.905658 
L 110.85129 -129.018741 
L 108.291095 -129.12089 
L 105.7309 -129.205335 
L 103.170705 -129.28978 
L 100.610509 -129.374224 
L 98.050314 -129.455533 
L 95.490119 -129.536454 
L 92.929924 -129.617374 
L 90.369729 -129.698294 
L 87.809534 -129.779215 
L 85.249339 -129.862596 
L 82.689144 -129.951312 
L 80.128949 -130.040028 
L 77.568754 -130.128744 
L 75.008559 -130.21746 
L 72.448364 -130.304173 
z
" style="stroke: #ffffff; stroke-opacity: 0.15; stroke-width: 0.8"/>
    </defs>
    <g clip-path="url(#pcff048e1a1)">
     <use xlink:href="#m6bfd250d19" x="0" y="226.08" style="fill: #00bfa0; fill-opacity: 0.15; stroke: #ffffff; stroke-opacity: 0.15; stroke-width: 0.8"/>
    </g>
   </g>
   <g id="PathCollection_4">
    <defs>
     <path id="mb016d09068" d="M 0 2.4 
C 0.636487 2.4 1.246992 2.147121 1.697056 1.697056 
C 2.147121 1.246992 2.4 0.636487 2.4 0 
C 2.4 -0.636487 2.147121 -1.246992 1.697056 -1.697056 
C 1.246992 -2.147121 0.636487 -2.4 0 -2.4 
C -0.636487 -2.4 -1.246992 -2.147121 -1.697056 -1.697056 
C -2.147121 -1.246992 -2.4 -0.636487 -2.4 0 
C -2.4 0.636487 -2.147121 1.246992 -1.697056 1.697056 
C -1.246992 2.147121 -0.636487 2.4 0 2.4 
z
" style="stroke: #e60049; stroke-opacity: 0.8"/>
    </defs>
    <g clip-path="url(#pcff048e1a1)">
     <use xlink:href="#mb016d09068" x="219.662098" y="101.487312" style="fill: #e60049; fill-opacity: 0.8; stroke: #e60049; stroke-opacity: 0.8"/>
     <use xlink:href="#mb016d09068" x="281.033346" y="98.353843" style="fill: #e60049; fill-opacity: 0.8; stroke: #e60049; stroke-opacity: 0.8"/>
     <use xlink:href="#mb016d09068" x="201.388357" y="103.626029" style="fill: #e60049; fill-opacity: 0.8; stroke: #e60049; stroke-opacity: 0.8"/>
     <use xlink:href="#mb016d09068" x="281.303452" y="100.393085" style="fill: #e60049; fill-opacity: 0.8; stroke: #e60049; stroke-opacity: 0.8"/>
     <use xlink:href="#mb016d09068" x="264.31439" y="98.801482" style="fill: #e60049; fill-opacity: 0.8; stroke: #e60049; stroke-opacity: 0.8"/>
     <use xlink:href="#mb016d09068" x="176.119028" y="100.144397" style="fill: #e60049; fill-opacity: 0.8; stroke: #e60049; stroke-opacity: 0.8"/>
     <use xlink:href="#mb016d09068" x="229.672927" y="101.437574" style="fill: #e60049; fill-opacity: 0.8; stroke: #e60049; stroke-opacity: 0.8"/>
     <use xlink:href="#mb016d09068" x="173.631506" y="104.173142" style="fill: #e60049; fill-opacity: 0.8; stroke: #e60049; stroke-opacity: 0.8"/>
     <use xlink:href="#mb016d09068" x="319.622808" y="102.531802" style="fill: #e60049; fill-opacity: 0.8; stroke: #e60049; stroke-opacity: 0.8"/>
     <use xlink:href="#mb016d09068" x="228.446538" y="100.592035" style="fill: #e60049; fill-opacity: 0.8; stroke: #e60049; stroke-opacity: 0.8"/>
    </g>
   </g>
   <g id="PolyCollection_4">
    <defs>
     <path id="m5aa79c2562" d="M 173.631506 -126.17676 
L 173.631506 -121.622436 
L 175.106166 -121.696356 
L 176.580825 -121.772843 
L 178.055485 -121.857399 
L 179.530144 -121.948213 
L 181.004804 -122.037468 
L 182.479464 -122.110258 
L 183.954123 -122.199769 
L 185.428783 -122.29258 
L 186.903442 -122.385391 
L 188.378102 -122.478202 
L 189.852762 -122.571013 
L 191.327421 -122.643111 
L 192.802081 -122.700626 
L 194.27674 -122.785112 
L 195.7514 -122.86939 
L 197.22606 -122.936666 
L 198.700719 -123.011599 
L 200.175379 -123.062548 
L 201.650039 -123.126053 
L 203.124698 -123.190565 
L 204.599358 -123.218583 
L 206.074017 -123.274584 
L 207.548677 -123.310514 
L 209.023337 -123.359354 
L 210.497996 -123.398236 
L 211.972656 -123.459858 
L 213.447315 -123.503345 
L 214.921975 -123.527182 
L 216.396635 -123.562478 
L 217.871294 -123.595 
L 219.345954 -123.626938 
L 220.820614 -123.657619 
L 222.295273 -123.676746 
L 223.769933 -123.705291 
L 225.244592 -123.73831 
L 226.719252 -123.776917 
L 228.193912 -123.800265 
L 229.668571 -123.822724 
L 231.143231 -123.832601 
L 232.61789 -123.855503 
L 234.09255 -123.877234 
L 235.56721 -123.878858 
L 237.041869 -123.899112 
L 238.516529 -123.916271 
L 239.991189 -123.936481 
L 241.465848 -123.958408 
L 242.940508 -123.967525 
L 244.415167 -123.970996 
L 245.889827 -123.985373 
L 247.364487 -124.004971 
L 248.839146 -124.025055 
L 250.313806 -124.035394 
L 251.788465 -124.050887 
L 253.263125 -124.064182 
L 254.737785 -124.076246 
L 256.212444 -124.077428 
L 257.687104 -124.085995 
L 259.161763 -124.082459 
L 260.636423 -124.095787 
L 262.111083 -124.095173 
L 263.585742 -124.10477 
L 265.060402 -124.117475 
L 266.535062 -124.116628 
L 268.009721 -124.11824 
L 269.484381 -124.145998 
L 270.95904 -124.15592 
L 272.4337 -124.165299 
L 273.90836 -124.164774 
L 275.383019 -124.168703 
L 276.857679 -124.169583 
L 278.332338 -124.169338 
L 279.806998 -124.160911 
L 281.281658 -124.165585 
L 282.756317 -124.167341 
L 284.230977 -124.165238 
L 285.705637 -124.162857 
L 287.180296 -124.160112 
L 288.654956 -124.157928 
L 290.129615 -124.163755 
L 291.604275 -124.181777 
L 293.078935 -124.1768 
L 294.553594 -124.160208 
L 296.028254 -124.147113 
L 297.502913 -124.151996 
L 298.977573 -124.156879 
L 300.452233 -124.161111 
L 301.926892 -124.157742 
L 303.401552 -124.154373 
L 304.876211 -124.151266 
L 306.350871 -124.140748 
L 307.825531 -124.139006 
L 309.30019 -124.130012 
L 310.77485 -124.133357 
L 312.24951 -124.134393 
L 313.724169 -124.138077 
L 315.198829 -124.143258 
L 316.673488 -124.140706 
L 318.148148 -124.124367 
L 319.622808 -124.126248 
L 319.622808 -129.956056 
L 319.622808 -129.956056 
L 318.148148 -129.871536 
L 316.673488 -129.794936 
L 315.198829 -129.711082 
L 313.724169 -129.62053 
L 312.24951 -129.534435 
L 310.77485 -129.450299 
L 309.30019 -129.366164 
L 307.825531 -129.282029 
L 306.350871 -129.197693 
L 304.876211 -129.113288 
L 303.401552 -129.028883 
L 301.926892 -128.944478 
L 300.452233 -128.860073 
L 298.977573 -128.775668 
L 297.502913 -128.691263 
L 296.028254 -128.606858 
L 294.553594 -128.522453 
L 293.078935 -128.438048 
L 291.604275 -128.353643 
L 290.129615 -128.269238 
L 288.654956 -128.184833 
L 287.180296 -128.100425 
L 285.705637 -128.020744 
L 284.230977 -127.951425 
L 282.756317 -127.875997 
L 281.281658 -127.790145 
L 279.806998 -127.716501 
L 278.332338 -127.650941 
L 276.857679 -127.568863 
L 275.383019 -127.509768 
L 273.90836 -127.443206 
L 272.4337 -127.358769 
L 270.95904 -127.295477 
L 269.484381 -127.232368 
L 268.009721 -127.146909 
L 266.535062 -127.079627 
L 265.060402 -127.026408 
L 263.585742 -126.950669 
L 262.111083 -126.878395 
L 260.636423 -126.810613 
L 259.161763 -126.729477 
L 257.687104 -126.643448 
L 256.212444 -126.594809 
L 254.737785 -126.541806 
L 253.263125 -126.474448 
L 251.788465 -126.42127 
L 250.313806 -126.368927 
L 248.839146 -126.31843 
L 247.364487 -126.271401 
L 245.889827 -126.238298 
L 244.415167 -126.202699 
L 242.940508 -126.161491 
L 241.465848 -126.144207 
L 239.991189 -126.107067 
L 238.516529 -126.080635 
L 237.041869 -126.048841 
L 235.56721 -126.020683 
L 234.09255 -126.011263 
L 232.61789 -125.989636 
L 231.143231 -125.988822 
L 229.668571 -125.997494 
L 228.193912 -125.994504 
L 226.719252 -125.987113 
L 225.244592 -125.985147 
L 223.769933 -125.989316 
L 222.295273 -126.001473 
L 220.820614 -125.996483 
L 219.345954 -126.000458 
L 217.871294 -125.974157 
L 216.396635 -125.968132 
L 214.921975 -125.968296 
L 213.447315 -125.95953 
L 211.972656 -125.960624 
L 210.497996 -125.968891 
L 209.023337 -125.98023 
L 207.548677 -125.972246 
L 206.074017 -125.969881 
L 204.599358 -125.970519 
L 203.124698 -125.973255 
L 201.650039 -125.987038 
L 200.175379 -126.000571 
L 198.700719 -126.014002 
L 197.22606 -126.027433 
L 195.7514 -126.04349 
L 194.27674 -126.060321 
L 192.802081 -126.072426 
L 191.327421 -126.081447 
L 189.852762 -126.083682 
L 188.378102 -126.103582 
L 186.903442 -126.122332 
L 185.428783 -126.136164 
L 183.954123 -126.149997 
L 182.479464 -126.163649 
L 181.004804 -126.177202 
L 179.530144 -126.187404 
L 178.055485 -126.184809 
L 176.580825 -126.182126 
L 175.106166 -126.179443 
L 173.631506 -126.17676 
z
" style="stroke: #ffffff; stroke-opacity: 0.15; stroke-width: 0.8"/>
    </defs>
    <g clip-path="url(#pcff048e1a1)">
     <use xlink:href="#m5aa79c2562" x="0" y="226.08" style="fill: #e60049; fill-opacity: 0.15; stroke: #ffffff; stroke-opacity: 0.15; stroke-width: 0.8"/>
    </g>
   </g>
   <g id="line2d_1">
    <path d="M 94.62715 102.587326 
L 97.620973 102.569838 
L 100.614796 102.55235 
L 103.608619 102.534862 
L 106.602442 102.517374 
L 109.596265 102.499886 
L 112.590088 102.482398 
L 115.583911 102.46491 
L 118.577734 102.447422 
L 121.571558 102.429934 
L 124.565381 102.412446 
L 127.559204 102.394958 
L 130.553027 102.37747 
L 133.54685 102.359982 
L 136.540673 102.342494 
L 139.534496 102.325006 
L 142.528319 102.307518 
L 145.522142 102.29003 
L 148.515965 102.272542 
L 151.509788 102.255054 
L 154.503612 102.237566 
L 157.497435 102.220078 
L 160.491258 102.20259 
L 163.485081 102.185102 
L 166.478904 102.167614 
L 169.472727 102.150126 
L 172.46655 102.132638 
L 175.460373 102.11515 
L 178.454196 102.097662 
L 181.448019 102.080173 
L 184.441843 102.062685 
L 187.435666 102.045197 
L 190.429489 102.027709 
L 193.423312 102.010221 
L 196.417135 101.992733 
L 199.410958 101.975245 
L 202.404781 101.957757 
L 205.398604 101.940269 
L 208.392427 101.922781 
L 211.38625 101.905293 
L 214.380074 101.887805 
L 217.373897 101.870317 
L 220.36772 101.852829 
L 223.361543 101.835341 
L 226.355366 101.817853 
L 229.349189 101.800365 
L 232.343012 101.782877 
L 235.336835 101.765389 
L 238.330658 101.747901 
L 241.324481 101.730413 
L 244.318305 101.712925 
L 247.312128 101.695437 
L 250.305951 101.677949 
L 253.299774 101.660461 
L 256.293597 101.642973 
L 259.28742 101.625485 
L 262.281243 101.607997 
L 265.275066 101.590509 
L 268.268889 101.57302 
L 271.262712 101.555532 
L 274.256536 101.538044 
L 277.250359 101.520556 
L 280.244182 101.503068 
L 283.238005 101.48558 
L 286.231828 101.468092 
L 289.225651 101.450604 
L 292.219474 101.433116 
L 295.213297 101.415628 
L 298.20712 101.39814 
L 301.200943 101.380652 
L 304.194767 101.363164 
L 307.18859 101.345676 
L 310.182413 101.328188 
L 313.176236 101.3107 
L 316.170059 101.293212 
L 319.163882 101.275724 
L 322.157705 101.258236 
L 325.151528 101.240748 
L 328.145351 101.22326 
L 331.139174 101.205772 
L 334.132997 101.188284 
L 337.126821 101.170796 
L 340.120644 101.153308 
L 343.114467 101.13582 
L 346.10829 101.118332 
L 349.102113 101.100844 
L 352.095936 101.083356 
L 355.089759 101.065867 
L 358.083582 101.048379 
L 361.077405 101.030891 
L 364.071228 101.013403 
L 367.065052 100.995915 
L 370.058875 100.978427 
L 373.052698 100.960939 
L 376.046521 100.943451 
L 379.040344 100.925963 
L 382.034167 100.908475 
L 385.02799 100.890987 
L 388.021813 100.873499 
L 391.015636 100.856011 
" clip-path="url(#pcff048e1a1)" style="fill: none; stroke: #e6d800; stroke-width: 1.8; stroke-linecap: round"/>
   </g>
   <g id="line2d_2">
    <path d="M 164.207086 104.489315 
L 166.083541 104.46356 
L 167.959996 104.437805 
L 169.836451 104.412051 
L 171.712906 104.386296 
L 173.589361 104.360541 
L 175.465816 104.334787 
L 177.342271 104.309032 
L 179.218726 104.283277 
L 181.095181 104.257523 
L 182.971636 104.231768 
L 184.848091 104.206013 
L 186.724545 104.180259 
L 188.601 104.154504 
L 190.477455 104.128749 
L 192.35391 104.102995 
L 194.230365 104.07724 
L 196.10682 104.051485 
L 197.983275 104.02573 
L 199.85973 103.999976 
L 201.736185 103.974221 
L 203.61264 103.948466 
L 205.489095 103.922712 
L 207.36555 103.896957 
L 209.242005 103.871202 
L 211.11846 103.845448 
L 212.994915 103.819693 
L 214.871369 103.793938 
L 216.747824 103.768184 
L 218.624279 103.742429 
L 220.500734 103.716674 
L 222.377189 103.69092 
L 224.253644 103.665165 
L 226.130099 103.63941 
L 228.006554 103.613656 
L 229.883009 103.587901 
L 231.759464 103.562146 
L 233.635919 103.536392 
L 235.512374 103.510637 
L 237.388829 103.484882 
L 239.265284 103.459128 
L 241.141739 103.433373 
L 243.018193 103.407618 
L 244.894648 103.381864 
L 246.771103 103.356109 
L 248.647558 103.330354 
L 250.524013 103.3046 
L 252.400468 103.278845 
L 254.276923 103.25309 
L 256.153378 103.227335 
L 258.029833 103.201581 
L 259.906288 103.175826 
L 261.782743 103.150071 
L 263.659198 103.124317 
L 265.535653 103.098562 
L 267.412108 103.072807 
L 269.288563 103.047053 
L 271.165018 103.021298 
L 273.041472 102.995543 
L 274.917927 102.969789 
L 276.794382 102.944034 
L 278.670837 102.918279 
L 280.547292 102.892525 
L 282.423747 102.86677 
L 284.300202 102.841015 
L 286.176657 102.815261 
L 288.053112 102.789506 
L 289.929567 102.763751 
L 291.806022 102.737997 
L 293.682477 102.712242 
L 295.558932 102.686487 
L 297.435387 102.660733 
L 299.311842 102.634978 
L 301.188296 102.609223 
L 303.064751 102.583469 
L 304.941206 102.557714 
L 306.817661 102.531959 
L 308.694116 102.506205 
L 310.570571 102.48045 
L 312.447026 102.454695 
L 314.323481 102.428941 
L 316.199936 102.403186 
L 318.076391 102.377431 
L 319.952846 102.351676 
L 321.829301 102.325922 
L 323.705756 102.300167 
L 325.582211 102.274412 
L 327.458666 102.248658 
L 329.33512 102.222903 
L 331.211575 102.197148 
L 333.08803 102.171394 
L 334.964485 102.145639 
L 336.84094 102.119884 
L 338.717395 102.09413 
L 340.59385 102.068375 
L 342.470305 102.04262 
L 344.34676 102.016866 
L 346.223215 101.991111 
L 348.09967 101.965356 
L 349.976125 101.939602 
" clip-path="url(#pcff048e1a1)" style="fill: none; stroke: #0bb4ff; stroke-width: 1.8; stroke-linecap: round"/>
   </g>
   <g id="line2d_3">
    <path d="M 72.448364 102.43994 
L 75.008559 102.440504 
L 77.568754 102.441068 
L 80.128949 102.441633 
L 82.689144 102.442197 
L 85.249339 102.442761 
L 87.809534 102.443325 
L 90.369729 102.443889 
L 92.929924 102.444454 
L 95.490119 102.445018 
L 98.050314 102.445582 
L 100.610509 102.446146 
L 103.170705 102.44671 
L 105.7309 102.447275 
L 108.291095 102.447839 
L 110.85129 102.448403 
L 113.411485 102.448967 
L 115.97168 102.449532 
L 118.531875 102.450096 
L 121.09207 102.45066 
L 123.652265 102.451224 
L 126.21246 102.451788 
L 128.772655 102.452353 
L 131.33285 102.452917 
L 133.893045 102.453481 
L 136.45324 102.454045 
L 139.013436 102.454609 
L 141.573631 102.455174 
L 144.133826 102.455738 
L 146.694021 102.456302 
L 149.254216 102.456866 
L 151.814411 102.45743 
L 154.374606 102.457995 
L 156.934801 102.458559 
L 159.494996 102.459123 
L 162.055191 102.459687 
L 164.615386 102.460251 
L 167.175581 102.460816 
L 169.735776 102.46138 
L 172.295971 102.461944 
L 174.856167 102.462508 
L 177.416362 102.463073 
L 179.976557 102.463637 
L 182.536752 102.464201 
L 185.096947 102.464765 
L 187.657142 102.465329 
L 190.217337 102.465894 
L 192.777532 102.466458 
L 195.337727 102.467022 
L 197.897922 102.467586 
L 200.458117 102.46815 
L 203.018312 102.468715 
L 205.578507 102.469279 
L 208.138702 102.469843 
L 210.698898 102.470407 
L 213.259093 102.470971 
L 215.819288 102.471536 
L 218.379483 102.4721 
L 220.939678 102.472664 
L 223.499873 102.473228 
L 226.060068 102.473793 
L 228.620263 102.474357 
L 231.180458 102.474921 
L 233.740653 102.475485 
L 236.300848 102.476049 
L 238.861043 102.476614 
L 241.421238 102.477178 
L 243.981434 102.477742 
L 246.541629 102.478306 
L 249.101824 102.47887 
L 251.662019 102.479435 
L 254.222214 102.479999 
L 256.782409 102.480563 
L 259.342604 102.481127 
L 261.902799 102.481691 
L 264.462994 102.482256 
L 267.023189 102.48282 
L 269.583384 102.483384 
L 272.143579 102.483948 
L 274.703774 102.484512 
L 277.263969 102.485077 
L 279.824165 102.485641 
L 282.38436 102.486205 
L 284.944555 102.486769 
L 287.50475 102.487334 
L 290.064945 102.487898 
L 292.62514 102.488462 
L 295.185335 102.489026 
L 297.74553 102.48959 
L 300.305725 102.490155 
L 302.86592 102.490719 
L 305.426115 102.491283 
L 307.98631 102.491847 
L 310.546505 102.492411 
L 313.1067 102.492976 
L 315.666896 102.49354 
L 318.227091 102.494104 
L 320.787286 102.494668 
L 323.347481 102.495232 
L 325.907676 102.495797 
" clip-path="url(#pcff048e1a1)" style="fill: none; stroke: #00bfa0; stroke-width: 1.8; stroke-linecap: round"/>
   </g>
   <g id="line2d_4">
    <path d="M 173.631506 102.158349 
L 175.106166 102.135168 
L 176.580825 102.111987 
L 178.055485 102.088807 
L 179.530144 102.065626 
L 181.004804 102.042445 
L 182.479464 102.019265 
L 183.954123 101.996084 
L 185.428783 101.972903 
L 186.903442 101.949722 
L 188.378102 101.926542 
L 189.852762 101.903361 
L 191.327421 101.88018 
L 192.802081 101.856999 
L 194.27674 101.833819 
L 195.7514 101.810638 
L 197.22606 101.787457 
L 198.700719 101.764276 
L 200.175379 101.741096 
L 201.650039 101.717915 
L 203.124698 101.694734 
L 204.599358 101.671553 
L 206.074017 101.648373 
L 207.548677 101.625192 
L 209.023337 101.602011 
L 210.497996 101.578831 
L 211.972656 101.55565 
L 213.447315 101.532469 
L 214.921975 101.509288 
L 216.396635 101.486108 
L 217.871294 101.462927 
L 219.345954 101.439746 
L 220.820614 101.416565 
L 222.295273 101.393385 
L 223.769933 101.370204 
L 225.244592 101.347023 
L 226.719252 101.323842 
L 228.193912 101.300662 
L 229.668571 101.277481 
L 231.143231 101.2543 
L 232.61789 101.231119 
L 234.09255 101.207939 
L 235.56721 101.184758 
L 237.041869 101.161577 
L 238.516529 101.138397 
L 239.991189 101.115216 
L 241.465848 101.092035 
L 242.940508 101.068854 
L 244.415167 101.045674 
L 245.889827 101.022493 
L 247.364487 100.999312 
L 248.839146 100.976131 
L 250.313806 100.952951 
L 251.788465 100.92977 
L 253.263125 100.906589 
L 254.737785 100.883408 
L 256.212444 100.860228 
L 257.687104 100.837047 
L 259.161763 100.813866 
L 260.636423 100.790685 
L 262.111083 100.767505 
L 263.585742 100.744324 
L 265.060402 100.721143 
L 266.535062 100.697963 
L 268.009721 100.674782 
L 269.484381 100.651601 
L 270.95904 100.62842 
L 272.4337 100.60524 
L 273.90836 100.582059 
L 275.383019 100.558878 
L 276.857679 100.535697 
L 278.332338 100.512517 
L 279.806998 100.489336 
L 281.281658 100.466155 
L 282.756317 100.442974 
L 284.230977 100.419794 
L 285.705637 100.396613 
L 287.180296 100.373432 
L 288.654956 100.350252 
L 290.129615 100.327071 
L 291.604275 100.30389 
L 293.078935 100.280709 
L 294.553594 100.257529 
L 296.028254 100.234348 
L 297.502913 100.211167 
L 298.977573 100.187986 
L 300.452233 100.164806 
L 301.926892 100.141625 
L 303.401552 100.118444 
L 304.876211 100.095263 
L 306.350871 100.072083 
L 307.825531 100.048902 
L 309.30019 100.025721 
L 310.77485 100.00254 
L 312.24951 99.97936 
L 313.724169 99.956179 
L 315.198829 99.932998 
L 316.673488 99.909818 
L 318.148148 99.886637 
L 319.622808 99.863456 
" clip-path="url(#pcff048e1a1)" style="fill: none; stroke: #e60049; stroke-width: 1.8; stroke-linecap: round"/>
   </g>
   <g id="patch_3">
    <path d="M 56.52 201.2112 
L 56.52 27.1296 
" style="fill: none; stroke: #262626; stroke-linejoin: miter; stroke-linecap: square"/>
   </g>
   <g id="patch_4">
    <path d="M 406.944 201.2112 
L 406.944 27.1296 
" style="fill: none; stroke: #262626; stroke-linejoin: miter; stroke-linecap: square"/>
   </g>
   <g id="patch_5">
    <path d="M 56.52 201.2112 
L 406.944 201.2112 
" style="fill: none; stroke: #262626; stroke-linejoin: miter; stroke-linecap: square"/>
   </g>
   <g id="patch_6">
    <path d="M 56.52 27.1296 
L 406.944 27.1296 
" style="fill: none; stroke: #262626; stroke-linejoin: miter; stroke-linecap: square"/>
   </g>
   <g id="text_18">
    <!-- r=0.15, R2=0.02 -->
    <g style="fill: #262626" transform="translate(233.461614 101.776343) scale(0.1 -0.1)">
     <defs>
      <path id="DejaVuSans-Bold-72" d="M 3138 2547 
Q 2991 2616 2845 2648 
Q 2700 2681 2553 2681 
Q 2122 2681 1889 2404 
Q 1656 2128 1656 1613 
L 1656 0 
L 538 0 
L 538 3500 
L 1656 3500 
L 1656 2925 
Q 1872 3269 2151 3426 
Q 2431 3584 2822 3584 
Q 2878 3584 2943 3579 
Q 3009 3575 3134 3559 
L 3138 2547 
z
" transform="scale(0.015625)"/>
      <path id="DejaVuSans-Bold-3d" d="M 678 3084 
L 4684 3084 
L 4684 2350 
L 678 2350 
L 678 3084 
z
M 678 1663 
L 4684 1663 
L 4684 922 
L 678 922 
L 678 1663 
z
" transform="scale(0.015625)"/>
      <path id="DejaVuSans-Bold-30" d="M 2944 2338 
Q 2944 3213 2780 3570 
Q 2616 3928 2228 3928 
Q 1841 3928 1675 3570 
Q 1509 3213 1509 2338 
Q 1509 1453 1675 1090 
Q 1841 728 2228 728 
Q 2613 728 2778 1090 
Q 2944 1453 2944 2338 
z
M 4147 2328 
Q 4147 1169 3647 539 
Q 3147 -91 2228 -91 
Q 1306 -91 806 539 
Q 306 1169 306 2328 
Q 306 3491 806 4120 
Q 1306 4750 2228 4750 
Q 3147 4750 3647 4120 
Q 4147 3491 4147 2328 
z
" transform="scale(0.015625)"/>
      <path id="DejaVuSans-Bold-2e" d="M 653 1209 
L 1778 1209 
L 1778 0 
L 653 0 
L 653 1209 
z
" transform="scale(0.015625)"/>
      <path id="DejaVuSans-Bold-31" d="M 750 831 
L 1813 831 
L 1813 3847 
L 722 3622 
L 722 4441 
L 1806 4666 
L 2950 4666 
L 2950 831 
L 4013 831 
L 4013 0 
L 750 0 
L 750 831 
z
" transform="scale(0.015625)"/>
      <path id="DejaVuSans-Bold-35" d="M 678 4666 
L 3669 4666 
L 3669 3781 
L 1638 3781 
L 1638 3059 
Q 1775 3097 1914 3117 
Q 2053 3138 2203 3138 
Q 3056 3138 3531 2711 
Q 4006 2284 4006 1522 
Q 4006 766 3489 337 
Q 2972 -91 2053 -91 
Q 1656 -91 1267 -14 
Q 878 63 494 219 
L 494 1166 
Q 875 947 1217 837 
Q 1559 728 1863 728 
Q 2300 728 2551 942 
Q 2803 1156 2803 1522 
Q 2803 1891 2551 2103 
Q 2300 2316 1863 2316 
Q 1603 2316 1309 2248 
Q 1016 2181 678 2041 
L 678 4666 
z
" transform="scale(0.015625)"/>
      <path id="DejaVuSans-Bold-2c" d="M 653 1209 
L 1778 1209 
L 1778 256 
L 1006 -909 
L 341 -909 
L 653 256 
L 653 1209 
z
" transform="scale(0.015625)"/>
      <path id="DejaVuSans-Bold-20" transform="scale(0.015625)"/>
      <path id="DejaVuSans-Bold-52" d="M 2297 2597 
Q 2675 2597 2839 2737 
Q 3003 2878 3003 3200 
Q 3003 3519 2839 3656 
Q 2675 3794 2297 3794 
L 1791 3794 
L 1791 2597 
L 2297 2597 
z
M 1791 1766 
L 1791 0 
L 588 0 
L 588 4666 
L 2425 4666 
Q 3347 4666 3776 4356 
Q 4206 4047 4206 3378 
Q 4206 2916 3982 2619 
Q 3759 2322 3309 2181 
Q 3556 2125 3751 1926 
Q 3947 1728 4147 1325 
L 4800 0 
L 3519 0 
L 2950 1159 
Q 2778 1509 2601 1637 
Q 2425 1766 2131 1766 
L 1791 1766 
z
" transform="scale(0.015625)"/>
      <path id="DejaVuSans-Bold-32" d="M 1844 884 
L 3897 884 
L 3897 0 
L 506 0 
L 506 884 
L 2209 2388 
Q 2438 2594 2547 2791 
Q 2656 2988 2656 3200 
Q 2656 3528 2436 3728 
Q 2216 3928 1850 3928 
Q 1569 3928 1234 3808 
Q 900 3688 519 3450 
L 519 4475 
Q 925 4609 1322 4679 
Q 1719 4750 2100 4750 
Q 2938 4750 3402 4381 
Q 3866 4013 3866 3353 
Q 3866 2972 3669 2642 
Q 3472 2313 2841 1759 
L 1844 884 
z
" transform="scale(0.015625)"/>
     </defs>
     <use xlink:href="#DejaVuSans-Bold-72"/>
     <use xlink:href="#DejaVuSans-Bold-3d" x="49.316406"/>
     <use xlink:href="#DejaVuSans-Bold-30" x="133.105469"/>
     <use xlink:href="#DejaVuSans-Bold-2e" x="202.685547"/>
     <use xlink:href="#DejaVuSans-Bold-31" x="240.673828"/>
     <use xlink:href="#DejaVuSans-Bold-35" x="310.253906"/>
     <use xlink:href="#DejaVuSans-Bold-2c" x="379.833984"/>
     <use xlink:href="#DejaVuSans-Bold-20" x="417.822266"/>
     <use xlink:href="#DejaVuSans-Bold-52" x="452.636719"/>
     <use xlink:href="#DejaVuSans-Bold-32" x="529.638672"/>
     <use xlink:href="#DejaVuSans-Bold-3d" x="599.21875"/>
     <use xlink:href="#DejaVuSans-Bold-30" x="683.007812"/>
     <use xlink:href="#DejaVuSans-Bold-2e" x="752.587891"/>
     <use xlink:href="#DejaVuSans-Bold-30" x="790.576172"/>
     <use xlink:href="#DejaVuSans-Bold-32" x="860.15625"/>
    </g>
   </g>
   <g id="text_19">
    <!-- r=0.38, R2=0.14 -->
    <g style="fill: #262626" transform="translate(268.320142 103.060345) scale(0.1 -0.1)">
     <defs>
      <path id="DejaVuSans-Bold-33" d="M 2981 2516 
Q 3453 2394 3698 2092 
Q 3944 1791 3944 1325 
Q 3944 631 3412 270 
Q 2881 -91 1863 -91 
Q 1503 -91 1142 -33 
Q 781 25 428 141 
L 428 1069 
Q 766 900 1098 814 
Q 1431 728 1753 728 
Q 2231 728 2486 893 
Q 2741 1059 2741 1369 
Q 2741 1688 2480 1852 
Q 2219 2016 1709 2016 
L 1228 2016 
L 1228 2791 
L 1734 2791 
Q 2188 2791 2409 2933 
Q 2631 3075 2631 3366 
Q 2631 3634 2415 3781 
Q 2200 3928 1806 3928 
Q 1516 3928 1219 3862 
Q 922 3797 628 3669 
L 628 4550 
Q 984 4650 1334 4700 
Q 1684 4750 2022 4750 
Q 2931 4750 3382 4451 
Q 3834 4153 3834 3553 
Q 3834 3144 3618 2883 
Q 3403 2622 2981 2516 
z
" transform="scale(0.015625)"/>
      <path id="DejaVuSans-Bold-38" d="M 2228 2088 
Q 1891 2088 1709 1903 
Q 1528 1719 1528 1375 
Q 1528 1031 1709 848 
Q 1891 666 2228 666 
Q 2563 666 2741 848 
Q 2919 1031 2919 1375 
Q 2919 1722 2741 1905 
Q 2563 2088 2228 2088 
z
M 1350 2484 
Q 925 2613 709 2878 
Q 494 3144 494 3541 
Q 494 4131 934 4440 
Q 1375 4750 2228 4750 
Q 3075 4750 3515 4442 
Q 3956 4134 3956 3541 
Q 3956 3144 3739 2878 
Q 3522 2613 3097 2484 
Q 3572 2353 3814 2058 
Q 4056 1763 4056 1313 
Q 4056 619 3595 264 
Q 3134 -91 2228 -91 
Q 1319 -91 855 264 
Q 391 619 391 1313 
Q 391 1763 633 2058 
Q 875 2353 1350 2484 
z
M 1631 3419 
Q 1631 3141 1786 2991 
Q 1941 2841 2228 2841 
Q 2509 2841 2662 2991 
Q 2816 3141 2816 3419 
Q 2816 3697 2662 3845 
Q 2509 3994 2228 3994 
Q 1941 3994 1786 3844 
Q 1631 3694 1631 3419 
z
" transform="scale(0.015625)"/>
      <path id="DejaVuSans-Bold-34" d="M 2356 3675 
L 1038 1722 
L 2356 1722 
L 2356 3675 
z
M 2156 4666 
L 3494 4666 
L 3494 1722 
L 4159 1722 
L 4159 850 
L 3494 850 
L 3494 0 
L 2356 0 
L 2356 850 
L 288 850 
L 288 1881 
L 2156 4666 
z
" transform="scale(0.015625)"/>
     </defs>
     <use xlink:href="#DejaVuSans-Bold-72"/>
     <use xlink:href="#DejaVuSans-Bold-3d" x="49.316406"/>
     <use xlink:href="#DejaVuSans-Bold-30" x="133.105469"/>
     <use xlink:href="#DejaVuSans-Bold-2e" x="202.685547"/>
     <use xlink:href="#DejaVuSans-Bold-33" x="240.673828"/>
     <use xlink:href="#DejaVuSans-Bold-38" x="310.253906"/>
     <use xlink:href="#DejaVuSans-Bold-2c" x="379.833984"/>
     <use xlink:href="#DejaVuSans-Bold-20" x="417.822266"/>
     <use xlink:href="#DejaVuSans-Bold-52" x="452.636719"/>
     <use xlink:href="#DejaVuSans-Bold-32" x="529.638672"/>
     <use xlink:href="#DejaVuSans-Bold-3d" x="599.21875"/>
     <use xlink:href="#DejaVuSans-Bold-30" x="683.007812"/>
     <use xlink:href="#DejaVuSans-Bold-2e" x="752.587891"/>
     <use xlink:href="#DejaVuSans-Bold-31" x="790.576172"/>
     <use xlink:href="#DejaVuSans-Bold-34" x="860.15625"/>
    </g>
   </g>
   <g id="text_20">
    <!-- r=-0.01, R2=0.00 -->
    <g style="fill: #262626" transform="translate(218.454813 102.472116) scale(0.1 -0.1)">
     <defs>
      <path id="DejaVuSans-Bold-2d" d="M 347 2297 
L 2309 2297 
L 2309 1388 
L 347 1388 
L 347 2297 
z
" transform="scale(0.015625)"/>
     </defs>
     <use xlink:href="#DejaVuSans-Bold-72"/>
     <use xlink:href="#DejaVuSans-Bold-3d" x="49.316406"/>
     <use xlink:href="#DejaVuSans-Bold-2d" x="133.105469"/>
     <use xlink:href="#DejaVuSans-Bold-30" x="174.609375"/>
     <use xlink:href="#DejaVuSans-Bold-2e" x="244.189453"/>
     <use xlink:href="#DejaVuSans-Bold-30" x="282.177734"/>
     <use xlink:href="#DejaVuSans-Bold-31" x="351.757812"/>
     <use xlink:href="#DejaVuSans-Bold-2c" x="421.337891"/>
     <use xlink:href="#DejaVuSans-Bold-20" x="459.326172"/>
     <use xlink:href="#DejaVuSans-Bold-52" x="494.140625"/>
     <use xlink:href="#DejaVuSans-Bold-32" x="571.142578"/>
     <use xlink:href="#DejaVuSans-Bold-3d" x="640.722656"/>
     <use xlink:href="#DejaVuSans-Bold-30" x="724.511719"/>
     <use xlink:href="#DejaVuSans-Bold-2e" x="794.091797"/>
     <use xlink:href="#DejaVuSans-Bold-30" x="832.080078"/>
     <use xlink:href="#DejaVuSans-Bold-30" x="901.660156"/>
    </g>
   </g>
   <g id="text_21">
    <!-- r=0.40, R2=0.16 -->
    <g style="fill: #262626" transform="translate(237.519445 101.15407) scale(0.1 -0.1)">
     <defs>
      <path id="DejaVuSans-Bold-36" d="M 2316 2303 
Q 2000 2303 1842 2098 
Q 1684 1894 1684 1484 
Q 1684 1075 1842 870 
Q 2000 666 2316 666 
Q 2634 666 2792 870 
Q 2950 1075 2950 1484 
Q 2950 1894 2792 2098 
Q 2634 2303 2316 2303 
z
M 3803 4544 
L 3803 3681 
Q 3506 3822 3243 3889 
Q 2981 3956 2731 3956 
Q 2194 3956 1894 3657 
Q 1594 3359 1544 2772 
Q 1750 2925 1990 3001 
Q 2231 3078 2516 3078 
Q 3231 3078 3670 2659 
Q 4109 2241 4109 1563 
Q 4109 813 3618 361 
Q 3128 -91 2303 -91 
Q 1394 -91 895 523 
Q 397 1138 397 2266 
Q 397 3422 980 4083 
Q 1563 4744 2578 4744 
Q 2900 4744 3203 4694 
Q 3506 4644 3803 4544 
z
" transform="scale(0.015625)"/>
     </defs>
     <use xlink:href="#DejaVuSans-Bold-72"/>
     <use xlink:href="#DejaVuSans-Bold-3d" x="49.316406"/>
     <use xlink:href="#DejaVuSans-Bold-30" x="133.105469"/>
     <use xlink:href="#DejaVuSans-Bold-2e" x="202.685547"/>
     <use xlink:href="#DejaVuSans-Bold-34" x="240.673828"/>
     <use xlink:href="#DejaVuSans-Bold-30" x="310.253906"/>
     <use xlink:href="#DejaVuSans-Bold-2c" x="379.833984"/>
     <use xlink:href="#DejaVuSans-Bold-20" x="417.822266"/>
     <use xlink:href="#DejaVuSans-Bold-52" x="452.636719"/>
     <use xlink:href="#DejaVuSans-Bold-32" x="529.638672"/>
     <use xlink:href="#DejaVuSans-Bold-3d" x="599.21875"/>
     <use xlink:href="#DejaVuSans-Bold-30" x="683.007812"/>
     <use xlink:href="#DejaVuSans-Bold-2e" x="752.587891"/>
     <use xlink:href="#DejaVuSans-Bold-31" x="790.576172"/>
     <use xlink:href="#DejaVuSans-Bold-36" x="860.15625"/>
    </g>
   </g>
   <g id="legend_1">
    <g id="text_22">
     <!-- Task -->
     <g style="fill: #262626" transform="translate(223.097625 250.505836) scale(0.08 -0.08)">
      <defs>
       <path id="DejaVuSans-54" d="M -19 4666 
L 3928 4666 
L 3928 4134 
L 2272 4134 
L 2272 0 
L 1638 0 
L 1638 4134 
L -19 4134 
L -19 4666 
z
" transform="scale(0.015625)"/>
       <path id="DejaVuSans-6b" d="M 581 4863 
L 1159 4863 
L 1159 1991 
L 2875 3500 
L 3609 3500 
L 1753 1863 
L 3688 0 
L 2938 0 
L 1159 1709 
L 1159 0 
L 581 0 
L 581 4863 
z
" transform="scale(0.015625)"/>
      </defs>
      <use xlink:href="#DejaVuSans-54"/>
      <use xlink:href="#DejaVuSans-61" x="44.583984"/>
      <use xlink:href="#DejaVuSans-73" x="105.863281"/>
      <use xlink:href="#DejaVuSans-6b" x="157.962891"/>
     </g>
    </g>
    <g id="PathCollection_5">
     <g>
      <use xlink:href="#m250591cfa2" x="125.001688" y="259.150993" style="fill: #e6d800; fill-opacity: 0.8; stroke: #e6d800; stroke-opacity: 0.8"/>
     </g>
    </g>
    <g id="text_23">
     <!-- vs 1 -->
     <g style="fill: #262626" transform="translate(137.601688 260.988493) scale(0.07 -0.07)">
      <use xlink:href="#DejaVuSans-76"/>
      <use xlink:href="#DejaVuSans-73" x="59.179688"/>
      <use xlink:href="#DejaVuSans-20" x="111.279297"/>
      <use xlink:href="#DejaVuSans-31" x="143.066406"/>
     </g>
    </g>
    <g id="PathCollection_6">
     <g>
      <use xlink:href="#m1b78b73936" x="173.069813" y="259.150993" style="fill: #0bb4ff; fill-opacity: 0.8; stroke: #0bb4ff; stroke-opacity: 0.8"/>
     </g>
    </g>
    <g id="text_24">
     <!-- vs 9 -->
     <g style="fill: #262626" transform="translate(185.669813 260.988493) scale(0.07 -0.07)">
      <defs>
       <path id="DejaVuSans-39" d="M 703 97 
L 703 672 
Q 941 559 1184 500 
Q 1428 441 1663 441 
Q 2288 441 2617 861 
Q 2947 1281 2994 2138 
Q 2813 1869 2534 1725 
Q 2256 1581 1919 1581 
Q 1219 1581 811 2004 
Q 403 2428 403 3163 
Q 403 3881 828 4315 
Q 1253 4750 1959 4750 
Q 2769 4750 3195 4129 
Q 3622 3509 3622 2328 
Q 3622 1225 3098 567 
Q 2575 -91 1691 -91 
Q 1453 -91 1209 -44 
Q 966 3 703 97 
z
M 1959 2075 
Q 2384 2075 2632 2365 
Q 2881 2656 2881 3163 
Q 2881 3666 2632 3958 
Q 2384 4250 1959 4250 
Q 1534 4250 1286 3958 
Q 1038 3666 1038 3163 
Q 1038 2656 1286 2365 
Q 1534 2075 1959 2075 
z
" transform="scale(0.015625)"/>
      </defs>
      <use xlink:href="#DejaVuSans-76"/>
      <use xlink:href="#DejaVuSans-73" x="59.179688"/>
      <use xlink:href="#DejaVuSans-20" x="111.279297"/>
      <use xlink:href="#DejaVuSans-39" x="143.066406"/>
     </g>
    </g>
    <g id="PathCollection_7">
     <g>
      <use xlink:href="#ma41e86f1e3" x="221.137938" y="259.150993" style="fill: #00bfa0; fill-opacity: 0.8; stroke: #00bfa0; stroke-opacity: 0.8"/>
     </g>
    </g>
    <g id="text_25">
     <!-- vs Non-binder -->
     <g style="fill: #262626" transform="translate(233.737938 260.988493) scale(0.07 -0.07)">
      <defs>
       <path id="DejaVuSans-62" d="M 3116 1747 
Q 3116 2381 2855 2742 
Q 2594 3103 2138 3103 
Q 1681 3103 1420 2742 
Q 1159 2381 1159 1747 
Q 1159 1113 1420 752 
Q 1681 391 2138 391 
Q 2594 391 2855 752 
Q 3116 1113 3116 1747 
z
M 1159 2969 
Q 1341 3281 1617 3432 
Q 1894 3584 2278 3584 
Q 2916 3584 3314 3078 
Q 3713 2572 3713 1747 
Q 3713 922 3314 415 
Q 2916 -91 2278 -91 
Q 1894 -91 1617 61 
Q 1341 213 1159 525 
L 1159 0 
L 581 0 
L 581 4863 
L 1159 4863 
L 1159 2969 
z
" transform="scale(0.015625)"/>
      </defs>
      <use xlink:href="#DejaVuSans-76"/>
      <use xlink:href="#DejaVuSans-73" x="59.179688"/>
      <use xlink:href="#DejaVuSans-20" x="111.279297"/>
      <use xlink:href="#DejaVuSans-4e" x="143.066406"/>
      <use xlink:href="#DejaVuSans-6f" x="217.871094"/>
      <use xlink:href="#DejaVuSans-6e" x="279.052734"/>
      <use xlink:href="#DejaVuSans-2d" x="342.431641"/>
      <use xlink:href="#DejaVuSans-62" x="378.515625"/>
      <use xlink:href="#DejaVuSans-69" x="441.992188"/>
      <use xlink:href="#DejaVuSans-6e" x="469.775391"/>
      <use xlink:href="#DejaVuSans-64" x="533.154297"/>
      <use xlink:href="#DejaVuSans-65" x="596.630859"/>
      <use xlink:href="#DejaVuSans-72" x="658.154297"/>
     </g>
    </g>
    <g id="PathCollection_8">
     <g>
      <use xlink:href="#mb016d09068" x="303.687625" y="259.150993" style="fill: #e60049; fill-opacity: 0.8; stroke: #e60049; stroke-opacity: 0.8"/>
     </g>
    </g>
    <g id="text_26">
     <!-- vs Weak -->
     <g style="fill: #262626" transform="translate(316.287625 260.988493) scale(0.07 -0.07)">
      <defs>
       <path id="DejaVuSans-57" d="M 213 4666 
L 850 4666 
L 1831 722 
L 2809 4666 
L 3519 4666 
L 4500 722 
L 5478 4666 
L 6119 4666 
L 4947 0 
L 4153 0 
L 3169 4050 
L 2175 0 
L 1381 0 
L 213 4666 
z
" transform="scale(0.015625)"/>
      </defs>
      <use xlink:href="#DejaVuSans-76"/>
      <use xlink:href="#DejaVuSans-73" x="59.179688"/>
      <use xlink:href="#DejaVuSans-20" x="111.279297"/>
      <use xlink:href="#DejaVuSans-57" x="143.066406"/>
      <use xlink:href="#DejaVuSans-65" x="236.068359"/>
      <use xlink:href="#DejaVuSans-61" x="297.591797"/>
      <use xlink:href="#DejaVuSans-6b" x="358.871094"/>
     </g>
    </g>
   </g>
  </g>
 </g>
 <defs>
  <clipPath id="pcff048e1a1">
   <rect x="56.52" y="27.1296" width="350.424" height="174.0816"/>
  </clipPath>
 </defs>
</svg>
