<?xml version="1.0" encoding="utf-8" standalone="no"?>
<!DOCTYPE svg PUBLIC "-//W3C//DTD SVG 1.1//EN"
  "http://www.w3.org/Graphics/SVG/1.1/DTD/svg11.dtd">
<svg xmlns:xlink="http://www.w3.org/1999/xlink" width="565.2pt" height="271.296pt" viewBox="0 0 565.2 271.296" xmlns="http://www.w3.org/2000/svg" version="1.1">
 <metadata>
  <rdf:RDF xmlns:dc="http://purl.org/dc/elements/1.1/" xmlns:cc="http://creativecommons.org/ns#" xmlns:rdf="http://www.w3.org/1999/02/22-rdf-syntax-ns#">
   <cc:Work>
    <dc:type rdf:resource="http://purl.org/dc/dcmitype/StillImage"/>
    <dc:date>2024-01-29T18:07:37.829783</dc:date>
    <dc:format>image/svg+xml</dc:format>
    <dc:creator>
     <cc:Agent>
      <dc:title>Matplotlib v3.6.2, https://matplotlib.org/</dc:title>
     </cc:Agent>
    </dc:creator>
   </cc:Work>
  </rdf:RDF>
 </metadata>
 <defs>
  <style type="text/css">*{stroke-linejoin: round; stroke-linecap: butt}</style>
 </defs>
 <g id="figure_1">
  <g id="patch_1">
   <path d="M 0 271.296 
L 565.2 271.296 
L 565.2 0 
L 0 0 
z
" style="fill: #ffffff"/>
  </g>
  <g id="axes_1">
   <g id="patch_2">
    <path d="M 70.65 241.45344 
L 508.68 241.45344 
L 508.68 32.55552 
L 70.65 32.55552 
z
" style="fill: #ffffff"/>
   </g>
   <g id="matplotlib.axis_1">
    <g id="xtick_1">
     <g id="text_1">
      <!-- vs Non-binder -->
      <g style="fill: #262626" transform="translate(112.886625 256.440065) scale(0.088 -0.088)">
       <defs>
        <path id="DejaVuSans-76" d="M 191 3500 
L 800 3500 
L 1894 563 
L 2988 3500 
L 3597 3500 
L 2284 0 
L 1503 0 
L 191 3500 
z
" transform="scale(0.015625)"/>
        <path id="DejaVuSans-73" d="M 2834 3397 
L 2834 2853 
Q 2591 2978 2328 3040 
Q 2066 3103 1784 3103 
Q 1356 3103 1142 2972 
Q 928 2841 928 2578 
Q 928 2378 1081 2264 
Q 1234 2150 1697 2047 
L 1894 2003 
Q 2506 1872 2764 1633 
Q 3022 1394 3022 966 
Q 3022 478 2636 193 
Q 2250 -91 1575 -91 
Q 1294 -91 989 -36 
Q 684 19 347 128 
L 347 722 
Q 666 556 975 473 
Q 1284 391 1588 391 
Q 1994 391 2212 530 
Q 2431 669 2431 922 
Q 2431 1156 2273 1281 
Q 2116 1406 1581 1522 
L 1381 1569 
Q 847 1681 609 1914 
Q 372 2147 372 2553 
Q 372 3047 722 3315 
Q 1072 3584 1716 3584 
Q 2034 3584 2315 3537 
Q 2597 3491 2834 3397 
z
" transform="scale(0.015625)"/>
        <path id="DejaVuSans-20" transform="scale(0.015625)"/>
        <path id="DejaVuSans-4e" d="M 628 4666 
L 1478 4666 
L 3547 763 
L 3547 4666 
L 4159 4666 
L 4159 0 
L 3309 0 
L 1241 3903 
L 1241 0 
L 628 0 
L 628 4666 
z
" transform="scale(0.015625)"/>
        <path id="DejaVuSans-6f" d="M 1959 3097 
Q 1497 3097 1228 2736 
Q 959 2375 959 1747 
Q 959 1119 1226 758 
Q 1494 397 1959 397 
Q 2419 397 2687 759 
Q 2956 1122 2956 1747 
Q 2956 2369 2687 2733 
Q 2419 3097 1959 3097 
z
M 1959 3584 
Q 2709 3584 3137 3096 
Q 3566 2609 3566 1747 
Q 3566 888 3137 398 
Q 2709 -91 1959 -91 
Q 1206 -91 779 398 
Q 353 888 353 1747 
Q 353 2609 779 3096 
Q 1206 3584 1959 3584 
z
" transform="scale(0.015625)"/>
        <path id="DejaVuSans-6e" d="M 3513 2113 
L 3513 0 
L 2938 0 
L 2938 2094 
Q 2938 2591 2744 2837 
Q 2550 3084 2163 3084 
Q 1697 3084 1428 2787 
Q 1159 2491 1159 1978 
L 1159 0 
L 581 0 
L 581 3500 
L 1159 3500 
L 1159 2956 
Q 1366 3272 1645 3428 
Q 1925 3584 2291 3584 
Q 2894 3584 3203 3211 
Q 3513 2838 3513 2113 
z
" transform="scale(0.015625)"/>
        <path id="DejaVuSans-2d" d="M 313 2009 
L 1997 2009 
L 1997 1497 
L 313 1497 
L 313 2009 
z
" transform="scale(0.015625)"/>
        <path id="DejaVuSans-62" d="M 3116 1747 
Q 3116 2381 2855 2742 
Q 2594 3103 2138 3103 
Q 1681 3103 1420 2742 
Q 1159 2381 1159 1747 
Q 1159 1113 1420 752 
Q 1681 391 2138 391 
Q 2594 391 2855 752 
Q 3116 1113 3116 1747 
z
M 1159 2969 
Q 1341 3281 1617 3432 
Q 1894 3584 2278 3584 
Q 2916 3584 3314 3078 
Q 3713 2572 3713 1747 
Q 3713 922 3314 415 
Q 2916 -91 2278 -91 
Q 1894 -91 1617 61 
Q 1341 213 1159 525 
L 1159 0 
L 581 0 
L 581 4863 
L 1159 4863 
L 1159 2969 
z
" transform="scale(0.015625)"/>
        <path id="DejaVuSans-69" d="M 603 3500 
L 1178 3500 
L 1178 0 
L 603 0 
L 603 3500 
z
M 603 4863 
L 1178 4863 
L 1178 4134 
L 603 4134 
L 603 4863 
z
" transform="scale(0.015625)"/>
        <path id="DejaVuSans-64" d="M 2906 2969 
L 2906 4863 
L 3481 4863 
L 3481 0 
L 2906 0 
L 2906 525 
Q 2725 213 2448 61 
Q 2172 -91 1784 -91 
Q 1150 -91 751 415 
Q 353 922 353 1747 
Q 353 2572 751 3078 
Q 1150 3584 1784 3584 
Q 2172 3584 2448 3432 
Q 2725 3281 2906 2969 
z
M 947 1747 
Q 947 1113 1208 752 
Q 1469 391 1925 391 
Q 2381 391 2643 752 
Q 2906 1113 2906 1747 
Q 2906 2381 2643 2742 
Q 2381 3103 1925 3103 
Q 1469 3103 1208 2742 
Q 947 2381 947 1747 
z
" transform="scale(0.015625)"/>
        <path id="DejaVuSans-65" d="M 3597 1894 
L 3597 1613 
L 953 1613 
Q 991 1019 1311 708 
Q 1631 397 2203 397 
Q 2534 397 2845 478 
Q 3156 559 3463 722 
L 3463 178 
Q 3153 47 2828 -22 
Q 2503 -91 2169 -91 
Q 1331 -91 842 396 
Q 353 884 353 1716 
Q 353 2575 817 3079 
Q 1281 3584 2069 3584 
Q 2775 3584 3186 3129 
Q 3597 2675 3597 1894 
z
M 3022 2063 
Q 3016 2534 2758 2815 
Q 2500 3097 2075 3097 
Q 1594 3097 1305 2825 
Q 1016 2553 972 2059 
L 3022 2063 
z
" transform="scale(0.015625)"/>
        <path id="DejaVuSans-72" d="M 2631 2963 
Q 2534 3019 2420 3045 
Q 2306 3072 2169 3072 
Q 1681 3072 1420 2755 
Q 1159 2438 1159 1844 
L 1159 0 
L 581 0 
L 581 3500 
L 1159 3500 
L 1159 2956 
Q 1341 3275 1631 3429 
Q 1922 3584 2338 3584 
Q 2397 3584 2469 3576 
Q 2541 3569 2628 3553 
L 2631 2963 
z
" transform="scale(0.015625)"/>
       </defs>
       <use xlink:href="#DejaVuSans-76"/>
       <use xlink:href="#DejaVuSans-73" x="59.179688"/>
       <use xlink:href="#DejaVuSans-20" x="111.279297"/>
       <use xlink:href="#DejaVuSans-4e" x="143.066406"/>
       <use xlink:href="#DejaVuSans-6f" x="217.871094"/>
       <use xlink:href="#DejaVuSans-6e" x="279.052734"/>
       <use xlink:href="#DejaVuSans-2d" x="342.431641"/>
       <use xlink:href="#DejaVuSans-62" x="378.515625"/>
       <use xlink:href="#DejaVuSans-69" x="441.992188"/>
       <use xlink:href="#DejaVuSans-6e" x="469.775391"/>
       <use xlink:href="#DejaVuSans-64" x="533.154297"/>
       <use xlink:href="#DejaVuSans-65" x="596.630859"/>
       <use xlink:href="#DejaVuSans-72" x="658.154297"/>
      </g>
     </g>
    </g>
    <g id="xtick_2">
     <g id="text_2">
      <!-- vs 9 -->
      <g style="fill: #262626" transform="translate(280.57075 256.440065) scale(0.088 -0.088)">
       <defs>
        <path id="DejaVuSans-39" d="M 703 97 
L 703 672 
Q 941 559 1184 500 
Q 1428 441 1663 441 
Q 2288 441 2617 861 
Q 2947 1281 2994 2138 
Q 2813 1869 2534 1725 
Q 2256 1581 1919 1581 
Q 1219 1581 811 2004 
Q 403 2428 403 3163 
Q 403 3881 828 4315 
Q 1253 4750 1959 4750 
Q 2769 4750 3195 4129 
Q 3622 3509 3622 2328 
Q 3622 1225 3098 567 
Q 2575 -91 1691 -91 
Q 1453 -91 1209 -44 
Q 966 3 703 97 
z
M 1959 2075 
Q 2384 2075 2632 2365 
Q 2881 2656 2881 3163 
Q 2881 3666 2632 3958 
Q 2384 4250 1959 4250 
Q 1534 4250 1286 3958 
Q 1038 3666 1038 3163 
Q 1038 2656 1286 2365 
Q 1534 2075 1959 2075 
z
" transform="scale(0.015625)"/>
       </defs>
       <use xlink:href="#DejaVuSans-76"/>
       <use xlink:href="#DejaVuSans-73" x="59.179688"/>
       <use xlink:href="#DejaVuSans-20" x="111.279297"/>
       <use xlink:href="#DejaVuSans-39" x="143.066406"/>
      </g>
     </g>
    </g>
    <g id="xtick_3">
     <g id="text_3">
      <!-- vs Weak -->
      <g style="fill: #262626" transform="translate(417.336625 256.440065) scale(0.088 -0.088)">
       <defs>
        <path id="DejaVuSans-57" d="M 213 4666 
L 850 4666 
L 1831 722 
L 2809 4666 
L 3519 4666 
L 4500 722 
L 5478 4666 
L 6119 4666 
L 4947 0 
L 4153 0 
L 3169 4050 
L 2175 0 
L 1381 0 
L 213 4666 
z
" transform="scale(0.015625)"/>
        <path id="DejaVuSans-61" d="M 2194 1759 
Q 1497 1759 1228 1600 
Q 959 1441 959 1056 
Q 959 750 1161 570 
Q 1363 391 1709 391 
Q 2188 391 2477 730 
Q 2766 1069 2766 1631 
L 2766 1759 
L 2194 1759 
z
M 3341 1997 
L 3341 0 
L 2766 0 
L 2766 531 
Q 2569 213 2275 61 
Q 1981 -91 1556 -91 
Q 1019 -91 701 211 
Q 384 513 384 1019 
Q 384 1609 779 1909 
Q 1175 2209 1959 2209 
L 2766 2209 
L 2766 2266 
Q 2766 2663 2505 2880 
Q 2244 3097 1772 3097 
Q 1472 3097 1187 3025 
Q 903 2953 641 2809 
L 641 3341 
Q 956 3463 1253 3523 
Q 1550 3584 1831 3584 
Q 2591 3584 2966 3190 
Q 3341 2797 3341 1997 
z
" transform="scale(0.015625)"/>
        <path id="DejaVuSans-6b" d="M 581 4863 
L 1159 4863 
L 1159 1991 
L 2875 3500 
L 3609 3500 
L 1753 1863 
L 3688 0 
L 2938 0 
L 1159 1709 
L 1159 0 
L 581 0 
L 581 4863 
z
" transform="scale(0.015625)"/>
       </defs>
       <use xlink:href="#DejaVuSans-76"/>
       <use xlink:href="#DejaVuSans-73" x="59.179688"/>
       <use xlink:href="#DejaVuSans-20" x="111.279297"/>
       <use xlink:href="#DejaVuSans-57" x="143.066406"/>
       <use xlink:href="#DejaVuSans-65" x="236.068359"/>
       <use xlink:href="#DejaVuSans-61" x="297.591797"/>
       <use xlink:href="#DejaVuSans-6b" x="358.871094"/>
      </g>
     </g>
    </g>
   </g>
   <g id="matplotlib.axis_2">
    <g id="ytick_1">
     <g id="text_4">
      <!-- 0.65 -->
      <g style="fill: #262626" transform="translate(42.75625 225.33036) scale(0.088 -0.088)">
       <defs>
        <path id="DejaVuSans-30" d="M 2034 4250 
Q 1547 4250 1301 3770 
Q 1056 3291 1056 2328 
Q 1056 1369 1301 889 
Q 1547 409 2034 409 
Q 2525 409 2770 889 
Q 3016 1369 3016 2328 
Q 3016 3291 2770 3770 
Q 2525 4250 2034 4250 
z
M 2034 4750 
Q 2819 4750 3233 4129 
Q 3647 3509 3647 2328 
Q 3647 1150 3233 529 
Q 2819 -91 2034 -91 
Q 1250 -91 836 529 
Q 422 1150 422 2328 
Q 422 3509 836 4129 
Q 1250 4750 2034 4750 
z
" transform="scale(0.015625)"/>
        <path id="DejaVuSans-2e" d="M 684 794 
L 1344 794 
L 1344 0 
L 684 0 
L 684 794 
z
" transform="scale(0.015625)"/>
        <path id="DejaVuSans-36" d="M 2113 2584 
Q 1688 2584 1439 2293 
Q 1191 2003 1191 1497 
Q 1191 994 1439 701 
Q 1688 409 2113 409 
Q 2538 409 2786 701 
Q 3034 994 3034 1497 
Q 3034 2003 2786 2293 
Q 2538 2584 2113 2584 
z
M 3366 4563 
L 3366 3988 
Q 3128 4100 2886 4159 
Q 2644 4219 2406 4219 
Q 1781 4219 1451 3797 
Q 1122 3375 1075 2522 
Q 1259 2794 1537 2939 
Q 1816 3084 2150 3084 
Q 2853 3084 3261 2657 
Q 3669 2231 3669 1497 
Q 3669 778 3244 343 
Q 2819 -91 2113 -91 
Q 1303 -91 875 529 
Q 447 1150 447 2328 
Q 447 3434 972 4092 
Q 1497 4750 2381 4750 
Q 2619 4750 2861 4703 
Q 3103 4656 3366 4563 
z
" transform="scale(0.015625)"/>
        <path id="DejaVuSans-35" d="M 691 4666 
L 3169 4666 
L 3169 4134 
L 1269 4134 
L 1269 2991 
Q 1406 3038 1543 3061 
Q 1681 3084 1819 3084 
Q 2600 3084 3056 2656 
Q 3513 2228 3513 1497 
Q 3513 744 3044 326 
Q 2575 -91 1722 -91 
Q 1428 -91 1123 -41 
Q 819 9 494 109 
L 494 744 
Q 775 591 1075 516 
Q 1375 441 1709 441 
Q 2250 441 2565 725 
Q 2881 1009 2881 1497 
Q 2881 1984 2565 2268 
Q 2250 2553 1709 2553 
Q 1456 2553 1204 2497 
Q 953 2441 691 2322 
L 691 4666 
z
" transform="scale(0.015625)"/>
       </defs>
       <use xlink:href="#DejaVuSans-30"/>
       <use xlink:href="#DejaVuSans-2e" x="63.623047"/>
       <use xlink:href="#DejaVuSans-36" x="95.410156"/>
       <use xlink:href="#DejaVuSans-35" x="159.033203"/>
      </g>
     </g>
    </g>
    <g id="ytick_2">
     <g id="text_5">
      <!-- 0.70 -->
      <g style="fill: #262626" transform="translate(42.75625 199.252755) scale(0.088 -0.088)">
       <defs>
        <path id="DejaVuSans-37" d="M 525 4666 
L 3525 4666 
L 3525 4397 
L 1831 0 
L 1172 0 
L 2766 4134 
L 525 4134 
L 525 4666 
z
" transform="scale(0.015625)"/>
       </defs>
       <use xlink:href="#DejaVuSans-30"/>
       <use xlink:href="#DejaVuSans-2e" x="63.623047"/>
       <use xlink:href="#DejaVuSans-37" x="95.410156"/>
       <use xlink:href="#DejaVuSans-30" x="159.033203"/>
      </g>
     </g>
    </g>
    <g id="ytick_3">
     <g id="text_6">
      <!-- 0.75 -->
      <g style="fill: #262626" transform="translate(42.75625 173.17515) scale(0.088 -0.088)">
       <use xlink:href="#DejaVuSans-30"/>
       <use xlink:href="#DejaVuSans-2e" x="63.623047"/>
       <use xlink:href="#DejaVuSans-37" x="95.410156"/>
       <use xlink:href="#DejaVuSans-35" x="159.033203"/>
      </g>
     </g>
    </g>
    <g id="ytick_4">
     <g id="text_7">
      <!-- 0.80 -->
      <g style="fill: #262626" transform="translate(42.75625 147.097546) scale(0.088 -0.088)">
       <defs>
        <path id="DejaVuSans-38" d="M 2034 2216 
Q 1584 2216 1326 1975 
Q 1069 1734 1069 1313 
Q 1069 891 1326 650 
Q 1584 409 2034 409 
Q 2484 409 2743 651 
Q 3003 894 3003 1313 
Q 3003 1734 2745 1975 
Q 2488 2216 2034 2216 
z
M 1403 2484 
Q 997 2584 770 2862 
Q 544 3141 544 3541 
Q 544 4100 942 4425 
Q 1341 4750 2034 4750 
Q 2731 4750 3128 4425 
Q 3525 4100 3525 3541 
Q 3525 3141 3298 2862 
Q 3072 2584 2669 2484 
Q 3125 2378 3379 2068 
Q 3634 1759 3634 1313 
Q 3634 634 3220 271 
Q 2806 -91 2034 -91 
Q 1263 -91 848 271 
Q 434 634 434 1313 
Q 434 1759 690 2068 
Q 947 2378 1403 2484 
z
M 1172 3481 
Q 1172 3119 1398 2916 
Q 1625 2713 2034 2713 
Q 2441 2713 2670 2916 
Q 2900 3119 2900 3481 
Q 2900 3844 2670 4047 
Q 2441 4250 2034 4250 
Q 1625 4250 1398 4047 
Q 1172 3844 1172 3481 
z
" transform="scale(0.015625)"/>
       </defs>
       <use xlink:href="#DejaVuSans-30"/>
       <use xlink:href="#DejaVuSans-2e" x="63.623047"/>
       <use xlink:href="#DejaVuSans-38" x="95.410156"/>
       <use xlink:href="#DejaVuSans-30" x="159.033203"/>
      </g>
     </g>
    </g>
    <g id="ytick_5">
     <g id="text_8">
      <!-- 0.85 -->
      <g style="fill: #262626" transform="translate(42.75625 121.019941) scale(0.088 -0.088)">
       <use xlink:href="#DejaVuSans-30"/>
       <use xlink:href="#DejaVuSans-2e" x="63.623047"/>
       <use xlink:href="#DejaVuSans-38" x="95.410156"/>
       <use xlink:href="#DejaVuSans-35" x="159.033203"/>
      </g>
     </g>
    </g>
    <g id="ytick_6">
     <g id="text_9">
      <!-- 0.90 -->
      <g style="fill: #262626" transform="translate(42.75625 94.942336) scale(0.088 -0.088)">
       <use xlink:href="#DejaVuSans-30"/>
       <use xlink:href="#DejaVuSans-2e" x="63.623047"/>
       <use xlink:href="#DejaVuSans-39" x="95.410156"/>
       <use xlink:href="#DejaVuSans-30" x="159.033203"/>
      </g>
     </g>
    </g>
    <g id="ytick_7">
     <g id="text_10">
      <!-- 0.95 -->
      <g style="fill: #262626" transform="translate(42.75625 68.864731) scale(0.088 -0.088)">
       <use xlink:href="#DejaVuSans-30"/>
       <use xlink:href="#DejaVuSans-2e" x="63.623047"/>
       <use xlink:href="#DejaVuSans-39" x="95.410156"/>
       <use xlink:href="#DejaVuSans-35" x="159.033203"/>
      </g>
     </g>
    </g>
    <g id="ytick_8">
     <g id="text_11">
      <!-- 1.00 -->
      <g style="fill: #262626" transform="translate(42.75625 42.787126) scale(0.088 -0.088)">
       <defs>
        <path id="DejaVuSans-31" d="M 794 531 
L 1825 531 
L 1825 4091 
L 703 3866 
L 703 4441 
L 1819 4666 
L 2450 4666 
L 2450 531 
L 3481 531 
L 3481 0 
L 794 0 
L 794 531 
z
" transform="scale(0.015625)"/>
       </defs>
       <use xlink:href="#DejaVuSans-31"/>
       <use xlink:href="#DejaVuSans-2e" x="63.623047"/>
       <use xlink:href="#DejaVuSans-30" x="95.410156"/>
       <use xlink:href="#DejaVuSans-30" x="159.033203"/>
      </g>
     </g>
    </g>
    <g id="text_12">
     <!-- Prediction accuracy -->
     <g style="fill: #262626" transform="translate(36.75975 184.03023) rotate(-90) scale(0.096 -0.096)">
      <defs>
       <path id="DejaVuSans-50" d="M 1259 4147 
L 1259 2394 
L 2053 2394 
Q 2494 2394 2734 2622 
Q 2975 2850 2975 3272 
Q 2975 3691 2734 3919 
Q 2494 4147 2053 4147 
L 1259 4147 
z
M 628 4666 
L 2053 4666 
Q 2838 4666 3239 4311 
Q 3641 3956 3641 3272 
Q 3641 2581 3239 2228 
Q 2838 1875 2053 1875 
L 1259 1875 
L 1259 0 
L 628 0 
L 628 4666 
z
" transform="scale(0.015625)"/>
       <path id="DejaVuSans-63" d="M 3122 3366 
L 3122 2828 
Q 2878 2963 2633 3030 
Q 2388 3097 2138 3097 
Q 1578 3097 1268 2742 
Q 959 2388 959 1747 
Q 959 1106 1268 751 
Q 1578 397 2138 397 
Q 2388 397 2633 464 
Q 2878 531 3122 666 
L 3122 134 
Q 2881 22 2623 -34 
Q 2366 -91 2075 -91 
Q 1284 -91 818 406 
Q 353 903 353 1747 
Q 353 2603 823 3093 
Q 1294 3584 2113 3584 
Q 2378 3584 2631 3529 
Q 2884 3475 3122 3366 
z
" transform="scale(0.015625)"/>
       <path id="DejaVuSans-74" d="M 1172 4494 
L 1172 3500 
L 2356 3500 
L 2356 3053 
L 1172 3053 
L 1172 1153 
Q 1172 725 1289 603 
Q 1406 481 1766 481 
L 2356 481 
L 2356 0 
L 1766 0 
Q 1100 0 847 248 
Q 594 497 594 1153 
L 594 3053 
L 172 3053 
L 172 3500 
L 594 3500 
L 594 4494 
L 1172 4494 
z
" transform="scale(0.015625)"/>
       <path id="DejaVuSans-75" d="M 544 1381 
L 544 3500 
L 1119 3500 
L 1119 1403 
Q 1119 906 1312 657 
Q 1506 409 1894 409 
Q 2359 409 2629 706 
Q 2900 1003 2900 1516 
L 2900 3500 
L 3475 3500 
L 3475 0 
L 2900 0 
L 2900 538 
Q 2691 219 2414 64 
Q 2138 -91 1772 -91 
Q 1169 -91 856 284 
Q 544 659 544 1381 
z
M 1991 3584 
L 1991 3584 
z
" transform="scale(0.015625)"/>
       <path id="DejaVuSans-79" d="M 2059 -325 
Q 1816 -950 1584 -1140 
Q 1353 -1331 966 -1331 
L 506 -1331 
L 506 -850 
L 844 -850 
Q 1081 -850 1212 -737 
Q 1344 -625 1503 -206 
L 1606 56 
L 191 3500 
L 800 3500 
L 1894 763 
L 2988 3500 
L 3597 3500 
L 2059 -325 
z
" transform="scale(0.015625)"/>
      </defs>
      <use xlink:href="#DejaVuSans-50"/>
      <use xlink:href="#DejaVuSans-72" x="58.552734"/>
      <use xlink:href="#DejaVuSans-65" x="97.416016"/>
      <use xlink:href="#DejaVuSans-64" x="158.939453"/>
      <use xlink:href="#DejaVuSans-69" x="222.416016"/>
      <use xlink:href="#DejaVuSans-63" x="250.199219"/>
      <use xlink:href="#DejaVuSans-74" x="305.179688"/>
      <use xlink:href="#DejaVuSans-69" x="344.388672"/>
      <use xlink:href="#DejaVuSans-6f" x="372.171875"/>
      <use xlink:href="#DejaVuSans-6e" x="433.353516"/>
      <use xlink:href="#DejaVuSans-20" x="496.732422"/>
      <use xlink:href="#DejaVuSans-61" x="528.519531"/>
      <use xlink:href="#DejaVuSans-63" x="589.798828"/>
      <use xlink:href="#DejaVuSans-63" x="644.779297"/>
      <use xlink:href="#DejaVuSans-75" x="699.759766"/>
      <use xlink:href="#DejaVuSans-72" x="763.138672"/>
      <use xlink:href="#DejaVuSans-61" x="804.251953"/>
      <use xlink:href="#DejaVuSans-63" x="865.53125"/>
      <use xlink:href="#DejaVuSans-79" x="920.511719"/>
     </g>
    </g>
   </g>
   <g id="line2d_1">
    <path d="M 121.7535 45.858905 
L 267.7635 136.971244 
L 413.7735 183.854635 
" clip-path="url(#p5a62683118)" style="fill: none; stroke: #00bfa0; stroke-width: 2.16; stroke-linecap: round"/>
   </g>
   <g id="line2d_2">
    <path d="M 121.7535 49.666929 
L 121.7535 42.05088 
" clip-path="url(#p5a62683118)" style="fill: none; stroke: #00bfa0; stroke-width: 2.16; stroke-linecap: round"/>
   </g>
   <g id="line2d_3">
    <path d="M 267.7635 171.911962 
L 267.7635 102.030526 
" clip-path="url(#p5a62683118)" style="fill: none; stroke: #00bfa0; stroke-width: 2.16; stroke-linecap: round"/>
   </g>
   <g id="line2d_4">
    <path d="M 413.7735 200.645284 
L 413.7735 167.063986 
" clip-path="url(#p5a62683118)" style="fill: none; stroke: #00bfa0; stroke-width: 2.16; stroke-linecap: round"/>
   </g>
   <g id="PathCollection_1">
    <defs>
     <path id="mb6c10006c3" d="M 0 2.707159 
C 0.717947 2.707159 1.406585 2.421915 1.91425 1.91425 
C 2.421915 1.406585 2.707159 0.717947 2.707159 0 
C 2.707159 -0.717947 2.421915 -1.406585 1.91425 -1.91425 
C 1.406585 -2.421915 0.717947 -2.707159 0 -2.707159 
C -0.717947 -2.707159 -1.406585 -2.421915 -1.91425 -1.91425 
C -2.421915 -1.406585 -2.707159 -0.717947 -2.707159 0 
C -2.707159 0.717947 -2.421915 1.406585 -1.91425 1.91425 
C -1.406585 2.421915 -0.717947 2.707159 0 2.707159 
z
" style="stroke: #00bfa0; stroke-width: 1.62"/>
    </defs>
    <g clip-path="url(#p5a62683118)">
     <use xlink:href="#mb6c10006c3" x="121.7535" y="45.858905" style="fill: #00bfa0; stroke: #00bfa0; stroke-width: 1.62"/>
     <use xlink:href="#mb6c10006c3" x="267.7635" y="136.971244" style="fill: #00bfa0; stroke: #00bfa0; stroke-width: 1.62"/>
     <use xlink:href="#mb6c10006c3" x="413.7735" y="183.854635" style="fill: #00bfa0; stroke: #00bfa0; stroke-width: 1.62"/>
    </g>
   </g>
   <g id="line2d_5">
    <path d="M 143.655 110.526729 
L 289.665 68.610262 
L 435.675 184.033701 
" clip-path="url(#p5a62683118)" style="fill: none; stroke: #0bb4ff; stroke-width: 2.16; stroke-linecap: round"/>
   </g>
   <g id="line2d_6">
    <path d="M 143.655 174.076348 
L 143.655 46.977109 
" clip-path="url(#p5a62683118)" style="fill: none; stroke: #0bb4ff; stroke-width: 2.16; stroke-linecap: round"/>
   </g>
   <g id="line2d_7">
    <path d="M 289.665 79.171951 
L 289.665 58.048572 
" clip-path="url(#p5a62683118)" style="fill: none; stroke: #0bb4ff; stroke-width: 2.16; stroke-linecap: round"/>
   </g>
   <g id="line2d_8">
    <path d="M 435.675 231.95808 
L 435.675 136.109323 
" clip-path="url(#p5a62683118)" style="fill: none; stroke: #0bb4ff; stroke-width: 2.16; stroke-linecap: round"/>
   </g>
   <g id="PathCollection_2">
    <defs>
     <path id="m303ecb1785" d="M 0 2.707159 
C 0.717947 2.707159 1.406585 2.421915 1.91425 1.91425 
C 2.421915 1.406585 2.707159 0.717947 2.707159 0 
C 2.707159 -0.717947 2.421915 -1.406585 1.91425 -1.91425 
C 1.406585 -2.421915 0.717947 -2.707159 0 -2.707159 
C -0.717947 -2.707159 -1.406585 -2.421915 -1.91425 -1.91425 
C -2.421915 -1.406585 -2.707159 -0.717947 -2.707159 0 
C -2.707159 0.717947 -2.421915 1.406585 -1.91425 1.91425 
C -1.406585 2.421915 -0.717947 2.707159 0 2.707159 
z
" style="stroke: #0bb4ff; stroke-width: 1.62"/>
    </defs>
    <g clip-path="url(#p5a62683118)">
     <use xlink:href="#m303ecb1785" x="143.655" y="110.526729" style="fill: #0bb4ff; stroke: #0bb4ff; stroke-width: 1.62"/>
     <use xlink:href="#m303ecb1785" x="289.665" y="68.610262" style="fill: #0bb4ff; stroke: #0bb4ff; stroke-width: 1.62"/>
     <use xlink:href="#m303ecb1785" x="435.675" y="184.033701" style="fill: #0bb4ff; stroke: #0bb4ff; stroke-width: 1.62"/>
    </g>
   </g>
   <g id="patch_3">
    <path d="M 70.65 241.45344 
L 70.65 32.55552 
" style="fill: none; stroke: #262626; stroke-linejoin: miter; stroke-linecap: square"/>
   </g>
   <g id="patch_4">
    <path d="M 508.68 241.45344 
L 508.68 32.55552 
" style="fill: none; stroke: #262626; stroke-linejoin: miter; stroke-linecap: square"/>
   </g>
   <g id="patch_5">
    <path d="M 70.65 241.45344 
L 508.68 241.45344 
" style="fill: none; stroke: #262626; stroke-linejoin: miter; stroke-linecap: square"/>
   </g>
   <g id="patch_6">
    <path d="M 70.65 32.55552 
L 508.68 32.55552 
" style="fill: none; stroke: #262626; stroke-linejoin: miter; stroke-linecap: square"/>
   </g>
   <g id="line2d_9">
    <path d="M 165.5565 61.832886 
L 311.5665 92.602064 
L 457.5765 83.400225 
" clip-path="url(#p5a62683118)" style="fill: none; stroke: #e60049; stroke-width: 2.16; stroke-linecap: round"/>
   </g>
   <g id="line2d_10">
    <path d="M 165.5565 71.870745 
L 165.5565 51.795027 
" clip-path="url(#p5a62683118)" style="fill: none; stroke: #e60049; stroke-width: 2.16; stroke-linecap: round"/>
   </g>
   <g id="line2d_11">
    <path d="M 311.5665 118.462665 
L 311.5665 66.741463 
" clip-path="url(#p5a62683118)" style="fill: none; stroke: #e60049; stroke-width: 2.16; stroke-linecap: round"/>
   </g>
   <g id="line2d_12">
    <path d="M 457.5765 101.003568 
L 457.5765 65.796881 
" clip-path="url(#p5a62683118)" style="fill: none; stroke: #e60049; stroke-width: 2.16; stroke-linecap: round"/>
   </g>
   <g id="PathCollection_3">
    <defs>
     <path id="m13182e9d07" d="M 0 2.707159 
C 0.717947 2.707159 1.406585 2.421915 1.91425 1.91425 
C 2.421915 1.406585 2.707159 0.717947 2.707159 0 
C 2.707159 -0.717947 2.421915 -1.406585 1.91425 -1.91425 
C 1.406585 -2.421915 0.717947 -2.707159 0 -2.707159 
C -0.717947 -2.707159 -1.406585 -2.421915 -1.91425 -1.91425 
C -2.421915 -1.406585 -2.707159 -0.717947 -2.707159 0 
C -2.707159 0.717947 -2.421915 1.406585 -1.91425 1.91425 
C -1.406585 2.421915 -0.717947 2.707159 0 2.707159 
z
" style="stroke: #e60049; stroke-width: 1.62"/>
    </defs>
    <g clip-path="url(#p5a62683118)">
     <use xlink:href="#m13182e9d07" x="165.5565" y="61.832886" style="fill: #e60049; stroke: #e60049; stroke-width: 1.62"/>
     <use xlink:href="#m13182e9d07" x="311.5665" y="92.602064" style="fill: #e60049; stroke: #e60049; stroke-width: 1.62"/>
     <use xlink:href="#m13182e9d07" x="457.5765" y="83.400225" style="fill: #e60049; stroke: #e60049; stroke-width: 1.62"/>
    </g>
   </g>
   <g id="text_13">
    <!-- 0.99 -->
    <g transform="translate(111.88475 44.195155) scale(0.08 -0.08)">
     <defs>
      <path id="DejaVuSans-Bold-30" d="M 2944 2338 
Q 2944 3213 2780 3570 
Q 2616 3928 2228 3928 
Q 1841 3928 1675 3570 
Q 1509 3213 1509 2338 
Q 1509 1453 1675 1090 
Q 1841 728 2228 728 
Q 2613 728 2778 1090 
Q 2944 1453 2944 2338 
z
M 4147 2328 
Q 4147 1169 3647 539 
Q 3147 -91 2228 -91 
Q 1306 -91 806 539 
Q 306 1169 306 2328 
Q 306 3491 806 4120 
Q 1306 4750 2228 4750 
Q 3147 4750 3647 4120 
Q 4147 3491 4147 2328 
z
" transform="scale(0.015625)"/>
      <path id="DejaVuSans-Bold-2e" d="M 653 1209 
L 1778 1209 
L 1778 0 
L 653 0 
L 653 1209 
z
" transform="scale(0.015625)"/>
      <path id="DejaVuSans-Bold-39" d="M 641 103 
L 641 966 
Q 928 831 1190 764 
Q 1453 697 1709 697 
Q 2247 697 2547 995 
Q 2847 1294 2900 1881 
Q 2688 1725 2447 1647 
Q 2206 1569 1925 1569 
Q 1209 1569 770 1986 
Q 331 2403 331 3084 
Q 331 3838 820 4291 
Q 1309 4744 2131 4744 
Q 3044 4744 3544 4128 
Q 4044 3513 4044 2388 
Q 4044 1231 3459 570 
Q 2875 -91 1856 -91 
Q 1528 -91 1228 -42 
Q 928 6 641 103 
z
M 2125 2350 
Q 2441 2350 2600 2554 
Q 2759 2759 2759 3169 
Q 2759 3575 2600 3781 
Q 2441 3988 2125 3988 
Q 1809 3988 1650 3781 
Q 1491 3575 1491 3169 
Q 1491 2759 1650 2554 
Q 1809 2350 2125 2350 
z
" transform="scale(0.015625)"/>
     </defs>
     <use xlink:href="#DejaVuSans-Bold-30"/>
     <use xlink:href="#DejaVuSans-Bold-2e" x="69.580078"/>
     <use xlink:href="#DejaVuSans-Bold-39" x="107.568359"/>
     <use xlink:href="#DejaVuSans-Bold-39" x="177.148438"/>
    </g>
   </g>
   <g id="text_14">
    <!-- 0.81 -->
    <g transform="translate(257.89475 135.307494) scale(0.08 -0.08)">
     <defs>
      <path id="DejaVuSans-Bold-38" d="M 2228 2088 
Q 1891 2088 1709 1903 
Q 1528 1719 1528 1375 
Q 1528 1031 1709 848 
Q 1891 666 2228 666 
Q 2563 666 2741 848 
Q 2919 1031 2919 1375 
Q 2919 1722 2741 1905 
Q 2563 2088 2228 2088 
z
M 1350 2484 
Q 925 2613 709 2878 
Q 494 3144 494 3541 
Q 494 4131 934 4440 
Q 1375 4750 2228 4750 
Q 3075 4750 3515 4442 
Q 3956 4134 3956 3541 
Q 3956 3144 3739 2878 
Q 3522 2613 3097 2484 
Q 3572 2353 3814 2058 
Q 4056 1763 4056 1313 
Q 4056 619 3595 264 
Q 3134 -91 2228 -91 
Q 1319 -91 855 264 
Q 391 619 391 1313 
Q 391 1763 633 2058 
Q 875 2353 1350 2484 
z
M 1631 3419 
Q 1631 3141 1786 2991 
Q 1941 2841 2228 2841 
Q 2509 2841 2662 2991 
Q 2816 3141 2816 3419 
Q 2816 3697 2662 3845 
Q 2509 3994 2228 3994 
Q 1941 3994 1786 3844 
Q 1631 3694 1631 3419 
z
" transform="scale(0.015625)"/>
      <path id="DejaVuSans-Bold-31" d="M 750 831 
L 1813 831 
L 1813 3847 
L 722 3622 
L 722 4441 
L 1806 4666 
L 2950 4666 
L 2950 831 
L 4013 831 
L 4013 0 
L 750 0 
L 750 831 
z
" transform="scale(0.015625)"/>
     </defs>
     <use xlink:href="#DejaVuSans-Bold-30"/>
     <use xlink:href="#DejaVuSans-Bold-2e" x="69.580078"/>
     <use xlink:href="#DejaVuSans-Bold-38" x="107.568359"/>
     <use xlink:href="#DejaVuSans-Bold-31" x="177.148438"/>
    </g>
   </g>
   <g id="text_15">
    <!-- 0.72 -->
    <g transform="translate(403.90475 182.190885) scale(0.08 -0.08)">
     <defs>
      <path id="DejaVuSans-Bold-37" d="M 428 4666 
L 3944 4666 
L 3944 3988 
L 2125 0 
L 953 0 
L 2675 3781 
L 428 3781 
L 428 4666 
z
" transform="scale(0.015625)"/>
      <path id="DejaVuSans-Bold-32" d="M 1844 884 
L 3897 884 
L 3897 0 
L 506 0 
L 506 884 
L 2209 2388 
Q 2438 2594 2547 2791 
Q 2656 2988 2656 3200 
Q 2656 3528 2436 3728 
Q 2216 3928 1850 3928 
Q 1569 3928 1234 3808 
Q 900 3688 519 3450 
L 519 4475 
Q 925 4609 1322 4679 
Q 1719 4750 2100 4750 
Q 2938 4750 3402 4381 
Q 3866 4013 3866 3353 
Q 3866 2972 3669 2642 
Q 3472 2313 2841 1759 
L 1844 884 
z
" transform="scale(0.015625)"/>
     </defs>
     <use xlink:href="#DejaVuSans-Bold-30"/>
     <use xlink:href="#DejaVuSans-Bold-2e" x="69.580078"/>
     <use xlink:href="#DejaVuSans-Bold-37" x="107.568359"/>
     <use xlink:href="#DejaVuSans-Bold-32" x="177.148438"/>
    </g>
   </g>
   <g id="text_16">
    <!-- 0.86 -->
    <g transform="translate(133.78625 108.862979) scale(0.08 -0.08)">
     <defs>
      <path id="DejaVuSans-Bold-36" d="M 2316 2303 
Q 2000 2303 1842 2098 
Q 1684 1894 1684 1484 
Q 1684 1075 1842 870 
Q 2000 666 2316 666 
Q 2634 666 2792 870 
Q 2950 1075 2950 1484 
Q 2950 1894 2792 2098 
Q 2634 2303 2316 2303 
z
M 3803 4544 
L 3803 3681 
Q 3506 3822 3243 3889 
Q 2981 3956 2731 3956 
Q 2194 3956 1894 3657 
Q 1594 3359 1544 2772 
Q 1750 2925 1990 3001 
Q 2231 3078 2516 3078 
Q 3231 3078 3670 2659 
Q 4109 2241 4109 1563 
Q 4109 813 3618 361 
Q 3128 -91 2303 -91 
Q 1394 -91 895 523 
Q 397 1138 397 2266 
Q 397 3422 980 4083 
Q 1563 4744 2578 4744 
Q 2900 4744 3203 4694 
Q 3506 4644 3803 4544 
z
" transform="scale(0.015625)"/>
     </defs>
     <use xlink:href="#DejaVuSans-Bold-30"/>
     <use xlink:href="#DejaVuSans-Bold-2e" x="69.580078"/>
     <use xlink:href="#DejaVuSans-Bold-38" x="107.568359"/>
     <use xlink:href="#DejaVuSans-Bold-36" x="177.148438"/>
    </g>
   </g>
   <g id="text_17">
    <!-- 0.94 -->
    <g transform="translate(279.79625 66.946512) scale(0.08 -0.08)">
     <defs>
      <path id="DejaVuSans-Bold-34" d="M 2356 3675 
L 1038 1722 
L 2356 1722 
L 2356 3675 
z
M 2156 4666 
L 3494 4666 
L 3494 1722 
L 4159 1722 
L 4159 850 
L 3494 850 
L 3494 0 
L 2356 0 
L 2356 850 
L 288 850 
L 288 1881 
L 2156 4666 
z
" transform="scale(0.015625)"/>
     </defs>
     <use xlink:href="#DejaVuSans-Bold-30"/>
     <use xlink:href="#DejaVuSans-Bold-2e" x="69.580078"/>
     <use xlink:href="#DejaVuSans-Bold-39" x="107.568359"/>
     <use xlink:href="#DejaVuSans-Bold-34" x="177.148438"/>
    </g>
   </g>
   <g id="text_18">
    <!-- 0.72 -->
    <g transform="translate(425.80625 182.369951) scale(0.08 -0.08)">
     <use xlink:href="#DejaVuSans-Bold-30"/>
     <use xlink:href="#DejaVuSans-Bold-2e" x="69.580078"/>
     <use xlink:href="#DejaVuSans-Bold-37" x="107.568359"/>
     <use xlink:href="#DejaVuSans-Bold-32" x="177.148438"/>
    </g>
   </g>
   <g id="text_19">
    <!-- 0.96 -->
    <g transform="translate(155.68775 60.169136) scale(0.08 -0.08)">
     <use xlink:href="#DejaVuSans-Bold-30"/>
     <use xlink:href="#DejaVuSans-Bold-2e" x="69.580078"/>
     <use xlink:href="#DejaVuSans-Bold-39" x="107.568359"/>
     <use xlink:href="#DejaVuSans-Bold-36" x="177.148438"/>
    </g>
   </g>
   <g id="text_20">
    <!-- 0.90 -->
    <g transform="translate(301.69775 90.938314) scale(0.08 -0.08)">
     <use xlink:href="#DejaVuSans-Bold-30"/>
     <use xlink:href="#DejaVuSans-Bold-2e" x="69.580078"/>
     <use xlink:href="#DejaVuSans-Bold-39" x="107.568359"/>
     <use xlink:href="#DejaVuSans-Bold-30" x="177.148438"/>
    </g>
   </g>
   <g id="text_21">
    <!-- 0.92 -->
    <g transform="translate(447.70775 81.736475) scale(0.08 -0.08)">
     <use xlink:href="#DejaVuSans-Bold-30"/>
     <use xlink:href="#DejaVuSans-Bold-2e" x="69.580078"/>
     <use xlink:href="#DejaVuSans-Bold-39" x="107.568359"/>
     <use xlink:href="#DejaVuSans-Bold-32" x="177.148438"/>
    </g>
   </g>
   <g id="legend_1">
    <g id="PathCollection_4">
     <g>
      <use xlink:href="#mb6c10006c3" x="195.155" y="12.399582" style="fill: #00bfa0; stroke: #00bfa0; stroke-width: 1.62"/>
     </g>
    </g>
    <g id="text_22">
     <!-- vs Non-binder -->
     <g style="fill: #262626" transform="translate(209.555 14.499582) scale(0.08 -0.08)">
      <use xlink:href="#DejaVuSans-76"/>
      <use xlink:href="#DejaVuSans-73" x="59.179688"/>
      <use xlink:href="#DejaVuSans-20" x="111.279297"/>
      <use xlink:href="#DejaVuSans-4e" x="143.066406"/>
      <use xlink:href="#DejaVuSans-6f" x="217.871094"/>
      <use xlink:href="#DejaVuSans-6e" x="279.052734"/>
      <use xlink:href="#DejaVuSans-2d" x="342.431641"/>
      <use xlink:href="#DejaVuSans-62" x="378.515625"/>
      <use xlink:href="#DejaVuSans-69" x="441.992188"/>
      <use xlink:href="#DejaVuSans-6e" x="469.775391"/>
      <use xlink:href="#DejaVuSans-64" x="533.154297"/>
      <use xlink:href="#DejaVuSans-65" x="596.630859"/>
      <use xlink:href="#DejaVuSans-72" x="658.154297"/>
     </g>
    </g>
    <g id="PathCollection_5">
     <g>
      <use xlink:href="#m303ecb1785" x="289.4975" y="12.399582" style="fill: #0bb4ff; stroke: #0bb4ff; stroke-width: 1.62"/>
     </g>
    </g>
    <g id="text_23">
     <!-- vs 9 -->
     <g style="fill: #262626" transform="translate(303.8975 14.499582) scale(0.08 -0.08)">
      <use xlink:href="#DejaVuSans-76"/>
      <use xlink:href="#DejaVuSans-73" x="59.179688"/>
      <use xlink:href="#DejaVuSans-20" x="111.279297"/>
      <use xlink:href="#DejaVuSans-39" x="143.066406"/>
     </g>
    </g>
    <g id="PathCollection_6">
     <g>
      <use xlink:href="#m13182e9d07" x="344.4325" y="12.399582" style="fill: #e60049; stroke: #e60049; stroke-width: 1.62"/>
     </g>
    </g>
    <g id="text_24">
     <!-- vs Weak -->
     <g style="fill: #262626" transform="translate(358.8325 14.499582) scale(0.08 -0.08)">
      <use xlink:href="#DejaVuSans-76"/>
      <use xlink:href="#DejaVuSans-73" x="59.179688"/>
      <use xlink:href="#DejaVuSans-20" x="111.279297"/>
      <use xlink:href="#DejaVuSans-57" x="143.066406"/>
      <use xlink:href="#DejaVuSans-65" x="236.068359"/>
      <use xlink:href="#DejaVuSans-61" x="297.591797"/>
      <use xlink:href="#DejaVuSans-6b" x="358.871094"/>
     </g>
    </g>
   </g>
  </g>
 </g>
 <defs>
  <clipPath id="p5a62683118">
   <rect x="70.65" y="32.55552" width="438.03" height="208.89792"/>
  </clipPath>
 </defs>
</svg>
