<?xml version="1.0" encoding="utf-8" standalone="no"?>
<!DOCTYPE svg PUBLIC "-//W3C//DTD SVG 1.1//EN"
  "http://www.w3.org/Graphics/SVG/1.1/DTD/svg11.dtd">
<svg xmlns:xlink="http://www.w3.org/1999/xlink" width="226.08pt" height="226.08pt" viewBox="0 0 226.08 226.08" xmlns="http://www.w3.org/2000/svg" version="1.1">
 <metadata>
  <rdf:RDF xmlns:dc="http://purl.org/dc/elements/1.1/" xmlns:cc="http://creativecommons.org/ns#" xmlns:rdf="http://www.w3.org/1999/02/22-rdf-syntax-ns#">
   <cc:Work>
    <dc:type rdf:resource="http://purl.org/dc/dcmitype/StillImage"/>
    <dc:date>2024-08-06T16:19:40.397570</dc:date>
    <dc:format>image/svg+xml</dc:format>
    <dc:creator>
     <cc:Agent>
      <dc:title>Matplotlib v3.7.2, https://matplotlib.org/</dc:title>
     </cc:Agent>
    </dc:creator>
   </cc:Work>
  </rdf:RDF>
 </metadata>
 <defs>
  <style type="text/css">*{stroke-linejoin: round; stroke-linecap: butt}</style>
 </defs>
 <g id="figure_1">
  <g id="patch_1">
   <path d="M 0 226.08 
L 226.08 226.08 
L 226.08 0 
L 0 0 
z
" style="fill: #ffffff"/>
  </g>
  <g id="axes_1">
   <g id="patch_2">
    <path d="M 28.26 201.2112 
L 203.472 201.2112 
L 203.472 27.1296 
L 28.26 27.1296 
z
" style="fill: #ffffff"/>
   </g>
   <g id="matplotlib.axis_1">
    <g id="xtick_1">
     <g id="line2d_1">
      <defs>
       <path id="mb5304bb336" d="M 0 0 
L 0 4.8 
" style="stroke: #262626"/>
      </defs>
      <g>
       <use xlink:href="#mb5304bb336" x="48.050414" y="201.2112" style="fill: #262626; stroke: #262626"/>
      </g>
     </g>
     <g id="text_1">
      <text style="fill: #262626; font: 8.8px 'Arial', 'DejaVu Sans', 'Liberation Sans', 'Bitstream Vera Sans', sans-serif; text-anchor: middle" x="48.050414" y="216.197825" transform="rotate(-0 48.050414 216.197825)">−0.5</text>
     </g>
    </g>
    <g id="xtick_2">
     <g id="line2d_2">
      <g>
       <use xlink:href="#mb5304bb336" x="103.719753" y="201.2112" style="fill: #262626; stroke: #262626"/>
      </g>
     </g>
     <g id="text_2">
      <text style="fill: #262626; font: 8.8px 'Arial', 'DejaVu Sans', 'Liberation Sans', 'Bitstream Vera Sans', sans-serif; text-anchor: middle" x="103.719753" y="216.197825" transform="rotate(-0 103.719753 216.197825)">0.0</text>
     </g>
    </g>
    <g id="xtick_3">
     <g id="line2d_3">
      <g>
       <use xlink:href="#mb5304bb336" x="159.389092" y="201.2112" style="fill: #262626; stroke: #262626"/>
      </g>
     </g>
     <g id="text_3">
      <text style="fill: #262626; font: 8.8px 'Arial', 'DejaVu Sans', 'Liberation Sans', 'Bitstream Vera Sans', sans-serif; text-anchor: middle" x="159.389092" y="216.197825" transform="rotate(-0 159.389092 216.197825)">0.5</text>
     </g>
    </g>
    <g id="text_4">
     <!-- $r_{Energy,Logits}(Ag_i, Ag_j)$ -->
     <g style="fill: #262626" transform="translate(69.114 229.32395)">
      <text>
       <tspan style="font: oblique 9.6px 'DejaVu Sans'" x="0 55.132848 61.69576 74.832529 81.395441" y="-0.71875">rAgAg</tspan>
       <tspan style="font: oblique 6.72px 'DejaVu Sans'" x="3.944305 8.187479 12.443768 16.575452 19.336465 23.599313 31.016669 34.758138 38.866867 43.129715 44.995531 47.628659 67.785542 87.485223" y="0.8562499999999993">EnergyLogitsij</tspan>
       <tspan style="font: 6.72px 'DejaVu Sans'" x="27.573599" y="0.8562499999999993">,</tspan>
       <tspan style="font: 9.6px 'DejaVu Sans'" x="51.389973 69.913858 89.613539" y="-0.71875">(,)</tspan>
      </text>
     </g>
    </g>
   </g>
   <g id="matplotlib.axis_2">
    <g id="ytick_1">
     <g id="line2d_4">
      <defs>
       <path id="m2df683cbb2" d="M 0 0 
L -4.8 0 
" style="stroke: #262626"/>
      </defs>
      <g>
       <use xlink:href="#m2df683cbb2" x="28.26" y="195.36111" style="fill: #262626; stroke: #262626"/>
      </g>
     </g>
     <g id="text_5">
      <text style="fill: #262626; font: 8.8px 'Arial', 'DejaVu Sans', 'Liberation Sans', 'Bitstream Vera Sans', sans-serif; text-anchor: end" x="19.96" y="198.704422" transform="rotate(-0 19.96 198.704422)">−0.8</text>
     </g>
    </g>
    <g id="ytick_2">
     <g id="line2d_5">
      <g>
       <use xlink:href="#m2df683cbb2" x="28.26" y="172.446384" style="fill: #262626; stroke: #262626"/>
      </g>
     </g>
     <g id="text_6">
      <text style="fill: #262626; font: 8.8px 'Arial', 'DejaVu Sans', 'Liberation Sans', 'Bitstream Vera Sans', sans-serif; text-anchor: end" x="19.96" y="175.789696" transform="rotate(-0 19.96 175.789696)">−0.6</text>
     </g>
    </g>
    <g id="ytick_3">
     <g id="line2d_6">
      <g>
       <use xlink:href="#m2df683cbb2" x="28.26" y="149.531657" style="fill: #262626; stroke: #262626"/>
      </g>
     </g>
     <g id="text_7">
      <text style="fill: #262626; font: 8.8px 'Arial', 'DejaVu Sans', 'Liberation Sans', 'Bitstream Vera Sans', sans-serif; text-anchor: end" x="19.96" y="152.87497" transform="rotate(-0 19.96 152.87497)">−0.4</text>
     </g>
    </g>
    <g id="ytick_4">
     <g id="line2d_7">
      <g>
       <use xlink:href="#m2df683cbb2" x="28.26" y="126.616931" style="fill: #262626; stroke: #262626"/>
      </g>
     </g>
     <g id="text_8">
      <text style="fill: #262626; font: 8.8px 'Arial', 'DejaVu Sans', 'Liberation Sans', 'Bitstream Vera Sans', sans-serif; text-anchor: end" x="19.96" y="129.960244" transform="rotate(-0 19.96 129.960244)">−0.2</text>
     </g>
    </g>
    <g id="ytick_5">
     <g id="line2d_8">
      <g>
       <use xlink:href="#m2df683cbb2" x="28.26" y="103.702205" style="fill: #262626; stroke: #262626"/>
      </g>
     </g>
     <g id="text_9">
      <text style="fill: #262626; font: 8.8px 'Arial', 'DejaVu Sans', 'Liberation Sans', 'Bitstream Vera Sans', sans-serif; text-anchor: end" x="19.96" y="107.045517" transform="rotate(-0 19.96 107.045517)">0.0</text>
     </g>
    </g>
    <g id="ytick_6">
     <g id="line2d_9">
      <g>
       <use xlink:href="#m2df683cbb2" x="28.26" y="80.787479" style="fill: #262626; stroke: #262626"/>
      </g>
     </g>
     <g id="text_10">
      <text style="fill: #262626; font: 8.8px 'Arial', 'DejaVu Sans', 'Liberation Sans', 'Bitstream Vera Sans', sans-serif; text-anchor: end" x="19.96" y="84.130791" transform="rotate(-0 19.96 84.130791)">0.2</text>
     </g>
    </g>
    <g id="ytick_7">
     <g id="line2d_10">
      <g>
       <use xlink:href="#m2df683cbb2" x="28.26" y="57.872752" style="fill: #262626; stroke: #262626"/>
      </g>
     </g>
     <g id="text_11">
      <text style="fill: #262626; font: 8.8px 'Arial', 'DejaVu Sans', 'Liberation Sans', 'Bitstream Vera Sans', sans-serif; text-anchor: end" x="19.96" y="61.216065" transform="rotate(-0 19.96 61.216065)">0.4</text>
     </g>
    </g>
    <g id="ytick_8">
     <g id="line2d_11">
      <g>
       <use xlink:href="#m2df683cbb2" x="28.26" y="34.958026" style="fill: #262626; stroke: #262626"/>
      </g>
     </g>
     <g id="text_12">
      <text style="fill: #262626; font: 8.8px 'Arial', 'DejaVu Sans', 'Liberation Sans', 'Bitstream Vera Sans', sans-serif; text-anchor: end" x="19.96" y="38.301339" transform="rotate(-0 19.96 38.301339)">0.6</text>
     </g>
    </g>
    <g id="text_13">
     <!-- $r_{Energy,Logits}(Ag_j, Ag_i)$ -->
     <g style="fill: #262626" transform="translate(-8.384875 160.9224) rotate(-90)">
      <text>
       <tspan style="font: oblique 9.6px 'DejaVu Sans'" x="0 55.132848 61.69576 74.832529 81.395441" y="-0.71875">rAgAg</tspan>
       <tspan style="font: oblique 6.72px 'DejaVu Sans'" x="3.944305 8.187479 12.443768 16.575452 19.336465 23.599313 31.016669 34.758138 38.866867 43.129715 44.995531 47.628659 67.785542 87.485223" y="0.8562499999999993">EnergyLogitsji</tspan>
       <tspan style="font: 6.72px 'DejaVu Sans'" x="27.573599" y="0.8562499999999993">,</tspan>
       <tspan style="font: 9.6px 'DejaVu Sans'" x="51.389973 69.913858 89.613539" y="-0.71875">(,)</tspan>
      </text>
     </g>
    </g>
   </g>
   <g id="PathCollection_1">
    <defs>
     <path id="mc243d00dbe" d="M 0 2.4 
C 0.636487 2.4 1.246992 2.147121 1.697056 1.697056 
C 2.147121 1.246992 2.4 0.636487 2.4 0 
C 2.4 -0.636487 2.147121 -1.246992 1.697056 -1.697056 
C 1.246992 -2.147121 0.636487 -2.4 0 -2.4 
C -0.636487 -2.4 -1.246992 -2.147121 -1.697056 -1.697056 
C -2.147121 -1.246992 -2.4 -0.636487 -2.4 0 
C -2.4 0.636487 -2.147121 1.246992 -1.697056 1.697056 
C -1.246992 2.147121 -0.636487 2.4 0 2.4 
z
" style="stroke: #000000; stroke-opacity: 0.8; stroke-width: 0.1"/>
    </defs>
    <g clip-path="url(#pb17d747d2e)">
     <use xlink:href="#mc243d00dbe" x="48.697159" y="134.521705" style="fill: #4c72b0; fill-opacity: 0.8; stroke: #000000; stroke-opacity: 0.8; stroke-width: 0.1"/>
     <use xlink:href="#mc243d00dbe" x="89.660671" y="48.17982" style="fill: #4c72b0; fill-opacity: 0.8; stroke: #000000; stroke-opacity: 0.8; stroke-width: 0.1"/>
     <use xlink:href="#mc243d00dbe" x="80.814691" y="115.020214" style="fill: #4c72b0; fill-opacity: 0.8; stroke: #000000; stroke-opacity: 0.8; stroke-width: 0.1"/>
     <use xlink:href="#mc243d00dbe" x="87.281458" y="145.134141" style="fill: #4c72b0; fill-opacity: 0.8; stroke: #000000; stroke-opacity: 0.8; stroke-width: 0.1"/>
     <use xlink:href="#mc243d00dbe" x="87.662849" y="135.696277" style="fill: #4c72b0; fill-opacity: 0.8; stroke: #000000; stroke-opacity: 0.8; stroke-width: 0.1"/>
     <use xlink:href="#mc243d00dbe" x="107.930155" y="100.098738" style="fill: #4c72b0; fill-opacity: 0.8; stroke: #000000; stroke-opacity: 0.8; stroke-width: 0.1"/>
     <use xlink:href="#mc243d00dbe" x="132.487777" y="104.204755" style="fill: #4c72b0; fill-opacity: 0.8; stroke: #000000; stroke-opacity: 0.8; stroke-width: 0.1"/>
     <use xlink:href="#mc243d00dbe" x="63.046343" y="104.089945" style="fill: #4c72b0; fill-opacity: 0.8; stroke: #000000; stroke-opacity: 0.8; stroke-width: 0.1"/>
     <use xlink:href="#mc243d00dbe" x="47.109099" y="148.149903" style="fill: #4c72b0; fill-opacity: 0.8; stroke: #000000; stroke-opacity: 0.8; stroke-width: 0.1"/>
     <use xlink:href="#mc243d00dbe" x="191.02855" y="77.529128" style="fill: #4c72b0; fill-opacity: 0.8; stroke: #000000; stroke-opacity: 0.8; stroke-width: 0.1"/>
     <use xlink:href="#mc243d00dbe" x="175.560794" y="97.937734" style="fill: #4c72b0; fill-opacity: 0.8; stroke: #000000; stroke-opacity: 0.8; stroke-width: 0.1"/>
     <use xlink:href="#mc243d00dbe" x="170.081814" y="119.219994" style="fill: #4c72b0; fill-opacity: 0.8; stroke: #000000; stroke-opacity: 0.8; stroke-width: 0.1"/>
     <use xlink:href="#mc243d00dbe" x="152.712582" y="131.670229" style="fill: #4c72b0; fill-opacity: 0.8; stroke: #000000; stroke-opacity: 0.8; stroke-width: 0.1"/>
     <use xlink:href="#mc243d00dbe" x="175.883517" y="35.0424" style="fill: #4c72b0; fill-opacity: 0.8; stroke: #000000; stroke-opacity: 0.8; stroke-width: 0.1"/>
     <use xlink:href="#mc243d00dbe" x="193.870628" y="165.866749" style="fill: #4c72b0; fill-opacity: 0.8; stroke: #000000; stroke-opacity: 0.8; stroke-width: 0.1"/>
     <use xlink:href="#mc243d00dbe" x="195.507818" y="105.609722" style="fill: #4c72b0; fill-opacity: 0.8; stroke: #000000; stroke-opacity: 0.8; stroke-width: 0.1"/>
     <use xlink:href="#mc243d00dbe" x="139.232932" y="140.496733" style="fill: #4c72b0; fill-opacity: 0.8; stroke: #000000; stroke-opacity: 0.8; stroke-width: 0.1"/>
     <use xlink:href="#mc243d00dbe" x="132.761888" y="113.861862" style="fill: #4c72b0; fill-opacity: 0.8; stroke: #000000; stroke-opacity: 0.8; stroke-width: 0.1"/>
     <use xlink:href="#mc243d00dbe" x="149.874922" y="193.2984" style="fill: #4c72b0; fill-opacity: 0.8; stroke: #000000; stroke-opacity: 0.8; stroke-width: 0.1"/>
     <use xlink:href="#mc243d00dbe" x="137.958217" y="89.64509" style="fill: #4c72b0; fill-opacity: 0.8; stroke: #000000; stroke-opacity: 0.8; stroke-width: 0.1"/>
     <use xlink:href="#mc243d00dbe" x="99.022606" y="88.657194" style="fill: #4c72b0; fill-opacity: 0.8; stroke: #000000; stroke-opacity: 0.8; stroke-width: 0.1"/>
     <use xlink:href="#mc243d00dbe" x="177.899003" y="112.547512" style="fill: #4c72b0; fill-opacity: 0.8; stroke: #000000; stroke-opacity: 0.8; stroke-width: 0.1"/>
     <use xlink:href="#mc243d00dbe" x="146.21493" y="76.933215" style="fill: #4c72b0; fill-opacity: 0.8; stroke: #000000; stroke-opacity: 0.8; stroke-width: 0.1"/>
     <use xlink:href="#mc243d00dbe" x="80.376974" y="105.605238" style="fill: #4c72b0; fill-opacity: 0.8; stroke: #000000; stroke-opacity: 0.8; stroke-width: 0.1"/>
     <use xlink:href="#mc243d00dbe" x="37.579772" y="108.884113" style="fill: #4c72b0; fill-opacity: 0.8; stroke: #000000; stroke-opacity: 0.8; stroke-width: 0.1"/>
     <use xlink:href="#mc243d00dbe" x="74.838292" y="57.530132" style="fill: #4c72b0; fill-opacity: 0.8; stroke: #000000; stroke-opacity: 0.8; stroke-width: 0.1"/>
     <use xlink:href="#mc243d00dbe" x="36.305212" y="64.846231" style="fill: #4c72b0; fill-opacity: 0.8; stroke: #000000; stroke-opacity: 0.8; stroke-width: 0.1"/>
     <use xlink:href="#mc243d00dbe" x="72.597824" y="89.149665" style="fill: #4c72b0; fill-opacity: 0.8; stroke: #000000; stroke-opacity: 0.8; stroke-width: 0.1"/>
     <use xlink:href="#mc243d00dbe" x="63.520197" y="78.781619" style="fill: #4c72b0; fill-opacity: 0.8; stroke: #000000; stroke-opacity: 0.8; stroke-width: 0.1"/>
     <use xlink:href="#mc243d00dbe" x="176.347206" y="152.21666" style="fill: #4c72b0; fill-opacity: 0.8; stroke: #000000; stroke-opacity: 0.8; stroke-width: 0.1"/>
     <use xlink:href="#mc243d00dbe" x="36.224182" y="45.627936" style="fill: #4c72b0; fill-opacity: 0.8; stroke: #000000; stroke-opacity: 0.8; stroke-width: 0.1"/>
     <use xlink:href="#mc243d00dbe" x="43.642336" y="41.045853" style="fill: #4c72b0; fill-opacity: 0.8; stroke: #000000; stroke-opacity: 0.8; stroke-width: 0.1"/>
     <use xlink:href="#mc243d00dbe" x="65.631852" y="120.769223" style="fill: #4c72b0; fill-opacity: 0.8; stroke: #000000; stroke-opacity: 0.8; stroke-width: 0.1"/>
     <use xlink:href="#mc243d00dbe" x="58.190205" y="106.724242" style="fill: #4c72b0; fill-opacity: 0.8; stroke: #000000; stroke-opacity: 0.8; stroke-width: 0.1"/>
     <use xlink:href="#mc243d00dbe" x="41.659763" y="152.24626" style="fill: #4c72b0; fill-opacity: 0.8; stroke: #000000; stroke-opacity: 0.8; stroke-width: 0.1"/>
     <use xlink:href="#mc243d00dbe" x="133.340926" y="77.397105" style="fill: #4c72b0; fill-opacity: 0.8; stroke: #000000; stroke-opacity: 0.8; stroke-width: 0.1"/>
     <use xlink:href="#mc243d00dbe" x="141.673222" y="115.991301" style="fill: #4c72b0; fill-opacity: 0.8; stroke: #000000; stroke-opacity: 0.8; stroke-width: 0.1"/>
     <use xlink:href="#mc243d00dbe" x="163.194099" y="80.725686" style="fill: #4c72b0; fill-opacity: 0.8; stroke: #000000; stroke-opacity: 0.8; stroke-width: 0.1"/>
     <use xlink:href="#mc243d00dbe" x="81.747458" y="135.237217" style="fill: #4c72b0; fill-opacity: 0.8; stroke: #000000; stroke-opacity: 0.8; stroke-width: 0.1"/>
     <use xlink:href="#mc243d00dbe" x="83.243295" y="95.011437" style="fill: #4c72b0; fill-opacity: 0.8; stroke: #000000; stroke-opacity: 0.8; stroke-width: 0.1"/>
     <use xlink:href="#mc243d00dbe" x="129.986292" y="58.955391" style="fill: #4c72b0; fill-opacity: 0.8; stroke: #000000; stroke-opacity: 0.8; stroke-width: 0.1"/>
     <use xlink:href="#mc243d00dbe" x="182.723268" y="147.244426" style="fill: #4c72b0; fill-opacity: 0.8; stroke: #000000; stroke-opacity: 0.8; stroke-width: 0.1"/>
     <use xlink:href="#mc243d00dbe" x="104.884558" y="81.502945" style="fill: #4c72b0; fill-opacity: 0.8; stroke: #000000; stroke-opacity: 0.8; stroke-width: 0.1"/>
     <use xlink:href="#mc243d00dbe" x="85.455126" y="90.578991" style="fill: #4c72b0; fill-opacity: 0.8; stroke: #000000; stroke-opacity: 0.8; stroke-width: 0.1"/>
     <use xlink:href="#mc243d00dbe" x="103.501896" y="171.148119" style="fill: #4c72b0; fill-opacity: 0.8; stroke: #000000; stroke-opacity: 0.8; stroke-width: 0.1"/>
    </g>
   </g>
   <g id="PolyCollection_1">
    <defs>
     <path id="mfc125d7563" d="M 36.224182 -148.189422 
L 36.224182 -108.660268 
L 37.833107 -108.911177 
L 39.442033 -109.051564 
L 41.050959 -109.130921 
L 42.659884 -109.306326 
L 44.26881 -109.293531 
L 45.877736 -109.37318 
L 47.486661 -109.525992 
L 49.095587 -109.75611 
L 50.704512 -109.86898 
L 52.313438 -109.980724 
L 53.922364 -110.160115 
L 55.531289 -110.202952 
L 57.140215 -110.296111 
L 58.74914 -110.366362 
L 60.358066 -110.385788 
L 61.966992 -110.510094 
L 63.575917 -110.713794 
L 65.184843 -110.675529 
L 66.793769 -110.718884 
L 68.402694 -110.871279 
L 70.01162 -111.013583 
L 71.620545 -111.025564 
L 73.229471 -111.037545 
L 74.838397 -111.048313 
L 76.447322 -111.135446 
L 78.056248 -111.149542 
L 79.665174 -111.243312 
L 81.274099 -111.155697 
L 82.883025 -111.240053 
L 84.49195 -111.355667 
L 86.100876 -111.566522 
L 87.709802 -111.482753 
L 89.318727 -111.539665 
L 90.927653 -111.617444 
L 92.536579 -111.515526 
L 94.145504 -111.192094 
L 95.75443 -111.064521 
L 97.363355 -110.981317 
L 98.972281 -110.805696 
L 100.581207 -110.814514 
L 102.190132 -110.884488 
L 103.799058 -110.747152 
L 105.407983 -110.547414 
L 107.016909 -110.34141 
L 108.625835 -110.101831 
L 110.23476 -109.784328 
L 111.843686 -109.480498 
L 113.452612 -109.147833 
L 115.061537 -108.926031 
L 116.670463 -108.647168 
L 118.279388 -108.411244 
L 119.888314 -108.212578 
L 121.49724 -107.943949 
L 123.106165 -107.66702 
L 124.715091 -107.478119 
L 126.324017 -107.214561 
L 127.932942 -106.940075 
L 129.541868 -106.616717 
L 131.150793 -106.212444 
L 132.759719 -105.837755 
L 134.368645 -105.427606 
L 135.97757 -105.193312 
L 137.586496 -104.948323 
L 139.195421 -104.362413 
L 140.804347 -103.868817 
L 142.413273 -103.439988 
L 144.022198 -103.185844 
L 145.631124 -102.684566 
L 147.24005 -102.17807 
L 148.848975 -101.670664 
L 150.457901 -101.051589 
L 152.066826 -100.394842 
L 153.675752 -99.898643 
L 155.284678 -99.444202 
L 156.893603 -99.004201 
L 158.502529 -98.469473 
L 160.111455 -97.935136 
L 161.72038 -97.441853 
L 163.329306 -97.110181 
L 164.938231 -96.634143 
L 166.547157 -96.133169 
L 168.156083 -95.651717 
L 169.765008 -95.261225 
L 171.373934 -94.756154 
L 172.98286 -94.237018 
L 174.591785 -93.715089 
L 176.200711 -93.193207 
L 177.809636 -92.674276 
L 179.418562 -92.152308 
L 181.027488 -91.631858 
L 182.636413 -91.108197 
L 184.245339 -90.617932 
L 185.854264 -90.088915 
L 187.46319 -89.584643 
L 189.072116 -89.08037 
L 190.681041 -88.576253 
L 192.289967 -88.073276 
L 193.898893 -87.534998 
L 195.507818 -87.002943 
L 195.507818 -133.179127 
L 195.507818 -133.179127 
L 193.898893 -132.998966 
L 192.289967 -132.814061 
L 190.681041 -132.611393 
L 189.072116 -132.486451 
L 187.46319 -132.429399 
L 185.854264 -132.372347 
L 184.245339 -132.314466 
L 182.636413 -132.13204 
L 181.027488 -131.963248 
L 179.418562 -131.871812 
L 177.809636 -131.751896 
L 176.200711 -131.625147 
L 174.591785 -131.460688 
L 172.98286 -131.29623 
L 171.373934 -131.12949 
L 169.765008 -130.960913 
L 168.156083 -130.834229 
L 166.547157 -130.635102 
L 164.938231 -130.547707 
L 163.329306 -130.474893 
L 161.72038 -130.400776 
L 160.111455 -130.32666 
L 158.502529 -130.252544 
L 156.893603 -130.223402 
L 155.284678 -130.151852 
L 153.675752 -130.035628 
L 152.066826 -129.727878 
L 150.457901 -129.762324 
L 148.848975 -129.796769 
L 147.24005 -129.833406 
L 145.631124 -129.886292 
L 144.022198 -129.90808 
L 142.413273 -129.839479 
L 140.804347 -129.754186 
L 139.195421 -129.925201 
L 137.586496 -129.93205 
L 135.97757 -129.651812 
L 134.368645 -129.550445 
L 132.759719 -129.808031 
L 131.150793 -129.801276 
L 129.541868 -129.575475 
L 127.932942 -129.607315 
L 126.324017 -129.706541 
L 124.715091 -130.009644 
L 123.106165 -129.946511 
L 121.49724 -129.891894 
L 119.888314 -130.06452 
L 118.279388 -129.985647 
L 116.670463 -130.191294 
L 115.061537 -130.242889 
L 113.452612 -130.466421 
L 111.843686 -130.798126 
L 110.23476 -131.1268 
L 108.625835 -131.318958 
L 107.016909 -131.415242 
L 105.407983 -131.567695 
L 103.799058 -131.77953 
L 102.190132 -131.940338 
L 100.581207 -132.092296 
L 98.972281 -132.328238 
L 97.363355 -132.543336 
L 95.75443 -132.918011 
L 94.145504 -133.16914 
L 92.536579 -133.501812 
L 90.927653 -133.834089 
L 89.318727 -134.064995 
L 87.709802 -134.349721 
L 86.100876 -134.647593 
L 84.49195 -134.960044 
L 82.883025 -135.229587 
L 81.274099 -135.504033 
L 79.665174 -135.770513 
L 78.056248 -136.373611 
L 76.447322 -136.788625 
L 74.838397 -137.191982 
L 73.229471 -137.554563 
L 71.620545 -138.040316 
L 70.01162 -138.714559 
L 68.402694 -139.239826 
L 66.793769 -139.669885 
L 65.184843 -140.16579 
L 63.575917 -140.722263 
L 61.966992 -141.114736 
L 60.358066 -141.504345 
L 58.74914 -141.893954 
L 57.140215 -142.281951 
L 55.531289 -142.668504 
L 53.922364 -143.000611 
L 52.313438 -143.423631 
L 50.704512 -143.840202 
L 49.095587 -144.252423 
L 47.486661 -144.715417 
L 45.877736 -145.208355 
L 44.26881 -145.696315 
L 42.659884 -146.096896 
L 41.050959 -146.466019 
L 39.442033 -146.954528 
L 37.833107 -147.561822 
L 36.224182 -148.189422 
z
" style="stroke: #ffffff; stroke-opacity: 0.15; stroke-width: 0.8"/>
    </defs>
    <g clip-path="url(#pb17d747d2e)">
     <use xlink:href="#mfc125d7563" x="0" y="226.08" style="fill: #4c72b0; fill-opacity: 0.15; stroke: #ffffff; stroke-opacity: 0.15; stroke-width: 0.8"/>
    </g>
   </g>
   <g id="line2d_12">
    <path d="M 36.224182 97.296733 
L 37.833107 97.480394 
L 39.442033 97.664054 
L 41.050959 97.847715 
L 42.659884 98.031376 
L 44.26881 98.215037 
L 45.877736 98.398698 
L 47.486661 98.582359 
L 49.095587 98.766019 
L 50.704512 98.94968 
L 52.313438 99.133341 
L 53.922364 99.317002 
L 55.531289 99.500663 
L 57.140215 99.684323 
L 58.74914 99.867984 
L 60.358066 100.051645 
L 61.966992 100.235306 
L 63.575917 100.418967 
L 65.184843 100.602627 
L 66.793769 100.786288 
L 68.402694 100.969949 
L 70.01162 101.15361 
L 71.620545 101.337271 
L 73.229471 101.520931 
L 74.838397 101.704592 
L 76.447322 101.888253 
L 78.056248 102.071914 
L 79.665174 102.255575 
L 81.274099 102.439235 
L 82.883025 102.622896 
L 84.49195 102.806557 
L 86.100876 102.990218 
L 87.709802 103.173879 
L 89.318727 103.35754 
L 90.927653 103.5412 
L 92.536579 103.724861 
L 94.145504 103.908522 
L 95.75443 104.092183 
L 97.363355 104.275844 
L 98.972281 104.459504 
L 100.581207 104.643165 
L 102.190132 104.826826 
L 103.799058 105.010487 
L 105.407983 105.194148 
L 107.016909 105.377808 
L 108.625835 105.561469 
L 110.23476 105.74513 
L 111.843686 105.928791 
L 113.452612 106.112452 
L 115.061537 106.296112 
L 116.670463 106.479773 
L 118.279388 106.663434 
L 119.888314 106.847095 
L 121.49724 107.030756 
L 123.106165 107.214416 
L 124.715091 107.398077 
L 126.324017 107.581738 
L 127.932942 107.765399 
L 129.541868 107.94906 
L 131.150793 108.132721 
L 132.759719 108.316381 
L 134.368645 108.500042 
L 135.97757 108.683703 
L 137.586496 108.867364 
L 139.195421 109.051025 
L 140.804347 109.234685 
L 142.413273 109.418346 
L 144.022198 109.602007 
L 145.631124 109.785668 
L 147.24005 109.969329 
L 148.848975 110.152989 
L 150.457901 110.33665 
L 152.066826 110.520311 
L 153.675752 110.703972 
L 155.284678 110.887633 
L 156.893603 111.071293 
L 158.502529 111.254954 
L 160.111455 111.438615 
L 161.72038 111.622276 
L 163.329306 111.805937 
L 164.938231 111.989597 
L 166.547157 112.173258 
L 168.156083 112.356919 
L 169.765008 112.54058 
L 171.373934 112.724241 
L 172.98286 112.907902 
L 174.591785 113.091562 
L 176.200711 113.275223 
L 177.809636 113.458884 
L 179.418562 113.642545 
L 181.027488 113.826206 
L 182.636413 114.009866 
L 184.245339 114.193527 
L 185.854264 114.377188 
L 187.46319 114.560849 
L 189.072116 114.74451 
L 190.681041 114.92817 
L 192.289967 115.111831 
L 193.898893 115.295492 
L 195.507818 115.479153 
" clip-path="url(#pb17d747d2e)" style="fill: none; stroke: #4c72b0; stroke-width: 1.8; stroke-linecap: round"/>
   </g>
   <g id="patch_3">
    <path d="M 28.26 201.2112 
L 28.26 27.1296 
" style="fill: none; stroke: #262626; stroke-linejoin: miter; stroke-linecap: square"/>
   </g>
   <g id="patch_4">
    <path d="M 203.472 201.2112 
L 203.472 27.1296 
" style="fill: none; stroke: #262626; stroke-linejoin: miter; stroke-linecap: square"/>
   </g>
   <g id="patch_5">
    <path d="M 28.26 201.2112 
L 203.472 201.2112 
" style="fill: none; stroke: #262626; stroke-linejoin: miter; stroke-linecap: square"/>
   </g>
   <g id="patch_6">
    <path d="M 28.26 27.1296 
L 203.472 27.1296 
" style="fill: none; stroke: #262626; stroke-linejoin: miter; stroke-linecap: square"/>
   </g>
   <g id="text_14">
    <g id="patch_7">
     <path d="M 32.916547 167.068708 
L 151.963422 167.068708 
L 151.963422 149.390583 
L 32.916547 149.390583 
z
" style="fill: #ffffff; opacity: 0.5; stroke: #ffffff; stroke-width: 0.8; stroke-linejoin: miter"/>
    </g>
    <text style="fill: #262626; font: 700 10px 'Arial', 'DejaVu Sans', 'Liberation Sans', 'Bitstream Vera Sans', sans-serif; text-anchor: start" x="36.916547" y="160.98902" transform="rotate(-0 36.916547 160.98902)">r = -0.16, R2 = 0.02</text>
   </g>
  </g>
 </g>
 <defs>
  <clipPath id="pb17d747d2e">
   <rect x="28.26" y="27.1296" width="175.212" height="174.0816"/>
  </clipPath>
 </defs>
</svg>
