<?xml version="1.0" encoding="utf-8" standalone="no"?>
<!DOCTYPE svg PUBLIC "-//W3C//DTD SVG 1.1//EN"
  "http://www.w3.org/Graphics/SVG/1.1/DTD/svg11.dtd">
<svg xmlns:xlink="http://www.w3.org/1999/xlink" width="226.08pt" height="226.08pt" viewBox="0 0 226.08 226.08" xmlns="http://www.w3.org/2000/svg" version="1.1">
 <metadata>
  <rdf:RDF xmlns:dc="http://purl.org/dc/elements/1.1/" xmlns:cc="http://creativecommons.org/ns#" xmlns:rdf="http://www.w3.org/1999/02/22-rdf-syntax-ns#">
   <cc:Work>
    <dc:type rdf:resource="http://purl.org/dc/dcmitype/StillImage"/>
    <dc:date>2024-04-28T00:17:25.320048</dc:date>
    <dc:format>image/svg+xml</dc:format>
    <dc:creator>
     <cc:Agent>
      <dc:title>Matplotlib v3.7.2, https://matplotlib.org/</dc:title>
     </cc:Agent>
    </dc:creator>
   </cc:Work>
  </rdf:RDF>
 </metadata>
 <defs>
  <style type="text/css">*{stroke-linejoin: round; stroke-linecap: butt}</style>
 </defs>
 <g id="figure_1">
  <g id="patch_1">
   <path d="M 0 226.08 
L 226.08 226.08 
L 226.08 0 
L 0 0 
z
" style="fill: #ffffff"/>
  </g>
  <g id="axes_1">
   <g id="patch_2">
    <path d="M 28.26 201.2112 
L 203.472 201.2112 
L 203.472 27.1296 
L 28.26 27.1296 
z
" style="fill: #ffffff"/>
   </g>
   <g id="matplotlib.axis_1">
    <g id="xtick_1">
     <g id="line2d_1">
      <defs>
       <path id="m91dc462ec2" d="M 0 0 
L 0 4.8 
" style="stroke: #262626"/>
      </defs>
      <g>
       <use xlink:href="#m91dc462ec2" x="67.059966" y="201.2112" style="fill: #262626; stroke: #262626"/>
      </g>
     </g>
     <g id="text_1">
      <text style="fill: #262626; font: 8.8px 'Arial', 'DejaVu Sans', 'Liberation Sans', 'Bitstream Vera Sans', sans-serif; text-anchor: middle" x="67.059966" y="216.197825" transform="rotate(-0 67.059966 216.197825)">−0.5</text>
     </g>
    </g>
    <g id="xtick_2">
     <g id="line2d_2">
      <g>
       <use xlink:href="#m91dc462ec2" x="117.313577" y="201.2112" style="fill: #262626; stroke: #262626"/>
      </g>
     </g>
     <g id="text_2">
      <text style="fill: #262626; font: 8.8px 'Arial', 'DejaVu Sans', 'Liberation Sans', 'Bitstream Vera Sans', sans-serif; text-anchor: middle" x="117.313577" y="216.197825" transform="rotate(-0 117.313577 216.197825)">0.0</text>
     </g>
    </g>
    <g id="xtick_3">
     <g id="line2d_3">
      <g>
       <use xlink:href="#m91dc462ec2" x="167.567188" y="201.2112" style="fill: #262626; stroke: #262626"/>
      </g>
     </g>
     <g id="text_3">
      <text style="fill: #262626; font: 8.8px 'Arial', 'DejaVu Sans', 'Liberation Sans', 'Bitstream Vera Sans', sans-serif; text-anchor: middle" x="167.567188" y="216.197825" transform="rotate(-0 167.567188 216.197825)">0.5</text>
     </g>
    </g>
    <g id="text_4">
     <!-- $r_{Energy,Attributions}(Ag_i, Ag_j)$ -->
     <g style="fill: #262626" transform="translate(59.514 229.32395)">
      <text>
       <tspan style="font: oblique 9.6px 'DejaVu Sans'" x="0 74.391083 80.953995 94.090764 100.653676" y="-0.71875">rAgAg</tspan>
       <tspan style="font: oblique 6.72px 'DejaVu Sans'" x="3.944305 8.187479 12.443768 16.575452 19.336465 23.599313 31.016669 35.610707 38.243835 40.876964 43.637978 45.503793 49.766641 54.022931 56.656059 58.521875 62.630605 66.886894 87.043777 106.743459" y="0.8562499999999993">EnergyAttributionsij</tspan>
       <tspan style="font: 6.72px 'DejaVu Sans'" x="27.573599" y="0.8562499999999993">,</tspan>
       <tspan style="font: 9.6px 'DejaVu Sans'" x="70.648209 89.172093 108.871774" y="-0.71875">(,)</tspan>
      </text>
     </g>
    </g>
   </g>
   <g id="matplotlib.axis_2">
    <g id="ytick_1">
     <g id="line2d_4">
      <defs>
       <path id="mef2b00c052" d="M 0 0 
L -4.8 0 
" style="stroke: #262626"/>
      </defs>
      <g>
       <use xlink:href="#mef2b00c052" x="28.26" y="195.808471" style="fill: #262626; stroke: #262626"/>
      </g>
     </g>
     <g id="text_5">
      <text style="fill: #262626; font: 8.8px 'Arial', 'DejaVu Sans', 'Liberation Sans', 'Bitstream Vera Sans', sans-serif; text-anchor: end" x="19.96" y="199.151783" transform="rotate(-0 19.96 199.151783)">−0.8</text>
     </g>
    </g>
    <g id="ytick_2">
     <g id="line2d_5">
      <g>
       <use xlink:href="#mef2b00c052" x="28.26" y="175.710065" style="fill: #262626; stroke: #262626"/>
      </g>
     </g>
     <g id="text_6">
      <text style="fill: #262626; font: 8.8px 'Arial', 'DejaVu Sans', 'Liberation Sans', 'Bitstream Vera Sans', sans-serif; text-anchor: end" x="19.96" y="179.053377" transform="rotate(-0 19.96 179.053377)">−0.6</text>
     </g>
    </g>
    <g id="ytick_3">
     <g id="line2d_6">
      <g>
       <use xlink:href="#mef2b00c052" x="28.26" y="155.611658" style="fill: #262626; stroke: #262626"/>
      </g>
     </g>
     <g id="text_7">
      <text style="fill: #262626; font: 8.8px 'Arial', 'DejaVu Sans', 'Liberation Sans', 'Bitstream Vera Sans', sans-serif; text-anchor: end" x="19.96" y="158.954971" transform="rotate(-0 19.96 158.954971)">−0.4</text>
     </g>
    </g>
    <g id="ytick_4">
     <g id="line2d_7">
      <g>
       <use xlink:href="#mef2b00c052" x="28.26" y="135.513252" style="fill: #262626; stroke: #262626"/>
      </g>
     </g>
     <g id="text_8">
      <text style="fill: #262626; font: 8.8px 'Arial', 'DejaVu Sans', 'Liberation Sans', 'Bitstream Vera Sans', sans-serif; text-anchor: end" x="19.96" y="138.856565" transform="rotate(-0 19.96 138.856565)">−0.2</text>
     </g>
    </g>
    <g id="ytick_5">
     <g id="line2d_8">
      <g>
       <use xlink:href="#mef2b00c052" x="28.26" y="115.414846" style="fill: #262626; stroke: #262626"/>
      </g>
     </g>
     <g id="text_9">
      <text style="fill: #262626; font: 8.8px 'Arial', 'DejaVu Sans', 'Liberation Sans', 'Bitstream Vera Sans', sans-serif; text-anchor: end" x="19.96" y="118.758159" transform="rotate(-0 19.96 118.758159)">0.0</text>
     </g>
    </g>
    <g id="ytick_6">
     <g id="line2d_9">
      <g>
       <use xlink:href="#mef2b00c052" x="28.26" y="95.31644" style="fill: #262626; stroke: #262626"/>
      </g>
     </g>
     <g id="text_10">
      <text style="fill: #262626; font: 8.8px 'Arial', 'DejaVu Sans', 'Liberation Sans', 'Bitstream Vera Sans', sans-serif; text-anchor: end" x="19.96" y="98.659752" transform="rotate(-0 19.96 98.659752)">0.2</text>
     </g>
    </g>
    <g id="ytick_7">
     <g id="line2d_10">
      <g>
       <use xlink:href="#mef2b00c052" x="28.26" y="75.218034" style="fill: #262626; stroke: #262626"/>
      </g>
     </g>
     <g id="text_11">
      <text style="fill: #262626; font: 8.8px 'Arial', 'DejaVu Sans', 'Liberation Sans', 'Bitstream Vera Sans', sans-serif; text-anchor: end" x="19.96" y="78.561346" transform="rotate(-0 19.96 78.561346)">0.4</text>
     </g>
    </g>
    <g id="ytick_8">
     <g id="line2d_11">
      <g>
       <use xlink:href="#mef2b00c052" x="28.26" y="55.119628" style="fill: #262626; stroke: #262626"/>
      </g>
     </g>
     <g id="text_12">
      <text style="fill: #262626; font: 8.8px 'Arial', 'DejaVu Sans', 'Liberation Sans', 'Bitstream Vera Sans', sans-serif; text-anchor: end" x="19.96" y="58.46294" transform="rotate(-0 19.96 58.46294)">0.6</text>
     </g>
    </g>
    <g id="ytick_9">
     <g id="line2d_12">
      <g>
       <use xlink:href="#mef2b00c052" x="28.26" y="35.021222" style="fill: #262626; stroke: #262626"/>
      </g>
     </g>
     <g id="text_13">
      <text style="fill: #262626; font: 8.8px 'Arial', 'DejaVu Sans', 'Liberation Sans', 'Bitstream Vera Sans', sans-serif; text-anchor: end" x="19.96" y="38.364534" transform="rotate(-0 19.96 38.364534)">0.8</text>
     </g>
    </g>
    <g id="text_14">
     <!-- $r_{Energy,Attributions}(Ag_j, Ag_i)$ -->
     <g style="fill: #262626" transform="translate(-8.384875 170.5224) rotate(-90)">
      <text>
       <tspan style="font: oblique 9.6px 'DejaVu Sans'" x="0 74.391083 80.953995 94.090764 100.653676" y="-0.71875">rAgAg</tspan>
       <tspan style="font: oblique 6.72px 'DejaVu Sans'" x="3.944305 8.187479 12.443768 16.575452 19.336465 23.599313 31.016669 35.610707 38.243835 40.876964 43.637978 45.503793 49.766641 54.022931 56.656059 58.521875 62.630605 66.886894 87.043777 106.743459" y="0.8562499999999993">EnergyAttributionsji</tspan>
       <tspan style="font: 6.72px 'DejaVu Sans'" x="27.573599" y="0.8562499999999993">,</tspan>
       <tspan style="font: 9.6px 'DejaVu Sans'" x="70.648209 89.172093 108.871774" y="-0.71875">(,)</tspan>
      </text>
     </g>
    </g>
   </g>
   <g id="PathCollection_1">
    <defs>
     <path id="m571d99ba07" d="M 0 2.4 
C 0.636487 2.4 1.246992 2.147121 1.697056 1.697056 
C 2.147121 1.246992 2.4 0.636487 2.4 0 
C 2.4 -0.636487 2.147121 -1.246992 1.697056 -1.697056 
C 1.246992 -2.147121 0.636487 -2.4 0 -2.4 
C -0.636487 -2.4 -1.246992 -2.147121 -1.697056 -1.697056 
C -2.147121 -1.246992 -2.4 -0.636487 -2.4 0 
C -2.4 0.636487 -2.147121 1.246992 -1.697056 1.697056 
C -1.246992 2.147121 -0.636487 2.4 0 2.4 
z
" style="stroke: #000000; stroke-opacity: 0.8; stroke-width: 0.1"/>
    </defs>
    <g clip-path="url(#p574135b923)">
     <use xlink:href="#m571d99ba07" x="57.310287" y="38.626787" style="fill: #4c72b0; fill-opacity: 0.8; stroke: #000000; stroke-opacity: 0.8; stroke-width: 0.1"/>
     <use xlink:href="#m571d99ba07" x="76.671276" y="73.83422" style="fill: #4c72b0; fill-opacity: 0.8; stroke: #000000; stroke-opacity: 0.8; stroke-width: 0.1"/>
     <use xlink:href="#m571d99ba07" x="126.467445" y="121.332402" style="fill: #4c72b0; fill-opacity: 0.8; stroke: #000000; stroke-opacity: 0.8; stroke-width: 0.1"/>
     <use xlink:href="#m571d99ba07" x="62.215674" y="45.75495" style="fill: #4c72b0; fill-opacity: 0.8; stroke: #000000; stroke-opacity: 0.8; stroke-width: 0.1"/>
     <use xlink:href="#m571d99ba07" x="63.767065" y="61.124422" style="fill: #4c72b0; fill-opacity: 0.8; stroke: #000000; stroke-opacity: 0.8; stroke-width: 0.1"/>
     <use xlink:href="#m571d99ba07" x="48.404437" y="41.537739" style="fill: #4c72b0; fill-opacity: 0.8; stroke: #000000; stroke-opacity: 0.8; stroke-width: 0.1"/>
     <use xlink:href="#m571d99ba07" x="62.849647" y="79.450248" style="fill: #4c72b0; fill-opacity: 0.8; stroke: #000000; stroke-opacity: 0.8; stroke-width: 0.1"/>
     <use xlink:href="#m571d99ba07" x="59.014718" y="41.783837" style="fill: #4c72b0; fill-opacity: 0.8; stroke: #000000; stroke-opacity: 0.8; stroke-width: 0.1"/>
     <use xlink:href="#m571d99ba07" x="59.954322" y="61.773861" style="fill: #4c72b0; fill-opacity: 0.8; stroke: #000000; stroke-opacity: 0.8; stroke-width: 0.1"/>
     <use xlink:href="#m571d99ba07" x="190.167669" y="121.524228" style="fill: #4c72b0; fill-opacity: 0.8; stroke: #000000; stroke-opacity: 0.8; stroke-width: 0.1"/>
     <use xlink:href="#m571d99ba07" x="195.507818" y="162.940848" style="fill: #4c72b0; fill-opacity: 0.8; stroke: #000000; stroke-opacity: 0.8; stroke-width: 0.1"/>
     <use xlink:href="#m571d99ba07" x="134.134182" y="111.426831" style="fill: #4c72b0; fill-opacity: 0.8; stroke: #000000; stroke-opacity: 0.8; stroke-width: 0.1"/>
     <use xlink:href="#m571d99ba07" x="185.049671" y="156.228768" style="fill: #4c72b0; fill-opacity: 0.8; stroke: #000000; stroke-opacity: 0.8; stroke-width: 0.1"/>
     <use xlink:href="#m571d99ba07" x="152.974199" y="114.326361" style="fill: #4c72b0; fill-opacity: 0.8; stroke: #000000; stroke-opacity: 0.8; stroke-width: 0.1"/>
     <use xlink:href="#m571d99ba07" x="144.441182" y="150.28236" style="fill: #4c72b0; fill-opacity: 0.8; stroke: #000000; stroke-opacity: 0.8; stroke-width: 0.1"/>
     <use xlink:href="#m571d99ba07" x="186.237719" y="161.873291" style="fill: #4c72b0; fill-opacity: 0.8; stroke: #000000; stroke-opacity: 0.8; stroke-width: 0.1"/>
     <use xlink:href="#m571d99ba07" x="180.87913" y="169.92823" style="fill: #4c72b0; fill-opacity: 0.8; stroke: #000000; stroke-opacity: 0.8; stroke-width: 0.1"/>
     <use xlink:href="#m571d99ba07" x="163.868516" y="169.331984" style="fill: #4c72b0; fill-opacity: 0.8; stroke: #000000; stroke-opacity: 0.8; stroke-width: 0.1"/>
     <use xlink:href="#m571d99ba07" x="38.633013" y="36.48116" style="fill: #4c72b0; fill-opacity: 0.8; stroke: #000000; stroke-opacity: 0.8; stroke-width: 0.1"/>
     <use xlink:href="#m571d99ba07" x="104.774835" y="89.187362" style="fill: #4c72b0; fill-opacity: 0.8; stroke: #000000; stroke-opacity: 0.8; stroke-width: 0.1"/>
     <use xlink:href="#m571d99ba07" x="53.22285" y="53.317835" style="fill: #4c72b0; fill-opacity: 0.8; stroke: #000000; stroke-opacity: 0.8; stroke-width: 0.1"/>
     <use xlink:href="#m571d99ba07" x="96.193337" y="136.865544" style="fill: #4c72b0; fill-opacity: 0.8; stroke: #000000; stroke-opacity: 0.8; stroke-width: 0.1"/>
     <use xlink:href="#m571d99ba07" x="40.753921" y="36.274148" style="fill: #4c72b0; fill-opacity: 0.8; stroke: #000000; stroke-opacity: 0.8; stroke-width: 0.1"/>
     <use xlink:href="#m571d99ba07" x="78.480561" y="111.352413" style="fill: #4c72b0; fill-opacity: 0.8; stroke: #000000; stroke-opacity: 0.8; stroke-width: 0.1"/>
     <use xlink:href="#m571d99ba07" x="38.920903" y="43.543928" style="fill: #4c72b0; fill-opacity: 0.8; stroke: #000000; stroke-opacity: 0.8; stroke-width: 0.1"/>
     <use xlink:href="#m571d99ba07" x="92.065915" y="67.037433" style="fill: #4c72b0; fill-opacity: 0.8; stroke: #000000; stroke-opacity: 0.8; stroke-width: 0.1"/>
     <use xlink:href="#m571d99ba07" x="41.152976" y="37.494895" style="fill: #4c72b0; fill-opacity: 0.8; stroke: #000000; stroke-opacity: 0.8; stroke-width: 0.1"/>
     <use xlink:href="#m571d99ba07" x="54.388586" y="89.137878" style="fill: #4c72b0; fill-opacity: 0.8; stroke: #000000; stroke-opacity: 0.8; stroke-width: 0.1"/>
     <use xlink:href="#m571d99ba07" x="36.224182" y="36.581934" style="fill: #4c72b0; fill-opacity: 0.8; stroke: #000000; stroke-opacity: 0.8; stroke-width: 0.1"/>
     <use xlink:href="#m571d99ba07" x="71.055863" y="57.069296" style="fill: #4c72b0; fill-opacity: 0.8; stroke: #000000; stroke-opacity: 0.8; stroke-width: 0.1"/>
     <use xlink:href="#m571d99ba07" x="179.019061" y="150.298621" style="fill: #4c72b0; fill-opacity: 0.8; stroke: #000000; stroke-opacity: 0.8; stroke-width: 0.1"/>
     <use xlink:href="#m571d99ba07" x="147.218291" y="157.975995" style="fill: #4c72b0; fill-opacity: 0.8; stroke: #000000; stroke-opacity: 0.8; stroke-width: 0.1"/>
     <use xlink:href="#m571d99ba07" x="169.884925" y="183.040612" style="fill: #4c72b0; fill-opacity: 0.8; stroke: #000000; stroke-opacity: 0.8; stroke-width: 0.1"/>
     <use xlink:href="#m571d99ba07" x="164.88537" y="154.581838" style="fill: #4c72b0; fill-opacity: 0.8; stroke: #000000; stroke-opacity: 0.8; stroke-width: 0.1"/>
     <use xlink:href="#m571d99ba07" x="154.620749" y="142.437564" style="fill: #4c72b0; fill-opacity: 0.8; stroke: #000000; stroke-opacity: 0.8; stroke-width: 0.1"/>
     <use xlink:href="#m571d99ba07" x="73.920251" y="67.443301" style="fill: #4c72b0; fill-opacity: 0.8; stroke: #000000; stroke-opacity: 0.8; stroke-width: 0.1"/>
     <use xlink:href="#m571d99ba07" x="117.584369" y="155.473681" style="fill: #4c72b0; fill-opacity: 0.8; stroke: #000000; stroke-opacity: 0.8; stroke-width: 0.1"/>
     <use xlink:href="#m571d99ba07" x="73.018413" y="66.941038" style="fill: #4c72b0; fill-opacity: 0.8; stroke: #000000; stroke-opacity: 0.8; stroke-width: 0.1"/>
     <use xlink:href="#m571d99ba07" x="124.276572" y="141.443382" style="fill: #4c72b0; fill-opacity: 0.8; stroke: #000000; stroke-opacity: 0.8; stroke-width: 0.1"/>
     <use xlink:href="#m571d99ba07" x="155.139935" y="168.162709" style="fill: #4c72b0; fill-opacity: 0.8; stroke: #000000; stroke-opacity: 0.8; stroke-width: 0.1"/>
     <use xlink:href="#m571d99ba07" x="124.444191" y="131.154245" style="fill: #4c72b0; fill-opacity: 0.8; stroke: #000000; stroke-opacity: 0.8; stroke-width: 0.1"/>
     <use xlink:href="#m571d99ba07" x="156.138782" y="154.533603" style="fill: #4c72b0; fill-opacity: 0.8; stroke: #000000; stroke-opacity: 0.8; stroke-width: 0.1"/>
     <use xlink:href="#m571d99ba07" x="55.218114" y="63.650884" style="fill: #4c72b0; fill-opacity: 0.8; stroke: #000000; stroke-opacity: 0.8; stroke-width: 0.1"/>
     <use xlink:href="#m571d99ba07" x="98.020913" y="116.990115" style="fill: #4c72b0; fill-opacity: 0.8; stroke: #000000; stroke-opacity: 0.8; stroke-width: 0.1"/>
     <use xlink:href="#m571d99ba07" x="146.640263" y="140.183692" style="fill: #4c72b0; fill-opacity: 0.8; stroke: #000000; stroke-opacity: 0.8; stroke-width: 0.1"/>
    </g>
   </g>
   <g id="PolyCollection_1">
    <defs>
     <path id="m7f1b6c8f1e" d="M 36.224182 -191.0376 
L 36.224182 -174.343716 
L 37.833107 -173.16236 
L 39.442033 -171.989439 
L 41.050959 -170.816517 
L 42.659884 -169.613704 
L 44.26881 -168.261044 
L 45.877736 -166.911401 
L 47.486661 -165.562072 
L 49.095587 -164.34828 
L 50.704512 -163.100794 
L 52.313438 -161.766658 
L 53.922364 -160.48472 
L 55.531289 -159.228511 
L 57.140215 -157.906318 
L 58.74914 -156.634193 
L 60.358066 -155.388944 
L 61.966992 -154.144034 
L 63.575917 -152.901566 
L 65.184843 -151.659632 
L 66.793769 -150.325498 
L 68.402694 -149.037721 
L 70.01162 -147.681453 
L 71.620545 -146.330312 
L 73.229471 -145.116608 
L 74.838397 -143.917879 
L 76.447322 -142.591256 
L 78.056248 -141.229122 
L 79.665174 -139.866987 
L 81.274099 -138.510329 
L 82.883025 -137.150206 
L 84.49195 -135.781455 
L 86.100876 -134.34293 
L 87.709802 -133.048797 
L 89.318727 -131.70123 
L 90.927653 -130.339913 
L 92.536579 -129.018052 
L 94.145504 -127.703553 
L 95.75443 -126.294365 
L 97.363355 -124.949373 
L 98.972281 -123.58161 
L 100.581207 -122.211165 
L 102.190132 -120.916255 
L 103.799058 -119.487733 
L 105.407983 -118.076683 
L 107.016909 -116.737044 
L 108.625835 -115.32931 
L 110.23476 -113.805682 
L 111.843686 -112.395528 
L 113.452612 -110.883521 
L 115.061537 -109.446176 
L 116.670463 -107.89859 
L 118.279388 -106.394742 
L 119.888314 -105.024928 
L 121.49724 -103.431196 
L 123.106165 -101.948687 
L 124.715091 -100.466952 
L 126.324017 -98.98275 
L 127.932942 -97.484138 
L 129.541868 -95.946783 
L 131.150793 -94.40612 
L 132.759719 -92.943865 
L 134.368645 -91.347575 
L 135.97757 -89.790504 
L 137.586496 -88.250125 
L 139.195421 -86.679495 
L 140.804347 -85.123815 
L 142.413273 -83.633337 
L 144.022198 -82.040796 
L 145.631124 -80.458135 
L 147.24005 -78.921615 
L 148.848975 -77.393447 
L 150.457901 -75.847506 
L 152.066826 -74.309805 
L 153.675752 -72.772104 
L 155.284678 -71.235645 
L 156.893603 -69.716103 
L 158.502529 -68.161409 
L 160.111455 -66.653306 
L 161.72038 -65.115777 
L 163.329306 -63.615543 
L 164.938231 -62.089306 
L 166.547157 -60.544622 
L 168.156083 -58.99838 
L 169.765008 -57.452138 
L 171.373934 -55.905896 
L 172.98286 -54.359654 
L 174.591785 -52.813412 
L 176.200711 -51.26717 
L 177.809636 -49.720927 
L 179.418562 -48.181572 
L 181.027488 -46.644322 
L 182.636413 -45.107442 
L 184.245339 -43.569902 
L 185.854264 -42.032575 
L 187.46319 -40.495326 
L 189.072116 -38.958077 
L 190.681041 -37.404609 
L 192.289967 -35.825852 
L 193.898893 -34.303594 
L 195.507818 -32.7816 
L 195.507818 -58.822466 
L 195.507818 -58.822466 
L 193.898893 -60.093627 
L 192.289967 -61.364787 
L 190.681041 -62.635267 
L 189.072116 -63.863551 
L 187.46319 -65.073597 
L 185.854264 -66.283235 
L 184.245339 -67.492873 
L 182.636413 -68.71719 
L 181.027488 -70.022776 
L 179.418562 -71.260872 
L 177.809636 -72.463319 
L 176.200711 -73.664621 
L 174.591785 -74.920485 
L 172.98286 -76.189128 
L 171.373934 -77.405095 
L 169.765008 -78.638182 
L 168.156083 -79.901888 
L 166.547157 -81.164366 
L 164.938231 -82.426689 
L 163.329306 -83.65661 
L 161.72038 -84.935612 
L 160.111455 -86.217806 
L 158.502529 -87.481483 
L 156.893603 -88.744458 
L 155.284678 -90.007434 
L 153.675752 -91.250929 
L 152.066826 -92.454159 
L 150.457901 -93.637491 
L 148.848975 -94.822402 
L 147.24005 -96.070244 
L 145.631124 -97.333725 
L 144.022198 -98.660133 
L 142.413273 -99.946927 
L 140.804347 -101.220174 
L 139.195421 -102.518116 
L 137.586496 -103.82595 
L 135.97757 -105.088781 
L 134.368645 -106.318148 
L 132.759719 -107.529317 
L 131.150793 -108.802507 
L 129.541868 -110.073521 
L 127.932942 -111.352401 
L 126.324017 -112.594629 
L 124.715091 -113.858656 
L 123.106165 -115.188961 
L 121.49724 -116.492319 
L 119.888314 -117.767446 
L 118.279388 -119.001163 
L 116.670463 -120.275531 
L 115.061537 -121.549899 
L 113.452612 -122.824267 
L 111.843686 -124.113239 
L 110.23476 -125.444407 
L 108.625835 -126.775163 
L 107.016909 -128.026628 
L 105.407983 -129.437502 
L 103.799058 -130.797489 
L 102.190132 -132.130272 
L 100.581207 -133.442348 
L 98.972281 -134.890393 
L 97.363355 -136.257159 
L 95.75443 -137.462572 
L 94.145504 -138.842471 
L 92.536579 -140.166877 
L 90.927653 -141.580463 
L 89.318727 -143.006211 
L 87.709802 -144.425722 
L 86.100876 -145.84529 
L 84.49195 -147.2651 
L 82.883025 -148.662085 
L 81.274099 -150.056279 
L 79.665174 -151.472297 
L 78.056248 -152.842196 
L 76.447322 -154.277463 
L 74.838397 -155.667297 
L 73.229471 -156.951892 
L 71.620545 -158.48162 
L 70.01162 -159.866605 
L 68.402694 -161.284316 
L 66.793769 -162.692663 
L 65.184843 -164.087145 
L 63.575917 -165.560547 
L 61.966992 -167.043873 
L 60.358066 -168.475886 
L 58.74914 -169.945757 
L 57.140215 -171.430422 
L 55.531289 -172.926706 
L 53.922364 -174.348041 
L 52.313438 -175.775674 
L 50.704512 -177.291171 
L 49.095587 -178.841177 
L 47.486661 -180.34142 
L 45.877736 -181.89583 
L 44.26881 -183.393493 
L 42.659884 -184.918167 
L 41.050959 -186.449238 
L 39.442033 -187.983837 
L 37.833107 -189.523265 
L 36.224182 -191.0376 
z
" style="stroke: #ffffff; stroke-opacity: 0.15; stroke-width: 0.8"/>
    </defs>
    <g clip-path="url(#p574135b923)">
     <use xlink:href="#m7f1b6c8f1e" x="0" y="226.08" style="fill: #4c72b0; fill-opacity: 0.15; stroke: #ffffff; stroke-opacity: 0.15; stroke-width: 0.8"/>
    </g>
   </g>
   <g id="line2d_13">
    <path d="M 36.224182 42.435135 
L 37.833107 43.821438 
L 39.442033 45.20774 
L 41.050959 46.594042 
L 42.659884 47.980345 
L 44.26881 49.366647 
L 45.877736 50.752949 
L 47.486661 52.139252 
L 49.095587 53.525554 
L 50.704512 54.911856 
L 52.313438 56.298159 
L 53.922364 57.684461 
L 55.531289 59.070763 
L 57.140215 60.457066 
L 58.74914 61.843368 
L 60.358066 63.22967 
L 61.966992 64.615973 
L 63.575917 66.002275 
L 65.184843 67.388577 
L 66.793769 68.77488 
L 68.402694 70.161182 
L 70.01162 71.547485 
L 71.620545 72.933787 
L 73.229471 74.320089 
L 74.838397 75.706392 
L 76.447322 77.092694 
L 78.056248 78.478996 
L 79.665174 79.865299 
L 81.274099 81.251601 
L 82.883025 82.637903 
L 84.49195 84.024206 
L 86.100876 85.410508 
L 87.709802 86.79681 
L 89.318727 88.183113 
L 90.927653 89.569415 
L 92.536579 90.955717 
L 94.145504 92.34202 
L 95.75443 93.728322 
L 97.363355 95.114624 
L 98.972281 96.500927 
L 100.581207 97.887229 
L 102.190132 99.273531 
L 103.799058 100.659834 
L 105.407983 102.046136 
L 107.016909 103.432438 
L 108.625835 104.818741 
L 110.23476 106.205043 
L 111.843686 107.591345 
L 113.452612 108.977648 
L 115.061537 110.36395 
L 116.670463 111.750252 
L 118.279388 113.136555 
L 119.888314 114.522857 
L 121.49724 115.909159 
L 123.106165 117.295462 
L 124.715091 118.681764 
L 126.324017 120.068066 
L 127.932942 121.454369 
L 129.541868 122.840671 
L 131.150793 124.226973 
L 132.759719 125.613276 
L 134.368645 126.999578 
L 135.97757 128.38588 
L 137.586496 129.772183 
L 139.195421 131.158485 
L 140.804347 132.544787 
L 142.413273 133.93109 
L 144.022198 135.317392 
L 145.631124 136.703694 
L 147.24005 138.089997 
L 148.848975 139.476299 
L 150.457901 140.862601 
L 152.066826 142.248904 
L 153.675752 143.635206 
L 155.284678 145.021508 
L 156.893603 146.407811 
L 158.502529 147.794113 
L 160.111455 149.180415 
L 161.72038 150.566718 
L 163.329306 151.95302 
L 164.938231 153.339322 
L 166.547157 154.725625 
L 168.156083 156.111927 
L 169.765008 157.498229 
L 171.373934 158.884532 
L 172.98286 160.270834 
L 174.591785 161.657136 
L 176.200711 163.043439 
L 177.809636 164.429741 
L 179.418562 165.816043 
L 181.027488 167.202346 
L 182.636413 168.588648 
L 184.245339 169.97495 
L 185.854264 171.361253 
L 187.46319 172.747555 
L 189.072116 174.133857 
L 190.681041 175.52016 
L 192.289967 176.906462 
L 193.898893 178.292764 
L 195.507818 179.679067 
" clip-path="url(#p574135b923)" style="fill: none; stroke: #4c72b0; stroke-width: 1.8; stroke-linecap: round"/>
   </g>
   <g id="patch_3">
    <path d="M 28.26 201.2112 
L 28.26 27.1296 
" style="fill: none; stroke: #262626; stroke-linejoin: miter; stroke-linecap: square"/>
   </g>
   <g id="patch_4">
    <path d="M 203.472 201.2112 
L 203.472 27.1296 
" style="fill: none; stroke: #262626; stroke-linejoin: miter; stroke-linecap: square"/>
   </g>
   <g id="patch_5">
    <path d="M 28.26 201.2112 
L 203.472 201.2112 
" style="fill: none; stroke: #262626; stroke-linejoin: miter; stroke-linecap: square"/>
   </g>
   <g id="patch_6">
    <path d="M 28.26 27.1296 
L 203.472 27.1296 
" style="fill: none; stroke: #262626; stroke-linejoin: miter; stroke-linecap: square"/>
   </g>
   <g id="text_15">
    <g id="patch_7">
     <path d="M 53.009244 171.740549 
L 172.056119 171.740549 
L 172.056119 154.062424 
L 53.009244 154.062424 
z
" style="fill: #ffffff; opacity: 0.5; stroke: #ffffff; stroke-width: 0.8; stroke-linejoin: miter"/>
    </g>
    <text style="fill: #262626; font: 700 10px 'Arial', 'DejaVu Sans', 'Liberation Sans', 'Bitstream Vera Sans', sans-serif; text-anchor: start" x="57.009244" y="165.660861" transform="rotate(-0 57.009244 165.660861)">r = -0.82, R2 = 0.68</text>
   </g>
  </g>
 </g>
 <defs>
  <clipPath id="p574135b923">
   <rect x="28.26" y="27.1296" width="175.212" height="174.0816"/>
  </clipPath>
 </defs>
</svg>
