<?xml version="1.0" encoding="utf-8" standalone="no"?>
<!DOCTYPE svg PUBLIC "-//W3C//DTD SVG 1.1//EN"
  "http://www.w3.org/Graphics/SVG/1.1/DTD/svg11.dtd">
<svg xmlns:xlink="http://www.w3.org/1999/xlink" width="226.08pt" height="226.08pt" viewBox="0 0 226.08 226.08" xmlns="http://www.w3.org/2000/svg" version="1.1">
 <metadata>
  <rdf:RDF xmlns:dc="http://purl.org/dc/elements/1.1/" xmlns:cc="http://creativecommons.org/ns#" xmlns:rdf="http://www.w3.org/1999/02/22-rdf-syntax-ns#">
   <cc:Work>
    <dc:type rdf:resource="http://purl.org/dc/dcmitype/StillImage"/>
    <dc:date>2024-08-06T16:20:06.930374</dc:date>
    <dc:format>image/svg+xml</dc:format>
    <dc:creator>
     <cc:Agent>
      <dc:title>Matplotlib v3.7.2, https://matplotlib.org/</dc:title>
     </cc:Agent>
    </dc:creator>
   </cc:Work>
  </rdf:RDF>
 </metadata>
 <defs>
  <style type="text/css">*{stroke-linejoin: round; stroke-linecap: butt}</style>
 </defs>
 <g id="figure_1">
  <g id="patch_1">
   <path d="M 0 226.08 
L 226.08 226.08 
L 226.08 0 
L 0 0 
z
" style="fill: #ffffff"/>
  </g>
  <g id="axes_1">
   <g id="patch_2">
    <path d="M 28.26 201.2112 
L 203.472 201.2112 
L 203.472 27.1296 
L 28.26 27.1296 
z
" style="fill: #ffffff"/>
   </g>
   <g id="matplotlib.axis_1">
    <g id="xtick_1">
     <g id="line2d_1">
      <defs>
       <path id="m887da932ce" d="M 0 0 
L 0 4.8 
" style="stroke: #262626"/>
      </defs>
      <g>
       <use xlink:href="#m887da932ce" x="33.189301" y="201.2112" style="fill: #262626; stroke: #262626"/>
      </g>
     </g>
     <g id="text_1">
      <text style="fill: #262626; font: 8.8px 'Arial', 'DejaVu Sans', 'Liberation Sans', 'Bitstream Vera Sans', sans-serif; text-anchor: middle" x="33.189301" y="216.197825" transform="rotate(-0 33.189301 216.197825)">−0.4</text>
     </g>
    </g>
    <g id="xtick_2">
     <g id="line2d_2">
      <g>
       <use xlink:href="#m887da932ce" x="78.84599" y="201.2112" style="fill: #262626; stroke: #262626"/>
      </g>
     </g>
     <g id="text_2">
      <text style="fill: #262626; font: 8.8px 'Arial', 'DejaVu Sans', 'Liberation Sans', 'Bitstream Vera Sans', sans-serif; text-anchor: middle" x="78.84599" y="216.197825" transform="rotate(-0 78.84599 216.197825)">−0.2</text>
     </g>
    </g>
    <g id="xtick_3">
     <g id="line2d_3">
      <g>
       <use xlink:href="#m887da932ce" x="124.50268" y="201.2112" style="fill: #262626; stroke: #262626"/>
      </g>
     </g>
     <g id="text_3">
      <text style="fill: #262626; font: 8.8px 'Arial', 'DejaVu Sans', 'Liberation Sans', 'Bitstream Vera Sans', sans-serif; text-anchor: middle" x="124.50268" y="216.197825" transform="rotate(-0 124.50268 216.197825)">0.0</text>
     </g>
    </g>
    <g id="xtick_4">
     <g id="line2d_4">
      <g>
       <use xlink:href="#m887da932ce" x="170.159369" y="201.2112" style="fill: #262626; stroke: #262626"/>
      </g>
     </g>
     <g id="text_4">
      <text style="fill: #262626; font: 8.8px 'Arial', 'DejaVu Sans', 'Liberation Sans', 'Bitstream Vera Sans', sans-serif; text-anchor: middle" x="170.159369" y="216.197825" transform="rotate(-0 170.159369 216.197825)">0.2</text>
     </g>
    </g>
    <g id="text_5">
     <!-- $r_{Energy,Attributions}(Ag_i, Ag_j)$ -->
     <g style="fill: #262626" transform="translate(59.514 229.32395)">
      <text>
       <tspan style="font: oblique 9.6px 'DejaVu Sans'" x="0 74.391083 80.953995 94.090764 100.653676" y="-0.71875">rAgAg</tspan>
       <tspan style="font: oblique 6.72px 'DejaVu Sans'" x="3.944305 8.187479 12.443768 16.575452 19.336465 23.599313 31.016669 35.610707 38.243835 40.876964 43.637978 45.503793 49.766641 54.022931 56.656059 58.521875 62.630605 66.886894 87.043777 106.743459" y="0.8562499999999993">EnergyAttributionsij</tspan>
       <tspan style="font: 6.72px 'DejaVu Sans'" x="27.573599" y="0.8562499999999993">,</tspan>
       <tspan style="font: 9.6px 'DejaVu Sans'" x="70.648209 89.172093 108.871774" y="-0.71875">(,)</tspan>
      </text>
     </g>
    </g>
   </g>
   <g id="matplotlib.axis_2">
    <g id="ytick_1">
     <g id="line2d_5">
      <defs>
       <path id="m944781920e" d="M 0 0 
L -4.8 0 
" style="stroke: #262626"/>
      </defs>
      <g>
       <use xlink:href="#m944781920e" x="28.26" y="188.00186" style="fill: #262626; stroke: #262626"/>
      </g>
     </g>
     <g id="text_6">
      <text style="fill: #262626; font: 8.8px 'Arial', 'DejaVu Sans', 'Liberation Sans', 'Bitstream Vera Sans', sans-serif; text-anchor: end" x="19.96" y="191.345172" transform="rotate(-0 19.96 191.345172)">−0.3</text>
     </g>
    </g>
    <g id="ytick_2">
     <g id="line2d_6">
      <g>
       <use xlink:href="#m944781920e" x="28.26" y="157.610254" style="fill: #262626; stroke: #262626"/>
      </g>
     </g>
     <g id="text_7">
      <text style="fill: #262626; font: 8.8px 'Arial', 'DejaVu Sans', 'Liberation Sans', 'Bitstream Vera Sans', sans-serif; text-anchor: end" x="19.96" y="160.953566" transform="rotate(-0 19.96 160.953566)">−0.2</text>
     </g>
    </g>
    <g id="ytick_3">
     <g id="line2d_7">
      <g>
       <use xlink:href="#m944781920e" x="28.26" y="127.218648" style="fill: #262626; stroke: #262626"/>
      </g>
     </g>
     <g id="text_8">
      <text style="fill: #262626; font: 8.8px 'Arial', 'DejaVu Sans', 'Liberation Sans', 'Bitstream Vera Sans', sans-serif; text-anchor: end" x="19.96" y="130.56196" transform="rotate(-0 19.96 130.56196)">−0.1</text>
     </g>
    </g>
    <g id="ytick_4">
     <g id="line2d_8">
      <g>
       <use xlink:href="#m944781920e" x="28.26" y="96.827041" style="fill: #262626; stroke: #262626"/>
      </g>
     </g>
     <g id="text_9">
      <text style="fill: #262626; font: 8.8px 'Arial', 'DejaVu Sans', 'Liberation Sans', 'Bitstream Vera Sans', sans-serif; text-anchor: end" x="19.96" y="100.170354" transform="rotate(-0 19.96 100.170354)">0.0</text>
     </g>
    </g>
    <g id="ytick_5">
     <g id="line2d_9">
      <g>
       <use xlink:href="#m944781920e" x="28.26" y="66.435435" style="fill: #262626; stroke: #262626"/>
      </g>
     </g>
     <g id="text_10">
      <text style="fill: #262626; font: 8.8px 'Arial', 'DejaVu Sans', 'Liberation Sans', 'Bitstream Vera Sans', sans-serif; text-anchor: end" x="19.96" y="69.778748" transform="rotate(-0 19.96 69.778748)">0.1</text>
     </g>
    </g>
    <g id="ytick_6">
     <g id="line2d_10">
      <g>
       <use xlink:href="#m944781920e" x="28.26" y="36.043829" style="fill: #262626; stroke: #262626"/>
      </g>
     </g>
     <g id="text_11">
      <text style="fill: #262626; font: 8.8px 'Arial', 'DejaVu Sans', 'Liberation Sans', 'Bitstream Vera Sans', sans-serif; text-anchor: end" x="19.96" y="39.387142" transform="rotate(-0 19.96 39.387142)">0.2</text>
     </g>
    </g>
    <g id="text_12">
     <!-- $r_{Energy,Attributions}(Ag_j, Ag_i)$ -->
     <g style="fill: #262626" transform="translate(-8.384875 170.5224) rotate(-90)">
      <text>
       <tspan style="font: oblique 9.6px 'DejaVu Sans'" x="0 74.391083 80.953995 94.090764 100.653676" y="-0.71875">rAgAg</tspan>
       <tspan style="font: oblique 6.72px 'DejaVu Sans'" x="3.944305 8.187479 12.443768 16.575452 19.336465 23.599313 31.016669 35.610707 38.243835 40.876964 43.637978 45.503793 49.766641 54.022931 56.656059 58.521875 62.630605 66.886894 87.043777 106.743459" y="0.8562499999999993">EnergyAttributionsji</tspan>
       <tspan style="font: 6.72px 'DejaVu Sans'" x="27.573599" y="0.8562499999999993">,</tspan>
       <tspan style="font: 9.6px 'DejaVu Sans'" x="70.648209 89.172093 108.871774" y="-0.71875">(,)</tspan>
      </text>
     </g>
    </g>
   </g>
   <g id="PathCollection_1">
    <defs>
     <path id="me63ca60f19" d="M 0 2.4 
C 0.636487 2.4 1.246992 2.147121 1.697056 1.697056 
C 2.147121 1.246992 2.4 0.636487 2.4 0 
C 2.4 -0.636487 2.147121 -1.246992 1.697056 -1.697056 
C 1.246992 -2.147121 0.636487 -2.4 0 -2.4 
C -0.636487 -2.4 -1.246992 -2.147121 -1.697056 -1.697056 
C -2.147121 -1.246992 -2.4 -0.636487 -2.4 0 
C -2.4 0.636487 -2.147121 1.246992 -1.697056 1.697056 
C -1.246992 2.147121 -0.636487 2.4 0 2.4 
z
" style="stroke: #000000; stroke-opacity: 0.8; stroke-width: 0.1"/>
    </defs>
    <g clip-path="url(#pf813a9647e)">
     <use xlink:href="#me63ca60f19" x="70.888401" y="43.032174" style="fill: #4c72b0; fill-opacity: 0.8; stroke: #000000; stroke-opacity: 0.8; stroke-width: 0.1"/>
     <use xlink:href="#me63ca60f19" x="104.581091" y="97.970208" style="fill: #4c72b0; fill-opacity: 0.8; stroke: #000000; stroke-opacity: 0.8; stroke-width: 0.1"/>
     <use xlink:href="#me63ca60f19" x="126.986058" y="144.888144" style="fill: #4c72b0; fill-opacity: 0.8; stroke: #000000; stroke-opacity: 0.8; stroke-width: 0.1"/>
     <use xlink:href="#me63ca60f19" x="87.414303" y="107.686413" style="fill: #4c72b0; fill-opacity: 0.8; stroke: #000000; stroke-opacity: 0.8; stroke-width: 0.1"/>
     <use xlink:href="#me63ca60f19" x="73.062632" y="82.101305" style="fill: #4c72b0; fill-opacity: 0.8; stroke: #000000; stroke-opacity: 0.8; stroke-width: 0.1"/>
     <use xlink:href="#me63ca60f19" x="81.935905" y="67.549024" style="fill: #4c72b0; fill-opacity: 0.8; stroke: #000000; stroke-opacity: 0.8; stroke-width: 0.1"/>
     <use xlink:href="#me63ca60f19" x="108.804881" y="63.08968" style="fill: #4c72b0; fill-opacity: 0.8; stroke: #000000; stroke-opacity: 0.8; stroke-width: 0.1"/>
     <use xlink:href="#me63ca60f19" x="86.777007" y="72.378776" style="fill: #4c72b0; fill-opacity: 0.8; stroke: #000000; stroke-opacity: 0.8; stroke-width: 0.1"/>
     <use xlink:href="#me63ca60f19" x="108.946437" y="96.530756" style="fill: #4c72b0; fill-opacity: 0.8; stroke: #000000; stroke-opacity: 0.8; stroke-width: 0.1"/>
     <use xlink:href="#me63ca60f19" x="140.198629" y="182.036949" style="fill: #4c72b0; fill-opacity: 0.8; stroke: #000000; stroke-opacity: 0.8; stroke-width: 0.1"/>
     <use xlink:href="#me63ca60f19" x="195.507818" y="172.559866" style="fill: #4c72b0; fill-opacity: 0.8; stroke: #000000; stroke-opacity: 0.8; stroke-width: 0.1"/>
     <use xlink:href="#me63ca60f19" x="125.401347" y="185.600233" style="fill: #4c72b0; fill-opacity: 0.8; stroke: #000000; stroke-opacity: 0.8; stroke-width: 0.1"/>
     <use xlink:href="#me63ca60f19" x="134.705924" y="163.415919" style="fill: #4c72b0; fill-opacity: 0.8; stroke: #000000; stroke-opacity: 0.8; stroke-width: 0.1"/>
     <use xlink:href="#me63ca60f19" x="141.827699" y="94.164018" style="fill: #4c72b0; fill-opacity: 0.8; stroke: #000000; stroke-opacity: 0.8; stroke-width: 0.1"/>
     <use xlink:href="#me63ca60f19" x="86.846088" y="176.560717" style="fill: #4c72b0; fill-opacity: 0.8; stroke: #000000; stroke-opacity: 0.8; stroke-width: 0.1"/>
     <use xlink:href="#me63ca60f19" x="140.155344" y="80.074677" style="fill: #4c72b0; fill-opacity: 0.8; stroke: #000000; stroke-opacity: 0.8; stroke-width: 0.1"/>
     <use xlink:href="#me63ca60f19" x="160.132697" y="187.888107" style="fill: #4c72b0; fill-opacity: 0.8; stroke: #000000; stroke-opacity: 0.8; stroke-width: 0.1"/>
     <use xlink:href="#me63ca60f19" x="113.2717" y="118.563799" style="fill: #4c72b0; fill-opacity: 0.8; stroke: #000000; stroke-opacity: 0.8; stroke-width: 0.1"/>
     <use xlink:href="#me63ca60f19" x="75.062188" y="35.0424" style="fill: #4c72b0; fill-opacity: 0.8; stroke: #000000; stroke-opacity: 0.8; stroke-width: 0.1"/>
     <use xlink:href="#me63ca60f19" x="157.491268" y="117.332637" style="fill: #4c72b0; fill-opacity: 0.8; stroke: #000000; stroke-opacity: 0.8; stroke-width: 0.1"/>
     <use xlink:href="#me63ca60f19" x="98.551895" y="36.534121" style="fill: #4c72b0; fill-opacity: 0.8; stroke: #000000; stroke-opacity: 0.8; stroke-width: 0.1"/>
     <use xlink:href="#me63ca60f19" x="148.000713" y="120.155745" style="fill: #4c72b0; fill-opacity: 0.8; stroke: #000000; stroke-opacity: 0.8; stroke-width: 0.1"/>
     <use xlink:href="#me63ca60f19" x="66.686764" y="90.262461" style="fill: #4c72b0; fill-opacity: 0.8; stroke: #000000; stroke-opacity: 0.8; stroke-width: 0.1"/>
     <use xlink:href="#me63ca60f19" x="100.157486" y="79.494568" style="fill: #4c72b0; fill-opacity: 0.8; stroke: #000000; stroke-opacity: 0.8; stroke-width: 0.1"/>
     <use xlink:href="#me63ca60f19" x="49.482703" y="56.782704" style="fill: #4c72b0; fill-opacity: 0.8; stroke: #000000; stroke-opacity: 0.8; stroke-width: 0.1"/>
     <use xlink:href="#me63ca60f19" x="60.012661" y="141.396627" style="fill: #4c72b0; fill-opacity: 0.8; stroke: #000000; stroke-opacity: 0.8; stroke-width: 0.1"/>
     <use xlink:href="#me63ca60f19" x="58.03053" y="57.062132" style="fill: #4c72b0; fill-opacity: 0.8; stroke: #000000; stroke-opacity: 0.8; stroke-width: 0.1"/>
     <use xlink:href="#me63ca60f19" x="67.971694" y="121.9542" style="fill: #4c72b0; fill-opacity: 0.8; stroke: #000000; stroke-opacity: 0.8; stroke-width: 0.1"/>
     <use xlink:href="#me63ca60f19" x="36.224182" y="53.558147" style="fill: #4c72b0; fill-opacity: 0.8; stroke: #000000; stroke-opacity: 0.8; stroke-width: 0.1"/>
     <use xlink:href="#me63ca60f19" x="70.942253" y="46.476589" style="fill: #4c72b0; fill-opacity: 0.8; stroke: #000000; stroke-opacity: 0.8; stroke-width: 0.1"/>
     <use xlink:href="#me63ca60f19" x="125.074734" y="136.108726" style="fill: #4c72b0; fill-opacity: 0.8; stroke: #000000; stroke-opacity: 0.8; stroke-width: 0.1"/>
     <use xlink:href="#me63ca60f19" x="114.116348" y="119.175081" style="fill: #4c72b0; fill-opacity: 0.8; stroke: #000000; stroke-opacity: 0.8; stroke-width: 0.1"/>
     <use xlink:href="#me63ca60f19" x="133.023558" y="116.576923" style="fill: #4c72b0; fill-opacity: 0.8; stroke: #000000; stroke-opacity: 0.8; stroke-width: 0.1"/>
     <use xlink:href="#me63ca60f19" x="131.741865" y="95.603611" style="fill: #4c72b0; fill-opacity: 0.8; stroke: #000000; stroke-opacity: 0.8; stroke-width: 0.1"/>
     <use xlink:href="#me63ca60f19" x="111.011452" y="129.337368" style="fill: #4c72b0; fill-opacity: 0.8; stroke: #000000; stroke-opacity: 0.8; stroke-width: 0.1"/>
     <use xlink:href="#me63ca60f19" x="79.273209" y="96.202475" style="fill: #4c72b0; fill-opacity: 0.8; stroke: #000000; stroke-opacity: 0.8; stroke-width: 0.1"/>
     <use xlink:href="#me63ca60f19" x="96.045684" y="131.484839" style="fill: #4c72b0; fill-opacity: 0.8; stroke: #000000; stroke-opacity: 0.8; stroke-width: 0.1"/>
     <use xlink:href="#me63ca60f19" x="54.074636" y="120.88066" style="fill: #4c72b0; fill-opacity: 0.8; stroke: #000000; stroke-opacity: 0.8; stroke-width: 0.1"/>
     <use xlink:href="#me63ca60f19" x="79.82327" y="70.449703" style="fill: #4c72b0; fill-opacity: 0.8; stroke: #000000; stroke-opacity: 0.8; stroke-width: 0.1"/>
     <use xlink:href="#me63ca60f19" x="113.752514" y="133.691437" style="fill: #4c72b0; fill-opacity: 0.8; stroke: #000000; stroke-opacity: 0.8; stroke-width: 0.1"/>
     <use xlink:href="#me63ca60f19" x="117.933745" y="101.793762" style="fill: #4c72b0; fill-opacity: 0.8; stroke: #000000; stroke-opacity: 0.8; stroke-width: 0.1"/>
     <use xlink:href="#me63ca60f19" x="139.907171" y="117.478551" style="fill: #4c72b0; fill-opacity: 0.8; stroke: #000000; stroke-opacity: 0.8; stroke-width: 0.1"/>
     <use xlink:href="#me63ca60f19" x="96.567975" y="146.458434" style="fill: #4c72b0; fill-opacity: 0.8; stroke: #000000; stroke-opacity: 0.8; stroke-width: 0.1"/>
     <use xlink:href="#me63ca60f19" x="62.454863" y="79.895219" style="fill: #4c72b0; fill-opacity: 0.8; stroke: #000000; stroke-opacity: 0.8; stroke-width: 0.1"/>
     <use xlink:href="#me63ca60f19" x="123.970491" y="98.70014" style="fill: #4c72b0; fill-opacity: 0.8; stroke: #000000; stroke-opacity: 0.8; stroke-width: 0.1"/>
    </g>
   </g>
   <g id="PolyCollection_1">
    <defs>
     <path id="m6264c63081" d="M 36.224182 -185.735871 
L 36.224182 -140.465425 
L 37.833107 -139.760627 
L 39.442033 -139.092288 
L 41.050959 -138.342558 
L 42.659884 -137.734843 
L 44.26881 -136.887621 
L 45.877736 -136.109647 
L 47.486661 -135.685268 
L 49.095587 -135.26089 
L 50.704512 -134.840837 
L 52.313438 -134.398266 
L 53.922364 -133.747559 
L 55.531289 -132.933266 
L 57.140215 -132.118973 
L 58.74914 -131.30468 
L 60.358066 -130.6319 
L 61.966992 -130.072852 
L 63.575917 -129.513842 
L 65.184843 -128.954832 
L 66.793769 -128.383424 
L 68.402694 -127.761414 
L 70.01162 -126.985697 
L 71.620545 -126.144962 
L 73.229471 -125.56773 
L 74.838397 -124.808793 
L 76.447322 -124.009239 
L 78.056248 -123.402195 
L 79.665174 -122.484345 
L 81.274099 -121.671096 
L 82.883025 -120.80028 
L 84.49195 -119.855415 
L 86.100876 -119.1571 
L 87.709802 -118.477703 
L 89.318727 -117.320079 
L 90.927653 -116.449439 
L 92.536579 -115.671349 
L 94.145504 -114.733417 
L 95.75443 -114.00441 
L 97.363355 -113.021979 
L 98.972281 -112.066914 
L 100.581207 -110.974614 
L 102.190132 -109.983027 
L 103.799058 -109.050072 
L 105.407983 -107.889973 
L 107.016909 -106.726759 
L 108.625835 -105.900193 
L 110.23476 -105.138332 
L 111.843686 -104.133462 
L 113.452612 -102.997541 
L 115.061537 -101.870615 
L 116.670463 -100.635622 
L 118.279388 -99.382344 
L 119.888314 -97.959 
L 121.49724 -96.62306 
L 123.106165 -95.441563 
L 124.715091 -94.3214 
L 126.324017 -93.201238 
L 127.932942 -92.051148 
L 129.541868 -90.656891 
L 131.150793 -89.383869 
L 132.759719 -88.106538 
L 134.368645 -86.818522 
L 135.97757 -85.533988 
L 137.586496 -84.239578 
L 139.195421 -82.87892 
L 140.804347 -81.678167 
L 142.413273 -80.397084 
L 144.022198 -79.106998 
L 145.631124 -77.822227 
L 147.24005 -76.380935 
L 148.848975 -75.075052 
L 150.457901 -73.805102 
L 152.066826 -72.416444 
L 153.675752 -70.865325 
L 155.284678 -69.468683 
L 156.893603 -67.956903 
L 158.502529 -66.531975 
L 160.111455 -65.235144 
L 161.72038 -63.768429 
L 163.329306 -62.349936 
L 164.938231 -60.863879 
L 166.547157 -59.352542 
L 168.156083 -57.86636 
L 169.765008 -56.51025 
L 171.373934 -55.209369 
L 172.98286 -53.797998 
L 174.591785 -52.292704 
L 176.200711 -50.792239 
L 177.809636 -49.223326 
L 179.418562 -47.654413 
L 181.027488 -46.283393 
L 182.636413 -44.83983 
L 184.245339 -43.350741 
L 185.854264 -41.853944 
L 187.46319 -40.341081 
L 189.072116 -38.828217 
L 190.681041 -37.315354 
L 192.289967 -35.80249 
L 193.898893 -34.289627 
L 195.507818 -32.7816 
L 195.507818 -90.196657 
L 195.507818 -90.196657 
L 193.898893 -90.758019 
L 192.289967 -91.31938 
L 190.681041 -91.880742 
L 189.072116 -92.442104 
L 187.46319 -93.003466 
L 185.854264 -93.562118 
L 184.245339 -94.06584 
L 182.636413 -94.609915 
L 181.027488 -95.07281 
L 179.418562 -95.577005 
L 177.809636 -96.080726 
L 176.200711 -96.740861 
L 174.591785 -97.505752 
L 172.98286 -98.074495 
L 171.373934 -98.638787 
L 169.765008 -99.203074 
L 168.156083 -99.865364 
L 166.547157 -100.64727 
L 164.938231 -101.427045 
L 163.329306 -102.046434 
L 161.72038 -102.608302 
L 160.111455 -103.238916 
L 158.502529 -103.905376 
L 156.893603 -104.482964 
L 155.284678 -105.145319 
L 153.675752 -105.766279 
L 152.066826 -106.383724 
L 150.457901 -107.001088 
L 148.848975 -107.589432 
L 147.24005 -108.138141 
L 145.631124 -108.686113 
L 144.022198 -109.203617 
L 142.413273 -109.703051 
L 140.804347 -110.32976 
L 139.195421 -110.877998 
L 137.586496 -111.421329 
L 135.97757 -112.183109 
L 134.368645 -113.012496 
L 132.759719 -113.764294 
L 131.150793 -114.431754 
L 129.541868 -115.231433 
L 127.932942 -116.168587 
L 126.324017 -117.102116 
L 124.715091 -118.035233 
L 123.106165 -118.69147 
L 121.49724 -119.505702 
L 119.888314 -120.302704 
L 118.279388 -121.131771 
L 116.670463 -121.963518 
L 115.061537 -122.892992 
L 113.452612 -123.846083 
L 111.843686 -124.734662 
L 110.23476 -125.677343 
L 108.625835 -126.63288 
L 107.016909 -127.52272 
L 105.407983 -128.703409 
L 103.799058 -129.827565 
L 102.190132 -131.073989 
L 100.581207 -132.099403 
L 98.972281 -133.157891 
L 97.363355 -134.363233 
L 95.75443 -135.548903 
L 94.145504 -136.680129 
L 92.536579 -137.962337 
L 90.927653 -138.983185 
L 89.318727 -140.110958 
L 87.709802 -141.258833 
L 86.100876 -142.522496 
L 84.49195 -143.819905 
L 82.883025 -145.081451 
L 81.274099 -146.425117 
L 79.665174 -147.726485 
L 78.056248 -149.00209 
L 76.447322 -150.302931 
L 74.838397 -151.634327 
L 73.229471 -152.951903 
L 71.620545 -154.239701 
L 70.01162 -155.540505 
L 68.402694 -156.770462 
L 66.793769 -157.951595 
L 65.184843 -159.368292 
L 63.575917 -160.75157 
L 61.966992 -162.106816 
L 60.358066 -163.523502 
L 58.74914 -165.104943 
L 57.140215 -166.42465 
L 55.531289 -167.923487 
L 53.922364 -169.245326 
L 52.313438 -170.774342 
L 50.704512 -172.303358 
L 49.095587 -173.832374 
L 47.486661 -175.361391 
L 45.877736 -176.865569 
L 44.26881 -178.266964 
L 42.659884 -179.667574 
L 41.050959 -181.140209 
L 39.442033 -182.667214 
L 37.833107 -184.200632 
L 36.224182 -185.735871 
z
" style="stroke: #ffffff; stroke-opacity: 0.15; stroke-width: 0.8"/>
    </defs>
    <g clip-path="url(#pf813a9647e)">
     <use xlink:href="#m6264c63081" x="0" y="226.08" style="fill: #4c72b0; fill-opacity: 0.15; stroke: #ffffff; stroke-opacity: 0.15; stroke-width: 0.8"/>
    </g>
   </g>
   <g id="line2d_11">
    <path d="M 36.224182 61.818109 
L 37.833107 62.884168 
L 39.442033 63.950227 
L 41.050959 65.016286 
L 42.659884 66.082345 
L 44.26881 67.148404 
L 45.877736 68.214462 
L 47.486661 69.280521 
L 49.095587 70.34658 
L 50.704512 71.412639 
L 52.313438 72.478698 
L 53.922364 73.544757 
L 55.531289 74.610816 
L 57.140215 75.676874 
L 58.74914 76.742933 
L 60.358066 77.808992 
L 61.966992 78.875051 
L 63.575917 79.94111 
L 65.184843 81.007169 
L 66.793769 82.073227 
L 68.402694 83.139286 
L 70.01162 84.205345 
L 71.620545 85.271404 
L 73.229471 86.337463 
L 74.838397 87.403522 
L 76.447322 88.469581 
L 78.056248 89.535639 
L 79.665174 90.601698 
L 81.274099 91.667757 
L 82.883025 92.733816 
L 84.49195 93.799875 
L 86.100876 94.865934 
L 87.709802 95.931992 
L 89.318727 96.998051 
L 90.927653 98.06411 
L 92.536579 99.130169 
L 94.145504 100.196228 
L 95.75443 101.262287 
L 97.363355 102.328346 
L 98.972281 103.394404 
L 100.581207 104.460463 
L 102.190132 105.526522 
L 103.799058 106.592581 
L 105.407983 107.65864 
L 107.016909 108.724699 
L 108.625835 109.790757 
L 110.23476 110.856816 
L 111.843686 111.922875 
L 113.452612 112.988934 
L 115.061537 114.054993 
L 116.670463 115.121052 
L 118.279388 116.187111 
L 119.888314 117.253169 
L 121.49724 118.319228 
L 123.106165 119.385287 
L 124.715091 120.451346 
L 126.324017 121.517405 
L 127.932942 122.583464 
L 129.541868 123.649522 
L 131.150793 124.715581 
L 132.759719 125.78164 
L 134.368645 126.847699 
L 135.97757 127.913758 
L 137.586496 128.979817 
L 139.195421 130.045876 
L 140.804347 131.111934 
L 142.413273 132.177993 
L 144.022198 133.244052 
L 145.631124 134.310111 
L 147.24005 135.37617 
L 148.848975 136.442229 
L 150.457901 137.508287 
L 152.066826 138.574346 
L 153.675752 139.640405 
L 155.284678 140.706464 
L 156.893603 141.772523 
L 158.502529 142.838582 
L 160.111455 143.904641 
L 161.72038 144.970699 
L 163.329306 146.036758 
L 164.938231 147.102817 
L 166.547157 148.168876 
L 168.156083 149.234935 
L 169.765008 150.300994 
L 171.373934 151.367052 
L 172.98286 152.433111 
L 174.591785 153.49917 
L 176.200711 154.565229 
L 177.809636 155.631288 
L 179.418562 156.697347 
L 181.027488 157.763406 
L 182.636413 158.829464 
L 184.245339 159.895523 
L 185.854264 160.961582 
L 187.46319 162.027641 
L 189.072116 163.0937 
L 190.681041 164.159759 
L 192.289967 165.225817 
L 193.898893 166.291876 
L 195.507818 167.357935 
" clip-path="url(#pf813a9647e)" style="fill: none; stroke: #4c72b0; stroke-width: 1.8; stroke-linecap: round"/>
   </g>
   <g id="patch_3">
    <path d="M 28.26 201.2112 
L 28.26 27.1296 
" style="fill: none; stroke: #262626; stroke-linejoin: miter; stroke-linecap: square"/>
   </g>
   <g id="patch_4">
    <path d="M 203.472 201.2112 
L 203.472 27.1296 
" style="fill: none; stroke: #262626; stroke-linejoin: miter; stroke-linecap: square"/>
   </g>
   <g id="patch_5">
    <path d="M 28.26 201.2112 
L 203.472 201.2112 
" style="fill: none; stroke: #262626; stroke-linejoin: miter; stroke-linecap: square"/>
   </g>
   <g id="patch_6">
    <path d="M 28.26 27.1296 
L 203.472 27.1296 
" style="fill: none; stroke: #262626; stroke-linejoin: miter; stroke-linecap: square"/>
   </g>
   <g id="text_13">
    <g id="patch_7">
     <path d="M -16.467389 254.86476 
L 102.579486 254.86476 
L 102.579486 237.186635 
L -16.467389 237.186635 
z
" style="fill: #ffffff; opacity: 0.5; stroke: #ffffff; stroke-width: 0.8; stroke-linejoin: miter"/>
    </g>
    <text style="fill: #262626; font: 700 10px 'Arial', 'DejaVu Sans', 'Liberation Sans', 'Bitstream Vera Sans', sans-serif; text-anchor: start" x="-12.467389" y="248.785072" transform="rotate(-0 -12.467389 248.785072)">r = -0.16, R2 = 0.02</text>
   </g>
  </g>
 </g>
 <defs>
  <clipPath id="pf813a9647e">
   <rect x="28.26" y="27.1296" width="175.212" height="174.0816"/>
  </clipPath>
 </defs>
</svg>
