<?xml version="1.0" encoding="utf-8" standalone="no"?>
<!DOCTYPE svg PUBLIC "-//W3C//DTD SVG 1.1//EN"
  "http://www.w3.org/Graphics/SVG/1.1/DTD/svg11.dtd">
<svg xmlns:xlink="http://www.w3.org/1999/xlink" width="226.08pt" height="226.08pt" viewBox="0 0 226.08 226.08" xmlns="http://www.w3.org/2000/svg" version="1.1">
 <metadata>
  <rdf:RDF xmlns:dc="http://purl.org/dc/elements/1.1/" xmlns:cc="http://creativecommons.org/ns#" xmlns:rdf="http://www.w3.org/1999/02/22-rdf-syntax-ns#">
   <cc:Work>
    <dc:type rdf:resource="http://purl.org/dc/dcmitype/StillImage"/>
    <dc:date>2024-08-12T13:10:04.940708</dc:date>
    <dc:format>image/svg+xml</dc:format>
    <dc:creator>
     <cc:Agent>
      <dc:title>Matplotlib v3.7.2, https://matplotlib.org/</dc:title>
     </cc:Agent>
    </dc:creator>
   </cc:Work>
  </rdf:RDF>
 </metadata>
 <defs>
  <style type="text/css">*{stroke-linejoin: round; stroke-linecap: butt}</style>
 </defs>
 <g id="figure_1">
  <g id="patch_1">
   <path d="M 0 226.08 
L 226.08 226.08 
L 226.08 0 
L 0 0 
z
" style="fill: #ffffff"/>
  </g>
  <g id="axes_1">
   <g id="patch_2">
    <path d="M 28.26 201.2112 
L 203.472 201.2112 
L 203.472 27.1296 
L 28.26 27.1296 
z
" style="fill: #ffffff"/>
   </g>
   <g id="matplotlib.axis_1">
    <g id="xtick_1">
     <g id="line2d_1">
      <defs>
       <path id="m88e0c47672" d="M 0 0 
L 0 4.8 
" style="stroke: #262626"/>
      </defs>
      <g>
       <use xlink:href="#m88e0c47672" x="67.059966" y="201.2112" style="fill: #262626; stroke: #262626"/>
      </g>
     </g>
     <g id="text_1">
      <text style="fill: #262626; font: 8.8px 'Arial', 'DejaVu Sans', 'Liberation Sans', 'Bitstream Vera Sans', sans-serif; text-anchor: middle" x="67.059966" y="216.197825" transform="rotate(-0 67.059966 216.197825)">−0.5</text>
     </g>
    </g>
    <g id="xtick_2">
     <g id="line2d_2">
      <g>
       <use xlink:href="#m88e0c47672" x="117.313577" y="201.2112" style="fill: #262626; stroke: #262626"/>
      </g>
     </g>
     <g id="text_2">
      <text style="fill: #262626; font: 8.8px 'Arial', 'DejaVu Sans', 'Liberation Sans', 'Bitstream Vera Sans', sans-serif; text-anchor: middle" x="117.313577" y="216.197825" transform="rotate(-0 117.313577 216.197825)">0.0</text>
     </g>
    </g>
    <g id="xtick_3">
     <g id="line2d_3">
      <g>
       <use xlink:href="#m88e0c47672" x="167.567188" y="201.2112" style="fill: #262626; stroke: #262626"/>
      </g>
     </g>
     <g id="text_3">
      <text style="fill: #262626; font: 8.8px 'Arial', 'DejaVu Sans', 'Liberation Sans', 'Bitstream Vera Sans', sans-serif; text-anchor: middle" x="167.567188" y="216.197825" transform="rotate(-0 167.567188 216.197825)">0.5</text>
     </g>
    </g>
    <g id="text_4">
     <!-- $r_{Energy,Attributions}(Ag_i, Ag_j)$ -->
     <g style="fill: #262626" transform="translate(59.514 229.32395)">
      <text>
       <tspan style="font: oblique 9.6px 'DejaVu Sans'" x="0 74.391083 80.953995 94.090764 100.653676" y="-0.71875">rAgAg</tspan>
       <tspan style="font: oblique 6.72px 'DejaVu Sans'" x="3.944305 8.187479 12.443768 16.575452 19.336465 23.599313 31.016669 35.610707 38.243835 40.876964 43.637978 45.503793 49.766641 54.022931 56.656059 58.521875 62.630605 66.886894 87.043777 106.743459" y="0.8562499999999993">EnergyAttributionsij</tspan>
       <tspan style="font: 6.72px 'DejaVu Sans'" x="27.573599" y="0.8562499999999993">,</tspan>
       <tspan style="font: 9.6px 'DejaVu Sans'" x="70.648209 89.172093 108.871774" y="-0.71875">(,)</tspan>
      </text>
     </g>
    </g>
   </g>
   <g id="matplotlib.axis_2">
    <g id="ytick_1">
     <g id="line2d_4">
      <defs>
       <path id="m0215014bf9" d="M 0 0 
L -4.8 0 
" style="stroke: #262626"/>
      </defs>
      <g>
       <use xlink:href="#m0215014bf9" x="28.26" y="196.511307" style="fill: #262626; stroke: #262626"/>
      </g>
     </g>
     <g id="text_5">
      <text style="fill: #262626; font: 8.8px 'Arial', 'DejaVu Sans', 'Liberation Sans', 'Bitstream Vera Sans', sans-serif; text-anchor: end" x="19.96" y="199.85462" transform="rotate(-0 19.96 199.85462)">−0.8</text>
     </g>
    </g>
    <g id="ytick_2">
     <g id="line2d_5">
      <g>
       <use xlink:href="#m0215014bf9" x="28.26" y="176.370554" style="fill: #262626; stroke: #262626"/>
      </g>
     </g>
     <g id="text_6">
      <text style="fill: #262626; font: 8.8px 'Arial', 'DejaVu Sans', 'Liberation Sans', 'Bitstream Vera Sans', sans-serif; text-anchor: end" x="19.96" y="179.713867" transform="rotate(-0 19.96 179.713867)">−0.6</text>
     </g>
    </g>
    <g id="ytick_3">
     <g id="line2d_6">
      <g>
       <use xlink:href="#m0215014bf9" x="28.26" y="156.229801" style="fill: #262626; stroke: #262626"/>
      </g>
     </g>
     <g id="text_7">
      <text style="fill: #262626; font: 8.8px 'Arial', 'DejaVu Sans', 'Liberation Sans', 'Bitstream Vera Sans', sans-serif; text-anchor: end" x="19.96" y="159.573113" transform="rotate(-0 19.96 159.573113)">−0.4</text>
     </g>
    </g>
    <g id="ytick_4">
     <g id="line2d_7">
      <g>
       <use xlink:href="#m0215014bf9" x="28.26" y="136.089048" style="fill: #262626; stroke: #262626"/>
      </g>
     </g>
     <g id="text_8">
      <text style="fill: #262626; font: 8.8px 'Arial', 'DejaVu Sans', 'Liberation Sans', 'Bitstream Vera Sans', sans-serif; text-anchor: end" x="19.96" y="139.43236" transform="rotate(-0 19.96 139.43236)">−0.2</text>
     </g>
    </g>
    <g id="ytick_5">
     <g id="line2d_8">
      <g>
       <use xlink:href="#m0215014bf9" x="28.26" y="115.948294" style="fill: #262626; stroke: #262626"/>
      </g>
     </g>
     <g id="text_9">
      <text style="fill: #262626; font: 8.8px 'Arial', 'DejaVu Sans', 'Liberation Sans', 'Bitstream Vera Sans', sans-serif; text-anchor: end" x="19.96" y="119.291607" transform="rotate(-0 19.96 119.291607)">0.0</text>
     </g>
    </g>
    <g id="ytick_6">
     <g id="line2d_9">
      <g>
       <use xlink:href="#m0215014bf9" x="28.26" y="95.807541" style="fill: #262626; stroke: #262626"/>
      </g>
     </g>
     <g id="text_10">
      <text style="fill: #262626; font: 8.8px 'Arial', 'DejaVu Sans', 'Liberation Sans', 'Bitstream Vera Sans', sans-serif; text-anchor: end" x="19.96" y="99.150854" transform="rotate(-0 19.96 99.150854)">0.2</text>
     </g>
    </g>
    <g id="ytick_7">
     <g id="line2d_10">
      <g>
       <use xlink:href="#m0215014bf9" x="28.26" y="75.666788" style="fill: #262626; stroke: #262626"/>
      </g>
     </g>
     <g id="text_11">
      <text style="fill: #262626; font: 8.8px 'Arial', 'DejaVu Sans', 'Liberation Sans', 'Bitstream Vera Sans', sans-serif; text-anchor: end" x="19.96" y="79.0101" transform="rotate(-0 19.96 79.0101)">0.4</text>
     </g>
    </g>
    <g id="ytick_8">
     <g id="line2d_11">
      <g>
       <use xlink:href="#m0215014bf9" x="28.26" y="55.526035" style="fill: #262626; stroke: #262626"/>
      </g>
     </g>
     <g id="text_12">
      <text style="fill: #262626; font: 8.8px 'Arial', 'DejaVu Sans', 'Liberation Sans', 'Bitstream Vera Sans', sans-serif; text-anchor: end" x="19.96" y="58.869347" transform="rotate(-0 19.96 58.869347)">0.6</text>
     </g>
    </g>
    <g id="ytick_9">
     <g id="line2d_12">
      <g>
       <use xlink:href="#m0215014bf9" x="28.26" y="35.385282" style="fill: #262626; stroke: #262626"/>
      </g>
     </g>
     <g id="text_13">
      <text style="fill: #262626; font: 8.8px 'Arial', 'DejaVu Sans', 'Liberation Sans', 'Bitstream Vera Sans', sans-serif; text-anchor: end" x="19.96" y="38.728594" transform="rotate(-0 19.96 38.728594)">0.8</text>
     </g>
    </g>
    <g id="text_14">
     <!-- $r_{Energy,Attributions}(Ag_j, Ag_i)$ -->
     <g style="fill: #262626" transform="translate(-8.384875 170.5224) rotate(-90)">
      <text>
       <tspan style="font: oblique 9.6px 'DejaVu Sans'" x="0 74.391083 80.953995 94.090764 100.653676" y="-0.71875">rAgAg</tspan>
       <tspan style="font: oblique 6.72px 'DejaVu Sans'" x="3.944305 8.187479 12.443768 16.575452 19.336465 23.599313 31.016669 35.610707 38.243835 40.876964 43.637978 45.503793 49.766641 54.022931 56.656059 58.521875 62.630605 66.886894 87.043777 106.743459" y="0.8562499999999993">EnergyAttributionsji</tspan>
       <tspan style="font: 6.72px 'DejaVu Sans'" x="27.573599" y="0.8562499999999993">,</tspan>
       <tspan style="font: 9.6px 'DejaVu Sans'" x="70.648209 89.172093 108.871774" y="-0.71875">(,)</tspan>
      </text>
     </g>
    </g>
   </g>
   <g id="PathCollection_1">
    <defs>
     <path id="m2686cf64f5" d="M 0 2.4 
C 0.636487 2.4 1.246992 2.147121 1.697056 1.697056 
C 2.147121 1.246992 2.4 0.636487 2.4 0 
C 2.4 -0.636487 2.147121 -1.246992 1.697056 -1.697056 
C 1.246992 -2.147121 0.636487 -2.4 0 -2.4 
C -0.636487 -2.4 -1.246992 -2.147121 -1.697056 -1.697056 
C -2.147121 -1.246992 -2.4 -0.636487 -2.4 0 
C -2.4 0.636487 -2.147121 1.246992 -1.697056 1.697056 
C -1.246992 2.147121 -0.636487 2.4 0 2.4 
z
" style="stroke: #000000; stroke-opacity: 0.8; stroke-width: 0.1"/>
    </defs>
    <g clip-path="url(#p82268a037b)">
     <use xlink:href="#m2686cf64f5" x="57.310287" y="38.998443" style="fill: #4c72b0; fill-opacity: 0.8; stroke: #000000; stroke-opacity: 0.8; stroke-width: 0.1"/>
     <use xlink:href="#m2686cf64f5" x="76.671276" y="74.280058" style="fill: #4c72b0; fill-opacity: 0.8; stroke: #000000; stroke-opacity: 0.8; stroke-width: 0.1"/>
     <use xlink:href="#m2686cf64f5" x="126.467445" y="121.878318" style="fill: #4c72b0; fill-opacity: 0.8; stroke: #000000; stroke-opacity: 0.8; stroke-width: 0.1"/>
     <use xlink:href="#m2686cf64f5" x="62.215674" y="46.141626" style="fill: #4c72b0; fill-opacity: 0.8; stroke: #000000; stroke-opacity: 0.8; stroke-width: 0.1"/>
     <use xlink:href="#m2686cf64f5" x="63.767065" y="61.543481" style="fill: #4c72b0; fill-opacity: 0.8; stroke: #000000; stroke-opacity: 0.8; stroke-width: 0.1"/>
     <use xlink:href="#m2686cf64f5" x="48.404437" y="41.915529" style="fill: #4c72b0; fill-opacity: 0.8; stroke: #000000; stroke-opacity: 0.8; stroke-width: 0.1"/>
     <use xlink:href="#m2686cf64f5" x="62.849647" y="79.907919" style="fill: #4c72b0; fill-opacity: 0.8; stroke: #000000; stroke-opacity: 0.8; stroke-width: 0.1"/>
     <use xlink:href="#m2686cf64f5" x="59.014718" y="42.162146" style="fill: #4c72b0; fill-opacity: 0.8; stroke: #000000; stroke-opacity: 0.8; stroke-width: 0.1"/>
     <use xlink:href="#m2686cf64f5" x="59.954322" y="62.194289" style="fill: #4c72b0; fill-opacity: 0.8; stroke: #000000; stroke-opacity: 0.8; stroke-width: 0.1"/>
     <use xlink:href="#m2686cf64f5" x="190.167669" y="122.070549" style="fill: #4c72b0; fill-opacity: 0.8; stroke: #000000; stroke-opacity: 0.8; stroke-width: 0.1"/>
     <use xlink:href="#m2686cf64f5" x="195.507818" y="163.574433" style="fill: #4c72b0; fill-opacity: 0.8; stroke: #000000; stroke-opacity: 0.8; stroke-width: 0.1"/>
     <use xlink:href="#m2686cf64f5" x="134.134182" y="111.951876" style="fill: #4c72b0; fill-opacity: 0.8; stroke: #000000; stroke-opacity: 0.8; stroke-width: 0.1"/>
     <use xlink:href="#m2686cf64f5" x="185.049671" y="156.848211" style="fill: #4c72b0; fill-opacity: 0.8; stroke: #000000; stroke-opacity: 0.8; stroke-width: 0.1"/>
     <use xlink:href="#m2686cf64f5" x="152.974199" y="114.857516" style="fill: #4c72b0; fill-opacity: 0.8; stroke: #000000; stroke-opacity: 0.8; stroke-width: 0.1"/>
     <use xlink:href="#m2686cf64f5" x="144.441182" y="150.889274" style="fill: #4c72b0; fill-opacity: 0.8; stroke: #000000; stroke-opacity: 0.8; stroke-width: 0.1"/>
     <use xlink:href="#m2686cf64f5" x="186.237719" y="162.504627" style="fill: #4c72b0; fill-opacity: 0.8; stroke: #000000; stroke-opacity: 0.8; stroke-width: 0.1"/>
     <use xlink:href="#m2686cf64f5" x="180.87913" y="170.576537" style="fill: #4c72b0; fill-opacity: 0.8; stroke: #000000; stroke-opacity: 0.8; stroke-width: 0.1"/>
     <use xlink:href="#m2686cf64f5" x="163.868516" y="169.979035" style="fill: #4c72b0; fill-opacity: 0.8; stroke: #000000; stroke-opacity: 0.8; stroke-width: 0.1"/>
     <use xlink:href="#m2686cf64f5" x="38.633013" y="36.848296" style="fill: #4c72b0; fill-opacity: 0.8; stroke: #000000; stroke-opacity: 0.8; stroke-width: 0.1"/>
     <use xlink:href="#m2686cf64f5" x="104.774835" y="89.665549" style="fill: #4c72b0; fill-opacity: 0.8; stroke: #000000; stroke-opacity: 0.8; stroke-width: 0.1"/>
     <use xlink:href="#m2686cf64f5" x="53.22285" y="53.720446" style="fill: #4c72b0; fill-opacity: 0.8; stroke: #000000; stroke-opacity: 0.8; stroke-width: 0.1"/>
     <use xlink:href="#m2686cf64f5" x="96.193337" y="137.444189" style="fill: #4c72b0; fill-opacity: 0.8; stroke: #000000; stroke-opacity: 0.8; stroke-width: 0.1"/>
     <use xlink:href="#m2686cf64f5" x="40.753921" y="36.640848" style="fill: #4c72b0; fill-opacity: 0.8; stroke: #000000; stroke-opacity: 0.8; stroke-width: 0.1"/>
     <use xlink:href="#m2686cf64f5" x="78.480561" y="111.877302" style="fill: #4c72b0; fill-opacity: 0.8; stroke: #000000; stroke-opacity: 0.8; stroke-width: 0.1"/>
     <use xlink:href="#m2686cf64f5" x="38.920903" y="43.925945" style="fill: #4c72b0; fill-opacity: 0.8; stroke: #000000; stroke-opacity: 0.8; stroke-width: 0.1"/>
     <use xlink:href="#m2686cf64f5" x="92.065915" y="67.46895" style="fill: #4c72b0; fill-opacity: 0.8; stroke: #000000; stroke-opacity: 0.8; stroke-width: 0.1"/>
     <use xlink:href="#m2686cf64f5" x="41.152976" y="37.864167" style="fill: #4c72b0; fill-opacity: 0.8; stroke: #000000; stroke-opacity: 0.8; stroke-width: 0.1"/>
     <use xlink:href="#m2686cf64f5" x="54.388586" y="89.615961" style="fill: #4c72b0; fill-opacity: 0.8; stroke: #000000; stroke-opacity: 0.8; stroke-width: 0.1"/>
     <use xlink:href="#m2686cf64f5" x="36.224182" y="36.949282" style="fill: #4c72b0; fill-opacity: 0.8; stroke: #000000; stroke-opacity: 0.8; stroke-width: 0.1"/>
     <use xlink:href="#m2686cf64f5" x="71.055863" y="57.479811" style="fill: #4c72b0; fill-opacity: 0.8; stroke: #000000; stroke-opacity: 0.8; stroke-width: 0.1"/>
     <use xlink:href="#m2686cf64f5" x="179.019061" y="150.905569" style="fill: #4c72b0; fill-opacity: 0.8; stroke: #000000; stroke-opacity: 0.8; stroke-width: 0.1"/>
     <use xlink:href="#m2686cf64f5" x="147.218291" y="158.599119" style="fill: #4c72b0; fill-opacity: 0.8; stroke: #000000; stroke-opacity: 0.8; stroke-width: 0.1"/>
     <use xlink:href="#m2686cf64f5" x="169.884925" y="183.716547" style="fill: #4c72b0; fill-opacity: 0.8; stroke: #000000; stroke-opacity: 0.8; stroke-width: 0.1"/>
     <use xlink:href="#m2686cf64f5" x="164.88537" y="155.197811" style="fill: #4c72b0; fill-opacity: 0.8; stroke: #000000; stroke-opacity: 0.8; stroke-width: 0.1"/>
     <use xlink:href="#m2686cf64f5" x="154.620749" y="143.027949" style="fill: #4c72b0; fill-opacity: 0.8; stroke: #000000; stroke-opacity: 0.8; stroke-width: 0.1"/>
     <use xlink:href="#m2686cf64f5" x="73.920251" y="67.875674" style="fill: #4c72b0; fill-opacity: 0.8; stroke: #000000; stroke-opacity: 0.8; stroke-width: 0.1"/>
     <use xlink:href="#m2686cf64f5" x="117.584369" y="156.091533" style="fill: #4c72b0; fill-opacity: 0.8; stroke: #000000; stroke-opacity: 0.8; stroke-width: 0.1"/>
     <use xlink:href="#m2686cf64f5" x="73.018413" y="67.372353" style="fill: #4c72b0; fill-opacity: 0.8; stroke: #000000; stroke-opacity: 0.8; stroke-width: 0.1"/>
     <use xlink:href="#m2686cf64f5" x="124.276572" y="142.031672" style="fill: #4c72b0; fill-opacity: 0.8; stroke: #000000; stroke-opacity: 0.8; stroke-width: 0.1"/>
     <use xlink:href="#m2686cf64f5" x="155.139935" y="168.807296" style="fill: #4c72b0; fill-opacity: 0.8; stroke: #000000; stroke-opacity: 0.8; stroke-width: 0.1"/>
     <use xlink:href="#m2686cf64f5" x="124.444191" y="131.720856" style="fill: #4c72b0; fill-opacity: 0.8; stroke: #000000; stroke-opacity: 0.8; stroke-width: 0.1"/>
     <use xlink:href="#m2686cf64f5" x="156.138782" y="155.149474" style="fill: #4c72b0; fill-opacity: 0.8; stroke: #000000; stroke-opacity: 0.8; stroke-width: 0.1"/>
     <use xlink:href="#m2686cf64f5" x="55.218114" y="64.075266" style="fill: #4c72b0; fill-opacity: 0.8; stroke: #000000; stroke-opacity: 0.8; stroke-width: 0.1"/>
     <use xlink:href="#m2686cf64f5" x="98.020913" y="117.526883" style="fill: #4c72b0; fill-opacity: 0.8; stroke: #000000; stroke-opacity: 0.8; stroke-width: 0.1"/>
     <use xlink:href="#m2686cf64f5" x="146.640263" y="140.769328" style="fill: #4c72b0; fill-opacity: 0.8; stroke: #000000; stroke-opacity: 0.8; stroke-width: 0.1"/>
    </g>
   </g>
   <g id="PolyCollection_1">
    <defs>
     <path id="m39397d0e13" d="M 36.224182 -191.0376 
L 36.224182 -174.220958 
L 37.833107 -172.91363 
L 39.442033 -171.693958 
L 41.050959 -170.483432 
L 42.659884 -169.272907 
L 44.26881 -167.954311 
L 45.877736 -166.61305 
L 47.486661 -165.243753 
L 49.095587 -163.971954 
L 50.704512 -162.811733 
L 52.313438 -161.651869 
L 53.922364 -160.407384 
L 55.531289 -159.076911 
L 57.140215 -157.772945 
L 58.74914 -156.452776 
L 60.358066 -155.166811 
L 61.966992 -153.921077 
L 63.575917 -152.660253 
L 65.184843 -151.302595 
L 66.793769 -150.067867 
L 68.402694 -148.847235 
L 70.01162 -147.559997 
L 71.620545 -146.337357 
L 73.229471 -145.09983 
L 74.838397 -143.796421 
L 76.447322 -142.486608 
L 78.056248 -141.147463 
L 79.665174 -139.818391 
L 81.274099 -138.46648 
L 82.883025 -137.124795 
L 84.49195 -135.783135 
L 86.100876 -134.439716 
L 87.709802 -133.09974 
L 89.318727 -131.760543 
L 90.927653 -130.368181 
L 92.536579 -128.897948 
L 94.145504 -127.493848 
L 95.75443 -126.186024 
L 97.363355 -124.824076 
L 98.972281 -123.417872 
L 100.581207 -122.095762 
L 102.190132 -120.651593 
L 103.799058 -119.308788 
L 105.407983 -117.81609 
L 107.016909 -116.394984 
L 108.625835 -115.014086 
L 110.23476 -113.417865 
L 111.843686 -112.00116 
L 113.452612 -110.558647 
L 115.061537 -109.105008 
L 116.670463 -107.546997 
L 118.279388 -106.017679 
L 119.888314 -104.505404 
L 121.49724 -103.05252 
L 123.106165 -101.540289 
L 124.715091 -100.137925 
L 126.324017 -98.73702 
L 127.932942 -97.30151 
L 129.541868 -95.756849 
L 131.150793 -94.265851 
L 132.759719 -92.809708 
L 134.368645 -91.286777 
L 135.97757 -89.796889 
L 137.586496 -88.306204 
L 139.195421 -86.800882 
L 140.804347 -85.261949 
L 142.413273 -83.653994 
L 144.022198 -82.046038 
L 145.631124 -80.44356 
L 147.24005 -78.961632 
L 148.848975 -77.482741 
L 150.457901 -76.003477 
L 152.066826 -74.514874 
L 153.675752 -72.953273 
L 155.284678 -71.373944 
L 156.893603 -69.785442 
L 158.502529 -68.227705 
L 160.111455 -66.677126 
L 161.72038 -65.151036 
L 163.329306 -63.636034 
L 164.938231 -62.121031 
L 166.547157 -60.59067 
L 168.156083 -59.02706 
L 169.765008 -57.46345 
L 171.373934 -55.899841 
L 172.98286 -54.37208 
L 174.591785 -52.871161 
L 176.200711 -51.3758 
L 177.809636 -49.820957 
L 179.418562 -48.301799 
L 181.027488 -46.727768 
L 182.636413 -45.092201 
L 184.245339 -43.57205 
L 185.854264 -42.153546 
L 187.46319 -40.676606 
L 189.072116 -39.097604 
L 190.681041 -37.518603 
L 192.289967 -35.939602 
L 193.898893 -34.360601 
L 195.507818 -32.7816 
L 195.507818 -58.71575 
L 195.507818 -58.71575 
L 193.898893 -59.844837 
L 192.289967 -60.973923 
L 190.681041 -62.103327 
L 189.072116 -63.339131 
L 187.46319 -64.586542 
L 185.854264 -65.833954 
L 184.245339 -67.080939 
L 182.636413 -68.327336 
L 181.027488 -69.573732 
L 179.418562 -70.821578 
L 177.809636 -72.070561 
L 176.200711 -73.316779 
L 174.591785 -74.508536 
L 172.98286 -75.683273 
L 171.373934 -76.857624 
L 169.765008 -78.031976 
L 168.156083 -79.214881 
L 166.547157 -80.566222 
L 164.938231 -81.829064 
L 163.329306 -83.037912 
L 161.72038 -84.285114 
L 160.111455 -85.591335 
L 158.502529 -86.864081 
L 156.893603 -88.140932 
L 155.284678 -89.438187 
L 153.675752 -90.675234 
L 152.066826 -91.849406 
L 150.457901 -93.022242 
L 148.848975 -94.343017 
L 147.24005 -95.704577 
L 145.631124 -97.030858 
L 144.022198 -98.318343 
L 142.413273 -99.646354 
L 140.804347 -100.789601 
L 139.195421 -102.026041 
L 137.586496 -103.273229 
L 135.97757 -104.520417 
L 134.368645 -105.811644 
L 132.759719 -107.09581 
L 131.150793 -108.281224 
L 129.541868 -109.521587 
L 127.932942 -110.772432 
L 126.324017 -112.035969 
L 124.715091 -113.307069 
L 123.106165 -114.575636 
L 121.49724 -115.844203 
L 119.888314 -117.121811 
L 118.279388 -118.476195 
L 116.670463 -119.910215 
L 115.061537 -121.398579 
L 113.452612 -122.636286 
L 111.843686 -123.89437 
L 110.23476 -125.162793 
L 108.625835 -126.534978 
L 107.016909 -127.912759 
L 105.407983 -129.291025 
L 103.799058 -130.668147 
L 102.190132 -132.038844 
L 100.581207 -133.388273 
L 98.972281 -134.738115 
L 97.363355 -136.111087 
L 95.75443 -137.468724 
L 94.145504 -138.794508 
L 92.536579 -140.184151 
L 90.927653 -141.541934 
L 89.318727 -142.914224 
L 87.709802 -144.30768 
L 86.100876 -145.658278 
L 84.49195 -147.005891 
L 82.883025 -148.344489 
L 81.274099 -149.746764 
L 79.665174 -151.157689 
L 78.056248 -152.57614 
L 76.447322 -154.00077 
L 74.838397 -155.401385 
L 73.229471 -156.819531 
L 71.620545 -158.229742 
L 70.01162 -159.704513 
L 68.402694 -161.198486 
L 66.793769 -162.676295 
L 65.184843 -164.167246 
L 63.575917 -165.615901 
L 61.966992 -167.0311 
L 60.358066 -168.507155 
L 58.74914 -169.947112 
L 57.140215 -171.461281 
L 55.531289 -172.975179 
L 53.922364 -174.429127 
L 52.313438 -175.951769 
L 50.704512 -177.475935 
L 49.095587 -178.93609 
L 47.486661 -180.465254 
L 45.877736 -181.961279 
L 44.26881 -183.454868 
L 42.659884 -184.914861 
L 41.050959 -186.40167 
L 39.442033 -187.964547 
L 37.833107 -189.513621 
L 36.224182 -191.0376 
z
" style="stroke: #ffffff; stroke-opacity: 0.15; stroke-width: 0.8"/>
    </defs>
    <g clip-path="url(#p82268a037b)">
     <use xlink:href="#m39397d0e13" x="0" y="226.08" style="fill: #4c72b0; fill-opacity: 0.15; stroke: #ffffff; stroke-opacity: 0.15; stroke-width: 0.8"/>
    </g>
   </g>
   <g id="line2d_13">
    <path d="M 36.224182 42.814816 
L 37.833107 44.20404 
L 39.442033 45.593263 
L 41.050959 46.982486 
L 42.659884 48.371709 
L 44.26881 49.760933 
L 45.877736 51.150156 
L 47.486661 52.539379 
L 49.095587 53.928603 
L 50.704512 55.317826 
L 52.313438 56.707049 
L 53.922364 58.096272 
L 55.531289 59.485496 
L 57.140215 60.874719 
L 58.74914 62.263942 
L 60.358066 63.653165 
L 61.966992 65.042389 
L 63.575917 66.431612 
L 65.184843 67.820835 
L 66.793769 69.210058 
L 68.402694 70.599282 
L 70.01162 71.988505 
L 71.620545 73.377728 
L 73.229471 74.766951 
L 74.838397 76.156175 
L 76.447322 77.545398 
L 78.056248 78.934621 
L 79.665174 80.323844 
L 81.274099 81.713068 
L 82.883025 83.102291 
L 84.49195 84.491514 
L 86.100876 85.880737 
L 87.709802 87.269961 
L 89.318727 88.659184 
L 90.927653 90.048407 
L 92.536579 91.43763 
L 94.145504 92.826854 
L 95.75443 94.216077 
L 97.363355 95.6053 
L 98.972281 96.994523 
L 100.581207 98.383747 
L 102.190132 99.77297 
L 103.799058 101.162193 
L 105.407983 102.551416 
L 107.016909 103.94064 
L 108.625835 105.329863 
L 110.23476 106.719086 
L 111.843686 108.108309 
L 113.452612 109.497533 
L 115.061537 110.886756 
L 116.670463 112.275979 
L 118.279388 113.665202 
L 119.888314 115.054426 
L 121.49724 116.443649 
L 123.106165 117.832872 
L 124.715091 119.222096 
L 126.324017 120.611319 
L 127.932942 122.000542 
L 129.541868 123.389765 
L 131.150793 124.778989 
L 132.759719 126.168212 
L 134.368645 127.557435 
L 135.97757 128.946658 
L 137.586496 130.335882 
L 139.195421 131.725105 
L 140.804347 133.114328 
L 142.413273 134.503551 
L 144.022198 135.892775 
L 145.631124 137.281998 
L 147.24005 138.671221 
L 148.848975 140.060444 
L 150.457901 141.449668 
L 152.066826 142.838891 
L 153.675752 144.228114 
L 155.284678 145.617337 
L 156.893603 147.006561 
L 158.502529 148.395784 
L 160.111455 149.785007 
L 161.72038 151.17423 
L 163.329306 152.563454 
L 164.938231 153.952677 
L 166.547157 155.3419 
L 168.156083 156.731123 
L 169.765008 158.120347 
L 171.373934 159.50957 
L 172.98286 160.898793 
L 174.591785 162.288016 
L 176.200711 163.67724 
L 177.809636 165.066463 
L 179.418562 166.455686 
L 181.027488 167.844909 
L 182.636413 169.234133 
L 184.245339 170.623356 
L 185.854264 172.012579 
L 187.46319 173.401802 
L 189.072116 174.791026 
L 190.681041 176.180249 
L 192.289967 177.569472 
L 193.898893 178.958695 
L 195.507818 180.347919 
" clip-path="url(#p82268a037b)" style="fill: none; stroke: #4c72b0; stroke-width: 1.8; stroke-linecap: round"/>
   </g>
   <g id="patch_3">
    <path d="M 28.26 201.2112 
L 28.26 27.1296 
" style="fill: none; stroke: #262626; stroke-linejoin: miter; stroke-linecap: square"/>
   </g>
   <g id="patch_4">
    <path d="M 203.472 201.2112 
L 203.472 27.1296 
" style="fill: none; stroke: #262626; stroke-linejoin: miter; stroke-linecap: square"/>
   </g>
   <g id="patch_5">
    <path d="M 28.26 201.2112 
L 203.472 201.2112 
" style="fill: none; stroke: #262626; stroke-linejoin: miter; stroke-linecap: square"/>
   </g>
   <g id="patch_6">
    <path d="M 28.26 27.1296 
L 203.472 27.1296 
" style="fill: none; stroke: #262626; stroke-linejoin: miter; stroke-linecap: square"/>
   </g>
   <g id="text_15">
    <g id="patch_7">
     <path d="M 53.009244 172.379865 
L 172.056119 172.379865 
L 172.056119 154.70174 
L 53.009244 154.70174 
z
" style="fill: #ffffff; opacity: 0.5; stroke: #ffffff; stroke-width: 0.8; stroke-linejoin: miter"/>
    </g>
    <text style="fill: #262626; font: 700 10px 'Arial', 'DejaVu Sans', 'Liberation Sans', 'Bitstream Vera Sans', sans-serif; text-anchor: start" x="57.009244" y="166.300177" transform="rotate(-0 57.009244 166.300177)">r = -0.82, R2 = 0.68</text>
   </g>
  </g>
 </g>
 <defs>
  <clipPath id="p82268a037b">
   <rect x="28.26" y="27.1296" width="175.212" height="174.0816"/>
  </clipPath>
 </defs>
</svg>
