<?xml version="1.0" encoding="utf-8" standalone="no"?>
<!DOCTYPE svg PUBLIC "-//W3C//DTD SVG 1.1//EN"
  "http://www.w3.org/Graphics/SVG/1.1/DTD/svg11.dtd">
<svg xmlns:xlink="http://www.w3.org/1999/xlink" width="226.08pt" height="226.08pt" viewBox="0 0 226.08 226.08" xmlns="http://www.w3.org/2000/svg" version="1.1">
 <metadata>
  <rdf:RDF xmlns:dc="http://purl.org/dc/elements/1.1/" xmlns:cc="http://creativecommons.org/ns#" xmlns:rdf="http://www.w3.org/1999/02/22-rdf-syntax-ns#">
   <cc:Work>
    <dc:type rdf:resource="http://purl.org/dc/dcmitype/StillImage"/>
    <dc:date>2024-08-12T13:09:44.045380</dc:date>
    <dc:format>image/svg+xml</dc:format>
    <dc:creator>
     <cc:Agent>
      <dc:title>Matplotlib v3.7.2, https://matplotlib.org/</dc:title>
     </cc:Agent>
    </dc:creator>
   </cc:Work>
  </rdf:RDF>
 </metadata>
 <defs>
  <style type="text/css">*{stroke-linejoin: round; stroke-linecap: butt}</style>
 </defs>
 <g id="figure_1">
  <g id="patch_1">
   <path d="M 0 226.08 
L 226.08 226.08 
L 226.08 0 
L 0 0 
z
" style="fill: #ffffff"/>
  </g>
  <g id="axes_1">
   <g id="patch_2">
    <path d="M 28.26 201.2112 
L 203.472 201.2112 
L 203.472 27.1296 
L 28.26 27.1296 
z
" style="fill: #ffffff"/>
   </g>
   <g id="matplotlib.axis_1">
    <g id="xtick_1">
     <g id="line2d_1">
      <defs>
       <path id="m190c4514fc" d="M 0 0 
L 0 4.8 
" style="stroke: #262626"/>
      </defs>
      <g>
       <use xlink:href="#m190c4514fc" x="38.618683" y="201.2112" style="fill: #262626; stroke: #262626"/>
      </g>
     </g>
     <g id="text_1">
      <text style="fill: #262626; font: 8.8px 'Arial', 'DejaVu Sans', 'Liberation Sans', 'Bitstream Vera Sans', sans-serif; text-anchor: middle" x="38.618683" y="216.197825" transform="rotate(-0 38.618683 216.197825)">−0.6</text>
     </g>
    </g>
    <g id="xtick_2">
     <g id="line2d_2">
      <g>
       <use xlink:href="#m190c4514fc" x="74.47066" y="201.2112" style="fill: #262626; stroke: #262626"/>
      </g>
     </g>
     <g id="text_2">
      <text style="fill: #262626; font: 8.8px 'Arial', 'DejaVu Sans', 'Liberation Sans', 'Bitstream Vera Sans', sans-serif; text-anchor: middle" x="74.47066" y="216.197825" transform="rotate(-0 74.47066 216.197825)">−0.4</text>
     </g>
    </g>
    <g id="xtick_3">
     <g id="line2d_3">
      <g>
       <use xlink:href="#m190c4514fc" x="110.322638" y="201.2112" style="fill: #262626; stroke: #262626"/>
      </g>
     </g>
     <g id="text_3">
      <text style="fill: #262626; font: 8.8px 'Arial', 'DejaVu Sans', 'Liberation Sans', 'Bitstream Vera Sans', sans-serif; text-anchor: middle" x="110.322638" y="216.197825" transform="rotate(-0 110.322638 216.197825)">−0.2</text>
     </g>
    </g>
    <g id="xtick_4">
     <g id="line2d_4">
      <g>
       <use xlink:href="#m190c4514fc" x="146.174615" y="201.2112" style="fill: #262626; stroke: #262626"/>
      </g>
     </g>
     <g id="text_4">
      <text style="fill: #262626; font: 8.8px 'Arial', 'DejaVu Sans', 'Liberation Sans', 'Bitstream Vera Sans', sans-serif; text-anchor: middle" x="146.174615" y="216.197825" transform="rotate(-0 146.174615 216.197825)">0.0</text>
     </g>
    </g>
    <g id="xtick_5">
     <g id="line2d_5">
      <g>
       <use xlink:href="#m190c4514fc" x="182.026592" y="201.2112" style="fill: #262626; stroke: #262626"/>
      </g>
     </g>
     <g id="text_5">
      <text style="fill: #262626; font: 8.8px 'Arial', 'DejaVu Sans', 'Liberation Sans', 'Bitstream Vera Sans', sans-serif; text-anchor: middle" x="182.026592" y="216.197825" transform="rotate(-0 182.026592 216.197825)">0.2</text>
     </g>
    </g>
    <g id="text_6">
     <!-- $r_{Energy,Logits}(Ag_i, Ag_j)$ -->
     <g style="fill: #262626" transform="translate(69.114 229.32395)">
      <text>
       <tspan style="font: oblique 9.6px 'DejaVu Sans'" x="0 55.132848 61.69576 74.832529 81.395441" y="-0.71875">rAgAg</tspan>
       <tspan style="font: oblique 6.72px 'DejaVu Sans'" x="3.944305 8.187479 12.443768 16.575452 19.336465 23.599313 31.016669 34.758138 38.866867 43.129715 44.995531 47.628659 67.785542 87.485223" y="0.8562499999999993">EnergyLogitsij</tspan>
       <tspan style="font: 6.72px 'DejaVu Sans'" x="27.573599" y="0.8562499999999993">,</tspan>
       <tspan style="font: 9.6px 'DejaVu Sans'" x="51.389973 69.913858 89.613539" y="-0.71875">(,)</tspan>
      </text>
     </g>
    </g>
   </g>
   <g id="matplotlib.axis_2">
    <g id="ytick_1">
     <g id="line2d_6">
      <defs>
       <path id="mb0883066e9" d="M 0 0 
L -4.8 0 
" style="stroke: #262626"/>
      </defs>
      <g>
       <use xlink:href="#mb0883066e9" x="28.26" y="193.998089" style="fill: #262626; stroke: #262626"/>
      </g>
     </g>
     <g id="text_7">
      <text style="fill: #262626; font: 8.8px 'Arial', 'DejaVu Sans', 'Liberation Sans', 'Bitstream Vera Sans', sans-serif; text-anchor: end" x="19.96" y="197.341402" transform="rotate(-0 19.96 197.341402)">−0.6</text>
     </g>
    </g>
    <g id="ytick_2">
     <g id="line2d_7">
      <g>
       <use xlink:href="#mb0883066e9" x="28.26" y="160.096116" style="fill: #262626; stroke: #262626"/>
      </g>
     </g>
     <g id="text_8">
      <text style="fill: #262626; font: 8.8px 'Arial', 'DejaVu Sans', 'Liberation Sans', 'Bitstream Vera Sans', sans-serif; text-anchor: end" x="19.96" y="163.439429" transform="rotate(-0 19.96 163.439429)">−0.4</text>
     </g>
    </g>
    <g id="ytick_3">
     <g id="line2d_8">
      <g>
       <use xlink:href="#mb0883066e9" x="28.26" y="126.194143" style="fill: #262626; stroke: #262626"/>
      </g>
     </g>
     <g id="text_9">
      <text style="fill: #262626; font: 8.8px 'Arial', 'DejaVu Sans', 'Liberation Sans', 'Bitstream Vera Sans', sans-serif; text-anchor: end" x="19.96" y="129.537456" transform="rotate(-0 19.96 129.537456)">−0.2</text>
     </g>
    </g>
    <g id="ytick_4">
     <g id="line2d_9">
      <g>
       <use xlink:href="#mb0883066e9" x="28.26" y="92.29217" style="fill: #262626; stroke: #262626"/>
      </g>
     </g>
     <g id="text_10">
      <text style="fill: #262626; font: 8.8px 'Arial', 'DejaVu Sans', 'Liberation Sans', 'Bitstream Vera Sans', sans-serif; text-anchor: end" x="19.96" y="95.635482" transform="rotate(-0 19.96 95.635482)">0.0</text>
     </g>
    </g>
    <g id="ytick_5">
     <g id="line2d_10">
      <g>
       <use xlink:href="#mb0883066e9" x="28.26" y="58.390197" style="fill: #262626; stroke: #262626"/>
      </g>
     </g>
     <g id="text_11">
      <text style="fill: #262626; font: 8.8px 'Arial', 'DejaVu Sans', 'Liberation Sans', 'Bitstream Vera Sans', sans-serif; text-anchor: end" x="19.96" y="61.733509" transform="rotate(-0 19.96 61.733509)">0.2</text>
     </g>
    </g>
    <g id="text_12">
     <!-- $r_{Energy,Logits}(Ag_j, Ag_i)$ -->
     <g style="fill: #262626" transform="translate(-8.384875 160.9224) rotate(-90)">
      <text>
       <tspan style="font: oblique 9.6px 'DejaVu Sans'" x="0 55.132848 61.69576 74.832529 81.395441" y="-0.71875">rAgAg</tspan>
       <tspan style="font: oblique 6.72px 'DejaVu Sans'" x="3.944305 8.187479 12.443768 16.575452 19.336465 23.599313 31.016669 34.758138 38.866867 43.129715 44.995531 47.628659 67.785542 87.485223" y="0.8562499999999993">EnergyLogitsji</tspan>
       <tspan style="font: 6.72px 'DejaVu Sans'" x="27.573599" y="0.8562499999999993">,</tspan>
       <tspan style="font: 9.6px 'DejaVu Sans'" x="51.389973 69.913858 89.613539" y="-0.71875">(,)</tspan>
      </text>
     </g>
    </g>
   </g>
   <g id="PathCollection_1">
    <defs>
     <path id="m573dcf240d" d="M 0 2.4 
C 0.636487 2.4 1.246992 2.147121 1.697056 1.697056 
C 2.147121 1.246992 2.4 0.636487 2.4 0 
C 2.4 -0.636487 2.147121 -1.246992 1.697056 -1.697056 
C 1.246992 -2.147121 0.636487 -2.4 0 -2.4 
C -0.636487 -2.4 -1.246992 -2.147121 -1.697056 -1.697056 
C -2.147121 -1.246992 -2.4 -0.636487 -2.4 0 
C -2.4 0.636487 -2.147121 1.246992 -1.697056 1.697056 
C -1.246992 2.147121 -0.636487 2.4 0 2.4 
z
" style="stroke: #000000; stroke-opacity: 0.8; stroke-width: 0.1"/>
    </defs>
    <g clip-path="url(#pb548a39e34)">
     <use xlink:href="#m573dcf240d" x="41.298326" y="39.253837" style="fill: #4c72b0; fill-opacity: 0.8; stroke: #000000; stroke-opacity: 0.8; stroke-width: 0.1"/>
     <use xlink:href="#m573dcf240d" x="86.147875" y="59.786726" style="fill: #4c72b0; fill-opacity: 0.8; stroke: #000000; stroke-opacity: 0.8; stroke-width: 0.1"/>
     <use xlink:href="#m573dcf240d" x="119.084934" y="92.452466" style="fill: #4c72b0; fill-opacity: 0.8; stroke: #000000; stroke-opacity: 0.8; stroke-width: 0.1"/>
     <use xlink:href="#m573dcf240d" x="52.517641" y="67.950444" style="fill: #4c72b0; fill-opacity: 0.8; stroke: #000000; stroke-opacity: 0.8; stroke-width: 0.1"/>
     <use xlink:href="#m573dcf240d" x="49.885323" y="61.65596" style="fill: #4c72b0; fill-opacity: 0.8; stroke: #000000; stroke-opacity: 0.8; stroke-width: 0.1"/>
     <use xlink:href="#m573dcf240d" x="59.976557" y="55.366588" style="fill: #4c72b0; fill-opacity: 0.8; stroke: #000000; stroke-opacity: 0.8; stroke-width: 0.1"/>
     <use xlink:href="#m573dcf240d" x="80.693969" y="91.364721" style="fill: #4c72b0; fill-opacity: 0.8; stroke: #000000; stroke-opacity: 0.8; stroke-width: 0.1"/>
     <use xlink:href="#m573dcf240d" x="41.901815" y="38.144597" style="fill: #4c72b0; fill-opacity: 0.8; stroke: #000000; stroke-opacity: 0.8; stroke-width: 0.1"/>
     <use xlink:href="#m573dcf240d" x="36.224182" y="58.233712" style="fill: #4c72b0; fill-opacity: 0.8; stroke: #000000; stroke-opacity: 0.8; stroke-width: 0.1"/>
     <use xlink:href="#m573dcf240d" x="192.744046" y="96.523075" style="fill: #4c72b0; fill-opacity: 0.8; stroke: #000000; stroke-opacity: 0.8; stroke-width: 0.1"/>
     <use xlink:href="#m573dcf240d" x="180.874126" y="135.896028" style="fill: #4c72b0; fill-opacity: 0.8; stroke: #000000; stroke-opacity: 0.8; stroke-width: 0.1"/>
     <use xlink:href="#m573dcf240d" x="147.194602" y="92.914838" style="fill: #4c72b0; fill-opacity: 0.8; stroke: #000000; stroke-opacity: 0.8; stroke-width: 0.1"/>
     <use xlink:href="#m573dcf240d" x="195.507818" y="128.647433" style="fill: #4c72b0; fill-opacity: 0.8; stroke: #000000; stroke-opacity: 0.8; stroke-width: 0.1"/>
     <use xlink:href="#m573dcf240d" x="172.375467" y="112.436476" style="fill: #4c72b0; fill-opacity: 0.8; stroke: #000000; stroke-opacity: 0.8; stroke-width: 0.1"/>
     <use xlink:href="#m573dcf240d" x="172.861437" y="102.554126" style="fill: #4c72b0; fill-opacity: 0.8; stroke: #000000; stroke-opacity: 0.8; stroke-width: 0.1"/>
     <use xlink:href="#m573dcf240d" x="174.641677" y="133.92271" style="fill: #4c72b0; fill-opacity: 0.8; stroke: #000000; stroke-opacity: 0.8; stroke-width: 0.1"/>
     <use xlink:href="#m573dcf240d" x="188.900124" y="136.991148" style="fill: #4c72b0; fill-opacity: 0.8; stroke: #000000; stroke-opacity: 0.8; stroke-width: 0.1"/>
     <use xlink:href="#m573dcf240d" x="153.994785" y="138.000925" style="fill: #4c72b0; fill-opacity: 0.8; stroke: #000000; stroke-opacity: 0.8; stroke-width: 0.1"/>
     <use xlink:href="#m573dcf240d" x="58.480006" y="51.222942" style="fill: #4c72b0; fill-opacity: 0.8; stroke: #000000; stroke-opacity: 0.8; stroke-width: 0.1"/>
     <use xlink:href="#m573dcf240d" x="139.253841" y="75.242038" style="fill: #4c72b0; fill-opacity: 0.8; stroke: #000000; stroke-opacity: 0.8; stroke-width: 0.1"/>
     <use xlink:href="#m573dcf240d" x="114.856232" y="75.011424" style="fill: #4c72b0; fill-opacity: 0.8; stroke: #000000; stroke-opacity: 0.8; stroke-width: 0.1"/>
     <use xlink:href="#m573dcf240d" x="133.808534" y="116.510976" style="fill: #4c72b0; fill-opacity: 0.8; stroke: #000000; stroke-opacity: 0.8; stroke-width: 0.1"/>
     <use xlink:href="#m573dcf240d" x="80.156466" y="60.703114" style="fill: #4c72b0; fill-opacity: 0.8; stroke: #000000; stroke-opacity: 0.8; stroke-width: 0.1"/>
     <use xlink:href="#m573dcf240d" x="123.075498" y="100.54627" style="fill: #4c72b0; fill-opacity: 0.8; stroke: #000000; stroke-opacity: 0.8; stroke-width: 0.1"/>
     <use xlink:href="#m573dcf240d" x="54.632223" y="50.167869" style="fill: #4c72b0; fill-opacity: 0.8; stroke: #000000; stroke-opacity: 0.8; stroke-width: 0.1"/>
     <use xlink:href="#m573dcf240d" x="129.146427" y="77.106554" style="fill: #4c72b0; fill-opacity: 0.8; stroke: #000000; stroke-opacity: 0.8; stroke-width: 0.1"/>
     <use xlink:href="#m573dcf240d" x="56.091952" y="40.315303" style="fill: #4c72b0; fill-opacity: 0.8; stroke: #000000; stroke-opacity: 0.8; stroke-width: 0.1"/>
     <use xlink:href="#m573dcf240d" x="112.752408" y="90.777394" style="fill: #4c72b0; fill-opacity: 0.8; stroke: #000000; stroke-opacity: 0.8; stroke-width: 0.1"/>
     <use xlink:href="#m573dcf240d" x="59.491914" y="47.877381" style="fill: #4c72b0; fill-opacity: 0.8; stroke: #000000; stroke-opacity: 0.8; stroke-width: 0.1"/>
     <use xlink:href="#m573dcf240d" x="90.688009" y="86.45451" style="fill: #4c72b0; fill-opacity: 0.8; stroke: #000000; stroke-opacity: 0.8; stroke-width: 0.1"/>
     <use xlink:href="#m573dcf240d" x="159.912181" y="120.970089" style="fill: #4c72b0; fill-opacity: 0.8; stroke: #000000; stroke-opacity: 0.8; stroke-width: 0.1"/>
     <use xlink:href="#m573dcf240d" x="159.810422" y="108.747366" style="fill: #4c72b0; fill-opacity: 0.8; stroke: #000000; stroke-opacity: 0.8; stroke-width: 0.1"/>
     <use xlink:href="#m573dcf240d" x="165.585163" y="193.2984" style="fill: #4c72b0; fill-opacity: 0.8; stroke: #000000; stroke-opacity: 0.8; stroke-width: 0.1"/>
     <use xlink:href="#m573dcf240d" x="164.036475" y="115.798358" style="fill: #4c72b0; fill-opacity: 0.8; stroke: #000000; stroke-opacity: 0.8; stroke-width: 0.1"/>
     <use xlink:href="#m573dcf240d" x="148.81052" y="139.648901" style="fill: #4c72b0; fill-opacity: 0.8; stroke: #000000; stroke-opacity: 0.8; stroke-width: 0.1"/>
     <use xlink:href="#m573dcf240d" x="147.340524" y="81.636088" style="fill: #4c72b0; fill-opacity: 0.8; stroke: #000000; stroke-opacity: 0.8; stroke-width: 0.1"/>
     <use xlink:href="#m573dcf240d" x="166.224237" y="130.478256" style="fill: #4c72b0; fill-opacity: 0.8; stroke: #000000; stroke-opacity: 0.8; stroke-width: 0.1"/>
     <use xlink:href="#m573dcf240d" x="111.73311" y="81.562125" style="fill: #4c72b0; fill-opacity: 0.8; stroke: #000000; stroke-opacity: 0.8; stroke-width: 0.1"/>
     <use xlink:href="#m573dcf240d" x="132.511994" y="95.712472" style="fill: #4c72b0; fill-opacity: 0.8; stroke: #000000; stroke-opacity: 0.8; stroke-width: 0.1"/>
     <use xlink:href="#m573dcf240d" x="146.273437" y="146.018985" style="fill: #4c72b0; fill-opacity: 0.8; stroke: #000000; stroke-opacity: 0.8; stroke-width: 0.1"/>
     <use xlink:href="#m573dcf240d" x="130.548549" y="120.947341" style="fill: #4c72b0; fill-opacity: 0.8; stroke: #000000; stroke-opacity: 0.8; stroke-width: 0.1"/>
     <use xlink:href="#m573dcf240d" x="159.617497" y="147.943856" style="fill: #4c72b0; fill-opacity: 0.8; stroke: #000000; stroke-opacity: 0.8; stroke-width: 0.1"/>
     <use xlink:href="#m573dcf240d" x="78.899876" y="56.080937" style="fill: #4c72b0; fill-opacity: 0.8; stroke: #000000; stroke-opacity: 0.8; stroke-width: 0.1"/>
     <use xlink:href="#m573dcf240d" x="137.586088" y="116.092766" style="fill: #4c72b0; fill-opacity: 0.8; stroke: #000000; stroke-opacity: 0.8; stroke-width: 0.1"/>
     <use xlink:href="#m573dcf240d" x="137.806112" y="140.618617" style="fill: #4c72b0; fill-opacity: 0.8; stroke: #000000; stroke-opacity: 0.8; stroke-width: 0.1"/>
    </g>
   </g>
   <g id="PolyCollection_1">
    <defs>
     <path id="md4ad027ffb" d="M 36.224182 -191.0376 
L 36.224182 -175.235011 
L 37.833107 -174.341615 
L 39.442033 -173.487938 
L 41.050959 -172.613818 
L 42.659884 -171.74952 
L 44.26881 -170.871511 
L 45.877736 -169.967928 
L 47.486661 -169.021778 
L 49.095587 -168.17701 
L 50.704512 -167.332795 
L 52.313438 -166.490258 
L 53.922364 -165.623117 
L 55.531289 -164.684045 
L 57.140215 -163.851779 
L 58.74914 -162.902756 
L 60.358066 -161.911427 
L 61.966992 -161.049452 
L 63.575917 -160.138178 
L 65.184843 -159.253409 
L 66.793769 -158.311239 
L 68.402694 -157.486683 
L 70.01162 -156.625596 
L 71.620545 -155.628932 
L 73.229471 -154.642557 
L 74.838397 -153.801149 
L 76.447322 -152.859929 
L 78.056248 -151.899925 
L 79.665174 -150.946045 
L 81.274099 -150.013776 
L 82.883025 -149.113531 
L 84.49195 -148.214132 
L 86.100876 -147.278936 
L 87.709802 -146.320838 
L 89.318727 -145.375303 
L 90.927653 -144.43098 
L 92.536579 -143.503261 
L 94.145504 -142.492928 
L 95.75443 -141.465342 
L 97.363355 -140.381993 
L 98.972281 -139.32688 
L 100.581207 -138.298325 
L 102.190132 -137.218034 
L 103.799058 -136.089587 
L 105.407983 -134.95575 
L 107.016909 -134.011305 
L 108.625835 -132.871308 
L 110.23476 -131.77512 
L 111.843686 -130.600892 
L 113.452612 -129.487301 
L 115.061537 -128.312957 
L 116.670463 -127.222641 
L 118.279388 -126.130727 
L 119.888314 -125.129449 
L 121.49724 -124.130314 
L 123.106165 -123.022654 
L 124.715091 -121.970975 
L 126.324017 -120.818835 
L 127.932942 -119.662089 
L 129.541868 -118.422551 
L 131.150793 -117.234447 
L 132.759719 -115.981064 
L 134.368645 -114.741801 
L 135.97757 -113.59793 
L 137.586496 -112.509356 
L 139.195421 -111.287615 
L 140.804347 -110.066135 
L 142.413273 -108.901753 
L 144.022198 -107.769101 
L 145.631124 -106.628122 
L 147.24005 -105.5027 
L 148.848975 -104.366611 
L 150.457901 -103.175602 
L 152.066826 -101.979629 
L 153.675752 -100.783655 
L 155.284678 -99.588407 
L 156.893603 -98.394815 
L 158.502529 -97.201224 
L 160.111455 -96.015661 
L 161.72038 -94.901514 
L 163.329306 -93.734624 
L 164.938231 -92.521477 
L 166.547157 -91.280903 
L 168.156083 -90.028591 
L 169.765008 -88.868845 
L 171.373934 -87.700437 
L 172.98286 -86.556376 
L 174.591785 -85.41241 
L 176.200711 -84.268797 
L 177.809636 -83.125183 
L 179.418562 -81.98157 
L 181.027488 -80.837957 
L 182.636413 -79.694344 
L 184.245339 -78.550731 
L 185.854264 -77.407117 
L 187.46319 -76.263504 
L 189.072116 -75.099724 
L 190.681041 -73.919592 
L 192.289967 -72.739459 
L 193.898893 -71.559327 
L 195.507818 -70.379195 
L 195.507818 -96.410321 
L 195.507818 -96.410321 
L 193.898893 -97.253256 
L 192.289967 -98.096191 
L 190.681041 -98.939126 
L 189.072116 -99.782061 
L 187.46319 -100.624381 
L 185.854264 -101.465592 
L 184.245339 -102.286632 
L 182.636413 -103.150217 
L 181.027488 -103.993781 
L 179.418562 -104.822358 
L 177.809636 -105.666708 
L 176.200711 -106.521552 
L 174.591785 -107.364666 
L 172.98286 -108.150153 
L 171.373934 -109.04606 
L 169.765008 -109.893775 
L 168.156083 -110.737933 
L 166.547157 -111.581554 
L 164.938231 -112.421878 
L 163.329306 -113.233758 
L 161.72038 -114.107563 
L 160.111455 -114.962575 
L 158.502529 -115.903135 
L 156.893603 -116.842592 
L 155.284678 -117.654075 
L 153.675752 -118.434135 
L 152.066826 -119.214196 
L 150.457901 -120.054402 
L 148.848975 -120.929112 
L 147.24005 -121.803822 
L 145.631124 -122.678532 
L 144.022198 -123.553242 
L 142.413273 -124.406975 
L 140.804347 -125.247005 
L 139.195421 -126.178252 
L 137.586496 -127.009209 
L 135.97757 -127.874043 
L 134.368645 -128.749679 
L 132.759719 -129.605945 
L 131.150793 -130.448873 
L 129.541868 -131.323099 
L 127.932942 -132.278979 
L 126.324017 -133.17811 
L 124.715091 -134.060771 
L 123.106165 -134.940391 
L 121.49724 -135.825755 
L 119.888314 -136.710554 
L 118.279388 -137.59461 
L 116.670463 -138.490283 
L 115.061537 -139.375058 
L 113.452612 -140.291652 
L 111.843686 -141.270873 
L 110.23476 -142.18649 
L 108.625835 -143.121679 
L 107.016909 -144.033514 
L 105.407983 -144.970033 
L 103.799058 -145.953626 
L 102.190132 -146.97202 
L 100.581207 -147.935901 
L 98.972281 -148.893078 
L 97.363355 -149.84662 
L 95.75443 -150.789105 
L 94.145504 -151.841501 
L 92.536579 -152.964649 
L 90.927653 -153.909442 
L 89.318727 -154.864837 
L 87.709802 -155.976137 
L 86.100876 -156.978756 
L 84.49195 -158.032176 
L 82.883025 -159.093336 
L 81.274099 -160.164211 
L 79.665174 -161.21971 
L 78.056248 -162.244601 
L 76.447322 -163.334534 
L 74.838397 -164.445389 
L 73.229471 -165.556191 
L 71.620545 -166.6301 
L 70.01162 -167.667488 
L 68.402694 -168.78785 
L 66.793769 -169.88267 
L 65.184843 -171.016139 
L 63.575917 -172.111141 
L 61.966992 -173.257212 
L 60.358066 -174.446561 
L 58.74914 -175.604947 
L 57.140215 -176.779513 
L 55.531289 -177.953316 
L 53.922364 -179.071285 
L 52.313438 -180.159786 
L 50.704512 -181.249157 
L 49.095587 -182.336435 
L 47.486661 -183.422585 
L 45.877736 -184.510023 
L 44.26881 -185.598483 
L 42.659884 -186.686787 
L 41.050959 -187.774124 
L 39.442033 -188.861462 
L 37.833107 -189.950437 
L 36.224182 -191.0376 
z
" style="stroke: #ffffff; stroke-opacity: 0.15; stroke-width: 0.8"/>
    </defs>
    <g clip-path="url(#pb548a39e34)">
     <use xlink:href="#md4ad027ffb" x="0" y="226.08" style="fill: #4c72b0; fill-opacity: 0.15; stroke: #ffffff; stroke-opacity: 0.15; stroke-width: 0.8"/>
    </g>
   </g>
   <g id="line2d_11">
    <path d="M 36.224182 42.799645 
L 37.833107 43.804669 
L 39.442033 44.809694 
L 41.050959 45.814718 
L 42.659884 46.819742 
L 44.26881 47.824767 
L 45.877736 48.829791 
L 47.486661 49.834815 
L 49.095587 50.83984 
L 50.704512 51.844864 
L 52.313438 52.849889 
L 53.922364 53.854913 
L 55.531289 54.859937 
L 57.140215 55.864962 
L 58.74914 56.869986 
L 60.358066 57.87501 
L 61.966992 58.880035 
L 63.575917 59.885059 
L 65.184843 60.890083 
L 66.793769 61.895108 
L 68.402694 62.900132 
L 70.01162 63.905157 
L 71.620545 64.910181 
L 73.229471 65.915205 
L 74.838397 66.92023 
L 76.447322 67.925254 
L 78.056248 68.930278 
L 79.665174 69.935303 
L 81.274099 70.940327 
L 82.883025 71.945351 
L 84.49195 72.950376 
L 86.100876 73.9554 
L 87.709802 74.960425 
L 89.318727 75.965449 
L 90.927653 76.970473 
L 92.536579 77.975498 
L 94.145504 78.980522 
L 95.75443 79.985546 
L 97.363355 80.990571 
L 98.972281 81.995595 
L 100.581207 83.000619 
L 102.190132 84.005644 
L 103.799058 85.010668 
L 105.407983 86.015693 
L 107.016909 87.020717 
L 108.625835 88.025741 
L 110.23476 89.030766 
L 111.843686 90.03579 
L 113.452612 91.040814 
L 115.061537 92.045839 
L 116.670463 93.050863 
L 118.279388 94.055888 
L 119.888314 95.060912 
L 121.49724 96.065936 
L 123.106165 97.070961 
L 124.715091 98.075985 
L 126.324017 99.081009 
L 127.932942 100.086034 
L 129.541868 101.091058 
L 131.150793 102.096082 
L 132.759719 103.101107 
L 134.368645 104.106131 
L 135.97757 105.111156 
L 137.586496 106.11618 
L 139.195421 107.121204 
L 140.804347 108.126229 
L 142.413273 109.131253 
L 144.022198 110.136277 
L 145.631124 111.141302 
L 147.24005 112.146326 
L 148.848975 113.15135 
L 150.457901 114.156375 
L 152.066826 115.161399 
L 153.675752 116.166424 
L 155.284678 117.171448 
L 156.893603 118.176472 
L 158.502529 119.181497 
L 160.111455 120.186521 
L 161.72038 121.191545 
L 163.329306 122.19657 
L 164.938231 123.201594 
L 166.547157 124.206618 
L 168.156083 125.211643 
L 169.765008 126.216667 
L 171.373934 127.221692 
L 172.98286 128.226716 
L 174.591785 129.23174 
L 176.200711 130.236765 
L 177.809636 131.241789 
L 179.418562 132.246813 
L 181.027488 133.251838 
L 182.636413 134.256862 
L 184.245339 135.261886 
L 185.854264 136.266911 
L 187.46319 137.271935 
L 189.072116 138.27696 
L 190.681041 139.281984 
L 192.289967 140.287008 
L 193.898893 141.292033 
L 195.507818 142.297057 
" clip-path="url(#pb548a39e34)" style="fill: none; stroke: #4c72b0; stroke-width: 1.8; stroke-linecap: round"/>
   </g>
   <g id="patch_3">
    <path d="M 28.26 201.2112 
L 28.26 27.1296 
" style="fill: none; stroke: #262626; stroke-linejoin: miter; stroke-linecap: square"/>
   </g>
   <g id="patch_4">
    <path d="M 203.472 201.2112 
L 203.472 27.1296 
" style="fill: none; stroke: #262626; stroke-linejoin: miter; stroke-linecap: square"/>
   </g>
   <g id="patch_5">
    <path d="M 28.26 201.2112 
L 203.472 201.2112 
" style="fill: none; stroke: #262626; stroke-linejoin: miter; stroke-linecap: square"/>
   </g>
   <g id="patch_6">
    <path d="M 28.26 27.1296 
L 203.472 27.1296 
" style="fill: none; stroke: #262626; stroke-linejoin: miter; stroke-linecap: square"/>
   </g>
   <g id="text_13">
    <g id="patch_7">
     <path d="M 34.618683 183.12679 
L 153.665558 183.12679 
L 153.665558 165.448665 
L 34.618683 165.448665 
z
" style="fill: #ffffff; opacity: 0.5; stroke: #ffffff; stroke-width: 0.8; stroke-linejoin: miter"/>
    </g>
    <text style="fill: #262626; font: 700 10px 'Arial', 'DejaVu Sans', 'Liberation Sans', 'Bitstream Vera Sans', sans-serif; text-anchor: start" x="38.618683" y="177.047103" transform="rotate(-0 38.618683 177.047103)">r = -0.82, R2 = 0.68</text>
   </g>
  </g>
 </g>
 <defs>
  <clipPath id="pb548a39e34">
   <rect x="28.26" y="27.1296" width="175.212" height="174.0816"/>
  </clipPath>
 </defs>
</svg>
